<svg width="46" height="46" viewBox="0 0 46 46" fill="none" xmlns="http://www.w3.org/2000/svg">
<g clip-path="url(#clip0_7_1428)">
<path d="M45.3333 0.618896H0.333313V45.6189H45.3333V0.618896Z" fill="#F2F6F6"/>
<path d="M34.277 36.4308C32.7368 33.5151 22.8333 31.6853 22.8333 31.6853C22.8333 31.6853 12.9302 33.5151 11.3897 36.4308C10.251 40.4771 9.29858 45.6189 9.29858 45.6189H22.833H36.3678C36.3681 45.6189 35.7251 40.1056 34.277 36.4308Z" fill="#F1C9A5"/>
<path d="M22.833 31.6853C22.833 31.6853 32.7364 33.5151 34.2767 36.4308C35.7247 40.1059 36.3678 45.6189 36.3678 45.6189H22.833V31.6853Z" fill="#E4B692"/>
<path d="M25.5293 25.7568H20.1374V34.7807H25.5293V25.7568Z" fill="#F1C9A5"/>
<path d="M25.5293 25.7568H22.833V34.7807H25.5293V25.7568Z" fill="#E4B692"/>
<path opacity="0.1" d="M20.1374 29.9387C20.6218 31.3306 22.5792 32.1282 24.0164 32.1282C24.5365 32.1282 25.0424 32.0413 25.5293 31.8821V25.7568H20.1374V29.9387Z" fill="#DDAC8C"/>
<path d="M29.7655 20.0629C29.7655 14.4264 26.6618 11.2212 22.8331 11.2212C19.0046 11.2212 15.9009 14.4264 15.9009 20.0629C15.9009 27.6437 19.0046 30.2686 22.8331 30.2686C26.6621 30.2686 29.7655 27.3281 29.7655 20.0629Z" fill="#F1C9A5"/>
<path d="M28.7106 23.9714C27.4538 23.8399 26.6056 22.4858 26.8182 20.949C27.0283 19.4106 28.2184 18.2679 29.4756 18.3989C30.7316 18.5299 31.5785 19.883 31.3666 21.4213C31.1562 22.9597 29.9672 24.1009 28.7106 23.9714Z" fill="#E4B692"/>
<path d="M14.3488 21.4213C14.1365 19.883 14.9838 18.5299 16.2391 18.3989C17.4973 18.2679 18.6874 19.4106 18.8982 20.949C19.1101 22.4858 18.261 23.8399 17.005 23.9714C15.7482 24.1009 14.5595 22.9597 14.3488 21.4213Z" fill="#F1C9A5"/>
<path d="M29.7655 20.0629C29.7655 14.4264 26.6617 11.2212 22.833 11.2212V30.2686C26.662 30.2686 29.7655 27.3281 29.7655 20.0629Z" fill="#E4B692"/>
<path d="M34.277 36.4308C33.512 34.9824 30.6863 33.8031 28.0341 32.9825C27.432 34.7965 25.3353 36.1366 22.8333 36.1366C20.332 36.1366 18.235 34.7965 17.6329 32.9825C14.9807 33.8031 12.1547 34.9824 11.3897 36.4308C10.251 40.4771 9.29858 45.6189 9.29858 45.6189H22.833H36.3678C36.3681 45.6189 35.7251 40.1056 34.277 36.4308Z" fill="#DB6223"/>
<path d="M16.6516 33.301C17.1047 35.4454 19.6958 37.0909 22.8334 37.0909C25.971 37.0909 28.562 35.4454 29.0151 33.301C28.6883 33.1895 28.36 33.0834 28.0341 32.9825C27.4321 34.7965 25.3354 36.1366 22.8334 36.1366C20.332 36.1366 18.235 34.7965 17.6329 32.9825C17.3071 33.0831 16.9784 33.1892 16.6516 33.301Z" fill="white"/>
<path d="M20.9753 45.4858C19.9161 45.4858 19.3339 44.8748 19.3339 43.8066V43.2815C19.3339 42.6418 19.5248 42.1459 19.9832 41.8877C19.544 41.649 19.3339 41.2006 19.3339 40.5417V40.3319C19.3339 39.2631 19.9161 38.6517 20.9753 38.6517C22.0352 38.6517 22.6174 39.2631 22.6174 40.3319V40.5417C22.6174 41.2006 22.3976 41.649 21.9681 41.8877C22.4265 42.1459 22.6174 42.6421 22.6174 43.2815V43.8066C22.6174 44.8748 22.0352 45.4858 20.9753 45.4858ZM20.3838 40.7419C20.3838 41.2766 20.6321 41.4486 20.9753 41.4486C21.3096 41.4486 21.5672 41.2763 21.5672 40.7419V40.3701C21.5672 39.7687 21.3096 39.6064 20.9753 39.6064C20.6417 39.6064 20.3838 39.7687 20.3838 40.3701V40.7419ZM20.9753 44.5315C21.3096 44.5315 21.5579 44.3695 21.5672 43.7774V43.157C21.5672 42.6319 21.3478 42.4029 20.9753 42.4029C20.6032 42.4029 20.3838 42.6316 20.3838 43.157V43.7774C20.3838 44.3695 20.6417 44.5315 20.9753 44.5315Z" fill="white"/>
<path d="M26.3325 43.7491C26.3325 44.875 25.817 45.4861 24.729 45.4861C23.6983 45.4861 23.1636 44.875 23.1636 43.8068V43.6346H24.1561V43.8732C24.1561 44.3505 24.3662 44.5318 24.7001 44.5318C25.0725 44.5318 25.2823 44.3505 25.2823 43.7109V42.4891C25.1011 42.8708 24.7765 43.0809 24.3088 43.0809C23.5357 43.0809 23.144 42.5369 23.144 41.5537V40.3316C23.144 39.2627 23.7076 38.6514 24.7383 38.6514C25.7693 38.6514 26.3325 39.2627 26.3325 40.3316V43.7491ZM25.2823 41.4677V40.2648C25.2823 39.7878 25.0725 39.6162 24.7383 39.6162C24.4047 39.6162 24.1943 39.7878 24.1943 40.2648V41.4677C24.1943 41.9451 24.4047 42.126 24.7383 42.126C25.0725 42.126 25.2823 41.9451 25.2823 41.4677Z" fill="white"/>
<path d="M29.8174 18.3889C29.5409 13.9547 26.5209 10.4618 22.8331 10.4618C19.1455 10.4618 16.1256 13.9547 15.8491 18.3889H29.8174Z" fill="#2EAFAB"/>
</g>
<defs>
<clipPath id="clip0_7_1428">
<rect x="0.333313" y="0.618896" width="45" height="45" rx="22.5" fill="white"/>
</clipPath>
</defs>
</svg>
