<svg width="45" height="46" viewBox="0 0 45 46" fill="none" xmlns="http://www.w3.org/2000/svg">
<g clip-path="url(#clip0_7_1252)">
<path d="M45 0.618896H0V45.6189H45V0.618896Z" fill="#2EAFAB"/>
<path d="M33.944 36.4309C32.4031 33.5149 22.5 31.6851 22.5 31.6851C22.5 31.6851 12.5969 33.5149 11.056 36.4309C9.91769 40.4774 8.96555 45.6189 8.96555 45.6189H22.5H36.0345C36.0345 45.6189 35.3914 40.106 33.944 36.4309Z" fill="#F1C9A5"/>
<path d="M22.5 31.6851C22.5 31.6851 32.4031 33.5149 33.944 36.4309C35.3914 40.106 36.0344 45.6189 36.0344 45.6189H22.5V31.6851Z" fill="#E4B692"/>
<path d="M25.196 25.7568H19.8037V34.7807H25.196V25.7568Z" fill="#F1C9A5"/>
<path d="M25.1963 25.7568H22.5V34.7807H25.1963V25.7568Z" fill="#E4B692"/>
<path opacity="0.1" d="M19.804 29.9384C20.2891 31.3303 22.2461 32.1282 23.6834 32.1282C24.2035 32.1282 24.709 32.0413 25.1963 31.8818V25.7568H19.804V29.9384Z" fill="#DDAC8C"/>
<path d="M29.4325 20.0626C29.4325 14.4261 26.3284 11.2212 22.5 11.2212C18.6716 11.2212 15.5675 14.4264 15.5675 20.0626C15.5675 27.644 18.6716 30.2689 22.5 30.2689C26.3284 30.2689 29.4325 27.3281 29.4325 20.0626Z" fill="#F1C9A5"/>
<path d="M28.3773 23.9711C27.1207 23.8396 26.2722 22.4855 26.4848 20.9484C26.6952 19.41 27.8857 18.2679 29.1426 18.3989C30.3986 18.5299 31.2458 19.883 31.0339 21.4213C30.8228 22.96 29.6336 24.1012 28.3773 23.9711Z" fill="#E4B692"/>
<path d="M14.0152 21.4216C13.8029 19.8832 14.6504 18.5301 15.9058 18.3991C17.1636 18.2682 18.3541 19.4106 18.5648 20.9486C18.7771 22.4858 17.9277 23.8398 16.6717 23.9714C15.4154 24.1011 14.2262 22.96 14.0152 21.4216Z" fill="#F1C9A5"/>
<path d="M29.4325 20.0626C29.4325 14.4261 26.3284 11.2212 22.5 11.2212V30.2689C26.3284 30.2689 29.4325 27.3281 29.4325 20.0626Z" fill="#E4B692"/>
<path d="M28.7361 24.7867C28.3633 25.835 27.7324 27.0957 26.5922 27.0957C25.1677 27.0957 24.1482 25.9378 22.514 25.9378C22.509 25.9378 22.505 25.9384 22.5006 25.9384C22.4957 25.9384 22.491 25.9378 22.486 25.9378C20.8518 25.9378 19.8335 27.0957 18.4078 27.0957C17.2682 27.0957 16.6373 25.835 16.2646 24.7867L15.9421 22.767V25.1839C15.9421 25.1839 16.4834 28.0301 17.523 28.7178C18.3696 29.4701 21.1345 30.7587 22.486 30.7587C22.491 30.7587 22.4957 30.758 22.5006 30.758C22.505 30.758 22.5096 30.7587 22.514 30.7587H22.5146C23.8668 30.7587 26.631 29.4701 27.477 28.7178C28.5167 28.0301 29.0585 25.1839 29.0585 25.1839V22.767L28.7361 24.7867Z" fill="black"/>
<path d="M23.6281 27.7545C23.6281 27.7545 23.4633 27.0199 22.5 27.0199C21.6199 27.0199 21.3719 27.7545 21.3719 27.7545H23.6281Z" fill="white"/>
<path d="M26.7092 14.4947C26.7092 14.4947 26.1317 16.3105 22.005 18.1261C17.8783 19.9416 16.0631 20.5194 16.3933 22.335C14.62 19.0971 15.2792 10.162 22.1698 10.162C27.5754 10.162 27.369 13.3393 26.7092 14.4947Z" fill="black"/>
<path d="M29.3937 18.9925C29.3937 18.9925 26.9975 14.7836 25.3058 14.5776C26.0491 12.1429 27.0438 12.308 27.0438 12.308C27.0438 12.308 29.7282 12.8008 29.3937 18.9925Z" fill="black"/>
<path d="M33.944 36.4309C33.044 34.728 29.295 33.3966 26.3297 32.5829C26.3532 32.1692 25.6109 34.6076 25.6109 34.6076L22.5984 41.3632L19.7804 35.0638L18.6707 32.5829C15.7053 33.3966 11.9563 34.728 11.0563 36.4309C9.91769 40.4775 8.96555 45.6189 8.96555 45.6189H22.5H36.0345C36.0345 45.6189 35.3914 40.106 33.944 36.4309Z" fill="#F8703B"/>
</g>
<defs>
<clipPath id="clip0_7_1252">
<rect y="0.618896" width="45" height="45" rx="22.5" fill="white"/>
</clipPath>
</defs>
</svg>
