<svg width="46" height="46" viewBox="0 0 46 46" fill="none" xmlns="http://www.w3.org/2000/svg">
<g clip-path="url(#clip0_7_1405)">
<path d="M45.6667 0.618896H0.666656V45.6189H45.6667V0.618896Z" fill="#F8703B"/>
<path d="M18.8935 31.1376H27.2182C27.2182 31.1376 31.4926 26.9209 31.3272 21.4489C31.1624 15.9775 25.9356 12.6208 21.259 12.6208C16.583 12.6208 13.1164 24.126 18.8935 31.1376Z" fill="#D69648"/>
<path d="M34.6103 36.4312C33.0701 33.5152 23.167 31.6851 23.167 31.6851C23.167 31.6851 13.2632 33.5149 11.723 36.4312C10.5847 40.4777 9.6319 45.6189 9.6319 45.6189H23.167H36.7014C36.7014 45.6189 36.0584 40.106 34.6103 36.4312Z" fill="#F1C9A5"/>
<path d="M23.167 31.6851C23.167 31.6851 33.0701 33.5149 34.6103 36.4312C36.0584 40.1063 36.7014 45.6189 36.7014 45.6189H23.167V31.6851Z" fill="#E4B692"/>
<path d="M25.8629 25.7571H20.4707V34.781H25.8629V25.7571Z" fill="#F1C9A5"/>
<path d="M25.8629 25.7571H23.167V34.781H25.8629V25.7571Z" fill="#E4B692"/>
<path opacity="0.1" d="M20.4707 29.9384C20.9558 31.3303 22.9128 32.1288 24.35 32.1288C24.8702 32.1288 25.3757 32.0419 25.8629 31.8817V25.7571H20.4707V29.9384Z" fill="#DDAC8C"/>
<path d="M30.0988 20.0626C30.0988 14.4261 26.9954 11.2212 23.167 11.2212C19.3379 11.2212 16.2345 14.4261 16.2345 20.0626C16.2345 25.6991 19.3379 30.2692 23.167 30.2692C26.9954 30.2692 30.0988 25.6991 30.0988 20.0626Z" fill="#F1C9A5"/>
<path d="M29.044 23.9705C27.7874 23.8305 26.9389 22.3914 27.1515 20.7575C27.3619 19.1223 28.5524 17.9088 29.8093 18.0475C31.0652 18.1866 31.9125 19.6253 31.7005 21.2605C31.4898 22.8958 30.3005 24.1083 29.044 23.9705Z" fill="#E4B692"/>
<path d="M14.6821 21.2608C14.4699 19.6256 15.3174 18.1871 16.5728 18.0478C17.8306 17.9091 19.0211 19.1225 19.2318 20.7577C19.4441 22.3917 18.5947 23.8304 17.3387 23.9707C16.0824 24.1082 14.8932 22.8957 14.6821 21.2608Z" fill="#F1C9A5"/>
<path d="M30.0988 20.0626C30.0988 14.4261 26.9954 11.2212 23.167 11.2212V30.2692C26.9954 30.2692 30.0988 25.6991 30.0988 20.0626Z" fill="#E4B692"/>
<path d="M36.7014 45.6189C36.7014 45.6189 36.0584 40.1059 34.6103 36.4312C33.7659 34.8316 30.4067 33.5602 27.5438 32.7374L23.1564 36.1813L18.5928 32.7942C15.7749 33.6182 12.5482 34.8686 11.7227 36.4315C10.5847 40.4777 9.6319 45.6189 9.6319 45.6189H23.167H36.7014Z" fill="#2EAFAB"/>
<path d="M20.3695 14.7761C21.52 16.853 24.404 18.036 26.4849 19.5964C30.1283 22.3275 28.4816 28.3671 27.2182 31.1375C31.7964 28.4766 35.1531 24.0123 33.4689 16.7776C31.7849 9.5428 26.0358 6.46449 20.089 9.0298C15.1948 7.74653 10.1719 15.1787 10.7507 21.9007C11.3295 28.6216 18.8935 31.1375 18.8935 31.1375C18.8935 31.1375 14.382 21.1246 20.3695 14.7761Z" fill="#FFD700"/>
<path d="M28.7156 33.0924C28.7156 33.0924 27.4935 32.4773 26.5857 32.4717C25.3487 33.2916 23.1567 36.1809 23.1567 36.1809L24.386 37.5278C24.386 37.5278 27.9838 33.4989 28.7156 33.0924Z" fill="white"/>
<path d="M17.5978 33.0924C17.5978 33.0924 18.82 32.4773 19.7271 32.4717C20.9648 33.2916 23.1567 36.1809 23.1567 36.1809L21.9275 37.5278C21.9275 37.5278 18.3299 33.4989 17.5978 33.0924Z" fill="white"/>
<path d="M23.1567 36.1809C23.1567 36.1809 21.0849 38.4353 21.6627 40.0307C22.2403 41.6268 21.7453 43.7726 21.7453 43.7726L22.3588 43.6624C22.3588 43.6624 22.811 41.84 22.0898 39.7912C21.7515 38.8316 22.5615 36.9363 23.1567 36.1809Z" fill="white"/>
<path d="M23.1434 36.1809C23.1434 36.1809 22.0749 39.3877 23.2464 40.9801C24.418 42.5725 24.7938 45.135 24.7938 45.135L25.3298 44.8082C25.3298 44.8082 25.0405 42.6212 23.5549 40.5704C22.8591 39.6099 22.879 37.2227 23.1434 36.1809Z" fill="white"/>
</g>
<defs>
<clipPath id="clip0_7_1405">
<rect x="0.666656" y="0.618896" width="45" height="45" rx="22.5" fill="white"/>
</clipPath>
</defs>
</svg>
