<svg width="14" height="14" viewBox="0 0 14 14" fill="none" xmlns="http://www.w3.org/2000/svg">
<path d="M5.66667 10.5833L2.33334 7.25L3.27334 6.30333L5.66667 8.69667L10.7267 3.63667L11.6667 4.58333M7 0.583334C6.12452 0.583334 5.25762 0.755772 4.44878 1.0908C3.63994 1.42584 2.90501 1.9169 2.28596 2.53596C1.03571 3.7862 0.333336 5.48189 0.333336 7.25C0.333336 9.01811 1.03571 10.7138 2.28596 11.964C2.90501 12.5831 3.63994 13.0742 4.44878 13.4092C5.25762 13.7442 6.12452 13.9167 7 13.9167C8.76811 13.9167 10.4638 13.2143 11.714 11.964C12.9643 10.7138 13.6667 9.01811 13.6667 7.25C13.6667 6.37452 13.4942 5.50761 13.1592 4.69878C12.8242 3.88994 12.3331 3.15501 11.714 2.53596C11.095 1.9169 10.3601 1.42584 9.55122 1.0908C8.74239 0.755772 7.87548 0.583334 7 0.583334Z" fill="#2EAFAB"/>
</svg>
