<svg width="45" height="45" viewBox="0 0 45 45" fill="none" xmlns="http://www.w3.org/2000/svg">
<path d="M44.9125 24.5571C44.5085 20.389 42.693 16.4595 39.8001 13.4924C37.3279 10.9569 34.302 9.32759 31.1181 8.6031V6.31271C32.4185 5.98089 33.3852 4.77359 33.3852 3.33859C33.3852 1.64856 32.0447 0.273682 30.3969 0.273682H24.0688C22.421 0.273682 21.0805 1.64856 21.0805 3.33859C21.0805 4.7735 22.0471 5.9808 23.3474 6.31271V8.6095C20.1733 9.33705 17.1574 10.9642 14.6922 13.4925C14.1528 14.0458 13.6553 14.6263 13.1999 15.2295C13.1779 15.2278 13.1558 15.2261 13.1333 15.2261H6.87015C6.38481 15.2261 5.99124 15.6297 5.99124 16.1275C5.99124 16.6254 6.38481 17.029 6.87015 17.029H12.004C11.3596 18.1355 10.84 19.2975 10.4445 20.4938H0.878906C0.393574 20.4938 0 20.8973 0 21.3952C0 21.8931 0.393574 22.2966 0.878906 22.2966H9.94781C9.69451 23.4371 9.54914 24.5977 9.51161 25.7615H5.625C5.13967 25.7615 4.74609 26.1651 4.74609 26.663C4.74609 27.1608 5.13967 27.5644 5.625 27.5644H9.53965C9.61383 28.7312 9.79673 29.8919 10.0884 31.0293H4.39453C3.9092 31.0293 3.51562 31.4328 3.51562 31.9307C3.51562 32.4286 3.9092 32.8322 4.39453 32.8322H10.6494C11.5116 35.1715 12.859 37.3641 14.6922 39.2443C17.5879 42.2142 21.4231 44.0767 25.4912 44.489C26.0718 44.5478 26.6528 44.5769 27.2331 44.5769C30.6628 44.5769 34.0488 43.5589 36.922 41.6399C37.3287 41.3682 37.4438 40.8097 37.1789 40.3926C36.914 39.9754 36.3695 39.8574 35.9627 40.1291C29.6735 44.3295 21.2507 43.4213 15.9352 37.9695C9.69829 31.5727 9.69829 21.1643 15.9352 14.7674C22.172 8.37071 32.3201 8.37071 38.5571 14.7674C43.8656 20.2121 44.7559 28.8435 40.674 35.2908C40.4096 35.7084 40.5254 36.2667 40.9324 36.5378C41.3397 36.809 41.8839 36.6902 42.1482 36.2727C44.3291 32.8278 45.3109 28.6672 44.9125 24.5571ZM22.8383 3.33868C22.8383 2.64276 23.3902 2.07666 24.0688 2.07666H30.3969C31.0754 2.07666 31.6274 2.64276 31.6274 3.33868C31.6274 4.03459 31.0754 4.6007 30.3969 4.6007H30.2392H24.2263H24.0688C23.3902 4.6007 22.8383 4.0345 22.8383 3.33868ZM25.1053 8.29958V6.40358H29.3603V8.29634C27.9474 8.12398 26.5179 8.12506 25.1053 8.29958Z" fill="#2EAFAB"/>
<path d="M39.179 37.705C38.947 37.705 38.7211 37.8015 38.5577 37.9691C38.3933 38.1368 38.3001 38.3694 38.3001 38.6065C38.3001 38.8435 38.3933 39.0761 38.5577 39.2438C38.7211 39.4124 38.9471 39.5079 39.179 39.5079C39.4102 39.5079 39.636 39.4124 39.8004 39.2438C39.9639 39.0761 40.0579 38.8435 40.0579 38.6065C40.0579 38.3694 39.9639 38.1368 39.8004 37.9691C39.636 37.8015 39.4101 37.705 39.179 37.705Z" fill="#2EAFAB"/>
<path d="M27.2462 12.3843C19.7282 12.3843 13.6118 18.6574 13.6118 26.3683C13.6118 34.0791 19.7282 40.3522 27.2462 40.3522C34.7642 40.3522 40.8806 34.0791 40.8806 26.3683C40.8806 18.6574 34.7642 12.3843 27.2462 12.3843ZM27.2462 38.5494C20.6974 38.5494 15.3696 33.0849 15.3696 26.3683C15.3696 19.6516 20.6974 14.1872 27.2462 14.1872C33.795 14.1872 39.1227 19.6516 39.1227 26.3683C39.1227 33.0849 33.795 38.5494 27.2462 38.5494Z" fill="#2EAFAB"/>
<path d="M32.8058 19.3913L28.4526 23.856C28.0885 23.6714 27.679 23.5671 27.2462 23.5671C26.8132 23.5671 26.4038 23.6714 26.0398 23.856L24.0915 21.8578C23.7482 21.5058 23.1919 21.5058 22.8485 21.8578C22.5053 22.2098 22.5053 22.7806 22.8485 23.1326L24.7968 25.1308C24.6167 25.5042 24.5151 25.9242 24.5151 26.3682C24.5151 27.9127 25.7402 29.1693 27.2462 29.1693C28.7522 29.1693 29.9773 27.9127 29.9773 26.3682C29.9773 25.9242 29.8756 25.5042 29.6956 25.1308L33.921 20.7971L34.0487 20.6661C34.392 20.3141 34.392 19.7433 34.0487 19.3913C33.7055 19.0393 33.1492 19.0393 32.8058 19.3913ZM27.2462 27.3665C26.7095 27.3665 26.2729 26.9187 26.2729 26.3683C26.2729 25.8178 26.7095 25.37 27.2462 25.37C27.7828 25.37 28.2195 25.8178 28.2195 26.3683C28.2195 26.9187 27.7828 27.3665 27.2462 27.3665Z" fill="#2EAFAB"/>
<path d="M36.6434 25.4778H35.8291C35.3437 25.4778 34.9501 25.8814 34.9501 26.3793C34.9501 26.8772 35.3437 27.2807 35.8291 27.2807H36.6434C37.1287 27.2807 37.5223 26.8772 37.5223 26.3793C37.5223 25.8814 37.1287 25.4778 36.6434 25.4778Z" fill="#2EAFAB"/>
<path d="M18.6632 25.4558H17.849C17.3637 25.4558 16.9701 25.8594 16.9701 26.3573C16.9701 26.8551 17.3637 27.2587 17.849 27.2587H18.6632C19.1485 27.2587 19.5421 26.8551 19.5421 26.3573C19.5421 25.8594 19.1485 25.4558 18.6632 25.4558Z" fill="#2EAFAB"/>
<path d="M27.2569 18.4667C27.7422 18.4667 28.1358 18.0631 28.1358 17.5652V16.7301C28.1358 16.2323 27.7422 15.8287 27.2569 15.8287C26.7716 15.8287 26.378 16.2323 26.378 16.7301V17.5652C26.378 18.0631 26.7716 18.4667 27.2569 18.4667Z" fill="#2EAFAB"/>
<path d="M27.2355 34.2698C26.7501 34.2698 26.3566 34.6734 26.3566 35.1713V36.0064C26.3566 36.5042 26.7501 36.9078 27.2355 36.9078C27.7208 36.9078 28.1144 36.5042 28.1144 36.0064V35.1713C28.1144 34.6734 27.7208 34.2698 27.2355 34.2698Z" fill="#2EAFAB"/>
<path d="M0.878906 31.0289C0.647754 31.0289 0.420996 31.1254 0.25752 31.2931C0.094043 31.4607 0 31.6933 0 31.9304C0 32.1684 0.0939551 32.4 0.25752 32.5677C0.421084 32.7354 0.647754 32.8318 0.878906 32.8318C1.11006 32.8318 1.33682 32.7354 1.50021 32.5677C1.66368 32.4 1.75781 32.1675 1.75781 31.9304C1.75781 31.6933 1.66377 31.4607 1.50021 31.2931C1.33682 31.1254 1.11006 31.0289 0.878906 31.0289Z" fill="#2EAFAB"/>
</svg>
