<svg width="124" height="21" viewBox="0 0 124 21" fill="none" xmlns="http://www.w3.org/2000/svg">
<path d="M27.3789 18.2399C27.1786 18.3024 26.9465 18.3599 26.6851 18.4174C26.4237 18.4748 26.1502 18.5223 25.8643 18.5648C25.5785 18.6048 25.2854 18.6397 24.9898 18.6647C24.6943 18.6897 24.4085 18.7022 24.1373 18.7022C23.4851 18.7022 22.9013 18.6048 22.3883 18.4099C21.8753 18.215 21.4429 17.9351 21.0912 17.5703C20.7394 17.2055 20.4707 16.7632 20.2851 16.2434C20.0994 15.7237 20.0066 15.1415 20.0066 14.4943C20.0066 13.8371 20.0872 13.2424 20.2484 12.7152C20.4096 12.1855 20.6393 11.7357 20.9422 11.3659C21.2451 10.9961 21.6139 10.7137 22.0487 10.5188C22.486 10.3239 22.9843 10.2264 23.5486 10.2264C23.8588 10.2264 24.1398 10.2564 24.384 10.3189C24.6307 10.3814 24.8799 10.4688 25.1291 10.5813V6.91059L27.374 6.54077V18.2399H27.3789ZM22.3004 14.3869C22.3004 15.0965 22.4567 15.6662 22.7669 16.0985C23.0771 16.5308 23.5413 16.7457 24.1544 16.7457C24.3547 16.7457 24.5404 16.7382 24.7114 16.7232C24.8824 16.7082 25.0216 16.6907 25.134 16.6682V12.4903C24.9923 12.3979 24.8091 12.3204 24.5843 12.2604C24.3572 12.198 24.13 12.168 23.8979 12.168C22.8329 12.168 22.3004 12.9076 22.3004 14.3869Z" fill="#F9F9F9"/>
<path d="M32.3354 10.179C32.9974 10.179 33.5519 10.2564 33.994 10.4113C34.4362 10.5663 34.7904 10.7862 35.0566 11.0735C35.3229 11.3609 35.511 11.7107 35.6209 12.123C35.7308 12.5353 35.787 12.9926 35.787 13.4948V18.2724C35.4646 18.3449 35.0175 18.4298 34.4459 18.5273C33.8743 18.6247 33.1806 18.6747 32.3671 18.6747C31.8542 18.6747 31.39 18.6272 30.9723 18.5348C30.5546 18.4423 30.1955 18.2899 29.8951 18.08C29.5946 17.8701 29.3625 17.5953 29.2013 17.2554C29.0401 16.9156 28.9595 16.5008 28.9595 16.0061C28.9595 15.5338 29.0523 15.1315 29.2379 14.8041C29.4236 14.4743 29.6728 14.2144 29.983 14.017C30.2932 13.8221 30.6499 13.6797 31.0529 13.5923C31.4535 13.5048 31.8713 13.4623 32.3036 13.4623C32.5943 13.4623 32.8532 13.4748 33.0804 13.4998C33.3076 13.5248 33.4908 13.5598 33.63 13.5998V13.3849C33.63 12.9951 33.5152 12.6802 33.2832 12.4453C33.0511 12.2079 32.6505 12.0905 32.0764 12.0905C31.6954 12.0905 31.3167 12.118 30.9454 12.1755C30.5741 12.2329 30.2517 12.3129 29.9806 12.4153L29.6947 10.5663C29.8242 10.5263 29.9879 10.4813 30.1833 10.4363C30.3787 10.3889 30.5937 10.3489 30.8233 10.3139C31.0554 10.2789 31.2972 10.2464 31.5537 10.2214C31.8151 10.1914 32.074 10.179 32.3354 10.179ZM32.5161 16.8981C32.736 16.8981 32.9485 16.8931 33.1488 16.8831C33.3491 16.8731 33.5104 16.8581 33.63 16.8356V15.094C33.5397 15.074 33.4029 15.054 33.2221 15.0315C33.0413 15.0115 32.8752 15.0015 32.7238 15.0015C32.5137 15.0015 32.3134 15.014 32.1277 15.039C31.9421 15.064 31.7784 15.114 31.6392 15.1865C31.4975 15.2589 31.3876 15.3564 31.307 15.4788C31.2264 15.6013 31.1873 15.7562 31.1873 15.9411C31.1873 16.3009 31.3045 16.5508 31.5415 16.6882C31.7809 16.8306 32.1058 16.8981 32.5161 16.8981Z" fill="#F9F9F9"/>
<path d="M37.746 8.37494L39.9909 8.00513V10.3939H42.6877V12.3055H39.9909V15.1566C39.9909 15.6388 40.0739 16.0261 40.24 16.3135C40.4061 16.6008 40.7408 16.7458 41.2416 16.7458C41.4834 16.7458 41.7301 16.7233 41.9866 16.6758C42.2431 16.6308 42.4752 16.5659 42.6877 16.4834L43.0052 18.2725C42.7341 18.385 42.4336 18.4824 42.1014 18.5649C41.7692 18.6473 41.3637 18.6873 40.88 18.6873C40.2669 18.6873 39.7588 18.6023 39.3582 18.4324C38.9551 18.2625 38.6351 18.0276 38.3933 17.7228C38.1515 17.4204 37.9829 17.0531 37.8877 16.6208C37.7924 16.1886 37.7435 15.7113 37.7435 15.1866L37.746 8.37494Z" fill="#F9F9F9"/>
<path d="M47.0579 10.179C47.7199 10.179 48.2744 10.2564 48.7165 10.4113C49.1587 10.5663 49.5129 10.7862 49.7792 11.0735C50.0454 11.3609 50.2335 11.7107 50.3434 12.123C50.4534 12.5353 50.5095 12.9926 50.5095 13.4948V18.2724C50.1871 18.3449 49.7401 18.4298 49.1685 18.5273C48.5969 18.6247 47.9031 18.6747 47.0897 18.6747C46.5767 18.6747 46.1126 18.6272 45.6948 18.5348C45.2771 18.4423 44.918 18.2899 44.6176 18.08C44.3171 17.8701 44.0851 17.5953 43.9238 17.2554C43.7626 16.9156 43.682 16.5008 43.682 16.0061C43.682 15.5338 43.7748 15.1315 43.9605 14.8041C44.1461 14.4743 44.3953 14.2144 44.7055 14.017C45.0158 13.8221 45.3724 13.6797 45.7755 13.5923C46.1761 13.5048 46.5938 13.4623 47.0262 13.4623C47.3168 13.4623 47.5758 13.4748 47.803 13.4998C48.0301 13.5248 48.2133 13.5598 48.3526 13.5998V13.3849C48.3526 12.9951 48.2378 12.6802 48.0057 12.4453C47.7736 12.2079 47.373 12.0905 46.799 12.0905C46.4179 12.0905 46.0393 12.118 45.668 12.1755C45.2967 12.2329 44.9742 12.3129 44.7031 12.4153L44.4173 10.5663C44.5467 10.5263 44.7104 10.4813 44.9058 10.4363C45.1013 10.3889 45.3162 10.3489 45.5458 10.3139C45.7779 10.2789 46.0197 10.2464 46.2762 10.2214C46.5376 10.1914 46.7965 10.179 47.0579 10.179ZM47.2387 16.8981C47.4585 16.8981 47.671 16.8931 47.8713 16.8831C48.0717 16.8731 48.2329 16.8581 48.3526 16.8356V15.094C48.2622 15.074 48.1254 15.054 47.9446 15.0315C47.7639 15.0115 47.5978 15.0015 47.4463 15.0015C47.2362 15.0015 47.0359 15.014 46.8503 15.039C46.6646 15.064 46.501 15.114 46.3617 15.1865C46.22 15.2589 46.1101 15.3564 46.0295 15.4788C45.9489 15.6013 45.9098 15.7562 45.9098 15.9411C45.9098 16.3009 46.0271 16.5508 46.264 16.6882C46.5034 16.8306 46.8283 16.8981 47.2387 16.8981Z" fill="#F9F9F9"/>
<path d="M55.6491 6.54077C56.0717 6.54077 56.4161 6.57325 56.6823 6.64072C56.9486 6.70819 57.122 6.76566 57.2027 6.81813L57.0072 7.6827C56.8973 7.63023 56.7336 7.57775 56.5187 7.52028C56.3037 7.46281 56.0301 7.43532 55.6979 7.43532C55.0042 7.43532 54.5107 7.61524 54.2127 7.97506C53.9171 8.33488 53.7681 8.90959 53.7681 9.7017V10.5338H56.9022V11.3809H53.7681V18.5023H52.7886V9.66921C52.7886 8.63223 53.0231 7.85012 53.4896 7.32538C53.9538 6.80314 54.6744 6.54077 55.6491 6.54077Z" fill="#F9F9F9"/>
<path d="M60.8179 10.3464C61.3309 10.3464 61.7657 10.4214 62.1224 10.5688C62.479 10.7188 62.7673 10.9236 62.9895 11.186C63.2094 11.4484 63.3706 11.7582 63.4708 12.1181C63.5709 12.4779 63.6222 12.8677 63.6222 13.29V18.315C63.5221 18.345 63.3755 18.3799 63.185 18.4149C62.9944 18.4499 62.7721 18.4899 62.523 18.5299C62.2714 18.5698 61.9929 18.6048 61.6876 18.6298C61.3822 18.6548 61.0671 18.6673 60.7446 18.6673C60.3318 18.6673 59.9532 18.6198 59.6063 18.5274C59.2594 18.4349 58.959 18.2875 58.7025 18.0876C58.446 17.8877 58.2457 17.6303 58.0991 17.318C57.9526 17.0056 57.8817 16.6208 57.8817 16.1685C57.8817 15.7363 57.9623 15.3664 58.1236 15.0591C58.2848 14.7517 58.5095 14.4969 58.8026 14.297C59.0933 14.0971 59.4402 13.9496 59.8433 13.8572C60.2439 13.7647 60.6811 13.7198 61.155 13.7198C61.2967 13.7198 61.4433 13.7273 61.5996 13.7422C61.7559 13.7572 61.905 13.7772 62.0515 13.8047C62.1981 13.8297 62.3227 13.8572 62.4277 13.8822C62.5327 13.9072 62.606 13.9322 62.6451 13.9521V13.4599C62.6451 13.1825 62.6256 12.9127 62.584 12.6503C62.545 12.3879 62.457 12.153 62.3202 11.9406C62.1834 11.7307 61.9929 11.5608 61.7486 11.4309C61.5019 11.3035 61.1795 11.2385 60.7764 11.2385C60.2048 11.2385 59.7773 11.281 59.4964 11.3609C59.2155 11.4434 59.0078 11.5109 58.8784 11.5608L58.7416 10.6813C58.9126 10.5988 59.1764 10.5213 59.533 10.4514C59.8848 10.3839 60.3147 10.3464 60.8179 10.3464ZM60.9083 17.7777C61.2894 17.7777 61.624 17.7652 61.9098 17.7403C62.1956 17.7153 62.4399 17.6803 62.6402 17.6403V14.8342C62.5303 14.7817 62.3544 14.7293 62.1126 14.6718C61.8708 14.6143 61.541 14.5868 61.1184 14.5868C60.8765 14.5868 60.6249 14.6043 60.366 14.6418C60.1046 14.6768 59.8628 14.7542 59.643 14.8717C59.4207 14.9891 59.2399 15.1515 59.1007 15.3564C58.959 15.5613 58.8906 15.8337 58.8906 16.1735C58.8906 16.4709 58.937 16.7233 59.0347 16.9282C59.13 17.1331 59.2668 17.298 59.4426 17.4204C59.6185 17.5429 59.8286 17.6328 60.0753 17.6903C60.3172 17.7503 60.5956 17.7777 60.9083 17.7777Z" fill="#F9F9F9"/>
<path d="M66.1211 10.8114C66.4118 10.729 66.8051 10.6365 67.2961 10.5341C67.7871 10.4316 68.3904 10.3792 69.1037 10.3792C69.6973 10.3792 70.1907 10.4666 70.5889 10.6415C70.9846 10.8164 71.3022 11.0663 71.5391 11.3886C71.7761 11.7135 71.9446 12.1008 72.0448 12.5531C72.145 13.0053 72.1963 13.5026 72.1963 14.0473V18.5026H71.2167V14.3722C71.2167 13.8074 71.1801 13.3302 71.1043 12.9379C71.0286 12.5481 70.904 12.2282 70.7281 11.9809C70.5523 11.7335 70.3202 11.5561 70.0344 11.4486C69.7486 11.3412 69.3895 11.2862 68.9571 11.2862C68.4955 11.2862 68.0948 11.3112 67.7602 11.3637C67.4231 11.4161 67.2057 11.4611 67.1055 11.5011V18.5001H66.126V10.8114H66.1211Z" fill="#F9F9F9"/>
<path d="M77.0623 10.3464C77.5753 10.3464 78.0101 10.4214 78.3667 10.5688C78.7234 10.7188 79.0116 10.9236 79.2339 11.186C79.4562 11.4484 79.615 11.7582 79.7152 12.1181C79.8153 12.4779 79.8666 12.8677 79.8666 13.29V18.315C79.7664 18.345 79.6199 18.3799 79.4294 18.4149C79.2388 18.4499 79.0165 18.4899 78.7674 18.5299C78.5158 18.5698 78.2373 18.6048 77.9319 18.6298C77.6266 18.6548 77.3115 18.6673 76.989 18.6673C76.5762 18.6673 76.1976 18.6198 75.8507 18.5274C75.5038 18.4349 75.2034 18.2875 74.9469 18.0876C74.6904 17.8877 74.4901 17.6303 74.3435 17.318C74.1969 17.0056 74.1261 16.6208 74.1261 16.1685C74.1261 15.7363 74.2067 15.3664 74.3679 15.0591C74.5292 14.7517 74.7539 14.4969 75.047 14.297C75.3377 14.0971 75.6846 13.9496 76.0876 13.8572C76.4883 13.7647 76.9255 13.7198 77.3994 13.7198C77.5411 13.7198 77.6877 13.7273 77.844 13.7422C78.0003 13.7572 78.1493 13.7772 78.2959 13.8047C78.4425 13.8297 78.5671 13.8572 78.6721 13.8822C78.7771 13.9072 78.8504 13.9322 78.8895 13.9521V13.4599C78.8895 13.1825 78.87 12.9127 78.8284 12.6503C78.7869 12.3879 78.7014 12.153 78.5646 11.9406C78.4303 11.7307 78.2373 11.5608 77.993 11.4309C77.7463 11.3035 77.4238 11.2385 77.0208 11.2385C76.4492 11.2385 76.0217 11.281 75.7408 11.3609C75.4599 11.4434 75.2522 11.5109 75.1228 11.5608L74.986 10.6813C75.157 10.5988 75.4208 10.5213 75.7774 10.4514C76.1292 10.3839 76.5591 10.3464 77.0623 10.3464ZM77.1527 17.7777C77.5338 17.7777 77.8684 17.7652 78.1542 17.7403C78.44 17.7153 78.6843 17.6803 78.8846 17.6403V14.8342C78.7747 14.7817 78.5988 14.7293 78.357 14.6718C78.1151 14.6143 77.7854 14.5868 77.3628 14.5868C77.1209 14.5868 76.8693 14.6043 76.6104 14.6418C76.349 14.6768 76.1072 14.7542 75.8873 14.8717C75.665 14.9891 75.4843 15.1515 75.345 15.3564C75.2034 15.5613 75.135 15.8337 75.135 16.1735C75.135 16.4709 75.1814 16.7233 75.2791 16.9282C75.3744 17.1331 75.5112 17.298 75.687 17.4204C75.8629 17.5429 76.073 17.6328 76.3197 17.6903C76.5615 17.7503 76.84 17.7777 77.1527 17.7777Z" fill="#F9F9F9"/>
<path d="M83.284 10.5339H86.3887V11.3809H83.284V15.6188C83.284 16.0711 83.3206 16.4384 83.3964 16.7208C83.4721 17.0031 83.5796 17.2205 83.7212 17.3755C83.8629 17.5304 84.0315 17.6328 84.2342 17.6828C84.4345 17.7353 84.6568 17.7603 84.8962 17.7603C85.309 17.7603 85.6388 17.7103 85.8904 17.6128C86.142 17.5154 86.3374 17.4254 86.4791 17.343L86.721 18.1751C86.5793 18.2675 86.335 18.3725 85.9832 18.4899C85.6315 18.6073 85.2504 18.6673 84.8376 18.6673C84.3564 18.6673 83.9509 18.6023 83.6235 18.4749C83.2962 18.3475 83.0348 18.1526 82.8394 17.8902C82.644 17.6278 82.5047 17.303 82.4241 16.9107C82.3435 16.5209 82.3044 16.0586 82.3044 15.5239V8.19004L83.284 8.00513V10.5339Z" fill="#F9F9F9"/>
<path d="M89.4034 8.12777C89.4034 8.36515 89.3325 8.55256 89.1933 8.68999C89.0516 8.82992 88.8806 8.89739 88.6803 8.89739C88.48 8.89739 88.309 8.82742 88.1673 8.68999C88.0257 8.55256 87.9573 8.36515 87.9573 8.12777C87.9573 7.89039 88.0281 7.70298 88.1673 7.56555C88.309 7.42562 88.4776 7.35815 88.6803 7.35815C88.8806 7.35815 89.0516 7.42812 89.1933 7.56555C89.3325 7.70298 89.4034 7.89289 89.4034 8.12777ZM89.1762 18.5026H88.1967V10.5341H89.1762V18.5026Z" fill="#F9F9F9"/>
<path d="M94.9947 18.6727C94.3914 18.6727 93.8588 18.5752 93.3972 18.3803C92.9355 18.1854 92.552 17.9055 92.2442 17.5407C91.9388 17.1759 91.7043 16.7386 91.5431 16.2314C91.3819 15.7216 91.3013 15.1594 91.3013 14.5447C91.3013 13.9175 91.3843 13.3478 91.5504 12.8331C91.7165 12.3183 91.9559 11.876 92.2662 11.5062C92.5764 11.1364 92.955 10.8516 93.3972 10.6517C93.8393 10.4518 94.3376 10.3518 94.8897 10.3518C95.3123 10.3518 95.7056 10.3868 96.072 10.4593C96.4384 10.5317 96.7218 10.6242 96.9245 10.7366L96.668 11.5987C96.4677 11.4962 96.2405 11.4138 95.9889 11.3513C95.7373 11.2888 95.4002 11.2589 94.9801 11.2589C94.1153 11.2589 93.4607 11.5437 93.0136 12.1134C92.5666 12.6831 92.3419 13.4927 92.3419 14.5422C92.3419 15.0145 92.3932 15.4493 92.4933 15.8441C92.5935 16.2389 92.7572 16.5787 92.9819 16.8611C93.2091 17.1434 93.4998 17.3658 93.8564 17.5232C94.213 17.6832 94.6479 17.7631 95.1608 17.7631C95.5834 17.7631 95.9376 17.7131 96.2234 17.6157C96.5092 17.5182 96.7193 17.4333 96.8488 17.3608L97.0589 18.2254C96.8781 18.3278 96.5947 18.4278 96.2063 18.5252C95.8204 18.6227 95.4149 18.6727 94.9947 18.6727Z" fill="#F9F9F9"/>
<path d="M100.298 17.7928C100.86 17.7928 101.324 17.6978 101.693 17.5079C102.059 17.318 102.242 16.9982 102.242 16.5434C102.242 16.3285 102.211 16.1436 102.145 15.9887C102.079 15.8338 101.971 15.6963 101.82 15.5714C101.668 15.449 101.47 15.329 101.224 15.2166C100.977 15.1041 100.674 14.9692 100.313 14.8168C100.022 14.6943 99.7458 14.5669 99.4845 14.4395C99.2231 14.312 98.991 14.1621 98.7907 13.9922C98.5904 13.8223 98.4292 13.6199 98.3095 13.3825C98.1898 13.1451 98.1287 12.8577 98.1287 12.5179C98.1287 11.8707 98.3681 11.346 98.8445 10.9462C99.3208 10.5464 99.9779 10.344 100.811 10.344C101.343 10.344 101.783 10.3915 102.13 10.4839C102.477 10.5764 102.721 10.6588 102.86 10.7313L102.633 11.6259C102.513 11.5634 102.308 11.4809 102.022 11.3785C101.737 11.276 101.317 11.2236 100.764 11.2236C100.542 11.2236 100.335 11.246 100.139 11.2935C99.9437 11.341 99.7703 11.411 99.6188 11.5109C99.4674 11.6084 99.3477 11.7333 99.2573 11.8807C99.1669 12.0282 99.1229 12.2131 99.1229 12.428C99.1229 12.6453 99.162 12.8303 99.2426 12.9852C99.3232 13.1401 99.4405 13.2775 99.5968 13.395C99.7532 13.5124 99.9437 13.6249 100.168 13.7273C100.393 13.8298 100.652 13.9422 100.945 14.0646C101.246 14.1871 101.536 14.312 101.812 14.4395C102.088 14.5669 102.333 14.7218 102.543 14.9017C102.753 15.0816 102.924 15.2965 103.056 15.5489C103.185 15.8013 103.251 16.1161 103.251 16.4959C103.251 17.2156 102.987 17.7603 102.46 18.1301C101.932 18.4999 101.211 18.6848 100.298 18.6848C99.6139 18.6848 99.0912 18.6249 98.7296 18.5074C98.3681 18.39 98.1263 18.3 98.0066 18.2376L98.2631 17.328C98.2924 17.348 98.3584 17.383 98.4585 17.428C98.5587 17.4729 98.6954 17.5254 98.8664 17.5829C99.0374 17.6404 99.2402 17.6878 99.4771 17.7303C99.7141 17.7728 99.9877 17.7928 100.298 17.7928Z" fill="#F9F9F9"/>
<path d="M106.537 17.8401C106.537 18.0774 106.464 18.2773 106.32 18.4423C106.173 18.6072 105.97 18.6896 105.709 18.6896C105.448 18.6896 105.245 18.6072 105.098 18.4423C104.952 18.2773 104.881 18.0774 104.881 17.8401C104.881 17.6027 104.954 17.4028 105.098 17.2379C105.245 17.0729 105.448 16.9905 105.709 16.9905C105.97 16.9905 106.173 17.0729 106.32 17.2379C106.464 17.4028 106.537 17.6027 106.537 17.8401Z" fill="#F9F9F9"/>
<path d="M108.857 10.8114C109.148 10.729 109.541 10.6365 110.032 10.5341C110.523 10.4316 111.127 10.3792 111.84 10.3792C112.434 10.3792 112.927 10.4666 113.325 10.6415C113.721 10.8164 114.039 11.0663 114.275 11.3886C114.512 11.7135 114.681 12.1008 114.781 12.5531C114.881 13.0053 114.933 13.5026 114.933 14.0473V18.5026H113.953V14.3722C113.953 13.8074 113.916 13.3302 113.841 12.9379C113.765 12.5481 113.64 12.2282 113.464 11.9809C113.289 11.7335 113.057 11.5561 112.771 11.4486C112.485 11.3412 112.126 11.2862 111.693 11.2862C111.232 11.2862 110.831 11.3112 110.497 11.3637C110.159 11.4161 109.942 11.4611 109.842 11.5011V18.5001H108.862V10.8114H108.857Z" fill="#F9F9F9"/>
<path d="M119.405 18.6422C119.073 18.6322 118.785 18.5873 118.538 18.5123C118.291 18.4348 118.086 18.3174 117.92 18.1575C117.754 17.9976 117.629 17.7927 117.544 17.5403C117.458 17.2879 117.417 16.9731 117.417 16.5933V6.72568L118.396 6.54077V16.5608C118.396 16.8082 118.418 17.0056 118.465 17.1555C118.511 17.3054 118.577 17.4228 118.667 17.5103C118.758 17.5978 118.875 17.6627 119.022 17.7027C119.168 17.7452 119.342 17.7802 119.542 17.8102L119.405 18.6422Z" fill="#F9F9F9"/>
<path d="M124 16.7682C124 17.0556 123.954 17.3104 123.863 17.5328C123.773 17.7552 123.651 17.9451 123.499 18.1001C123.348 18.255 123.172 18.3724 122.972 18.4549C122.771 18.5373 122.561 18.5773 122.344 18.5773C122.127 18.5773 121.916 18.5373 121.716 18.4549C121.516 18.3724 121.34 18.255 121.189 18.1001C121.037 17.9451 120.915 17.7552 120.825 17.5328C120.734 17.3104 120.688 17.0556 120.688 16.7682C120.688 16.4859 120.734 16.231 120.825 16.0061C120.915 15.7812 121.037 15.5913 121.189 15.4389C121.34 15.2864 121.516 15.169 121.716 15.0865C121.916 15.0041 122.127 14.9641 122.344 14.9641C122.561 14.9641 122.771 15.0041 122.972 15.0865C123.172 15.169 123.348 15.2864 123.499 15.4389C123.651 15.5913 123.773 15.7812 123.863 16.0061C123.954 16.231 124 16.4859 124 16.7682ZM123.712 16.7682C123.712 16.5383 123.678 16.3284 123.609 16.1385C123.541 15.9486 123.446 15.7862 123.326 15.6513C123.206 15.5163 123.062 15.4114 122.894 15.3389C122.725 15.2665 122.542 15.229 122.344 15.229C122.146 15.229 121.963 15.2665 121.794 15.3389C121.626 15.4114 121.482 15.5163 121.362 15.6513C121.242 15.7862 121.147 15.9486 121.079 16.1385C121.01 16.3284 120.976 16.5383 120.976 16.7682C120.976 16.9981 121.01 17.208 121.079 17.3979C121.147 17.5878 121.242 17.7502 121.362 17.8852C121.482 18.0201 121.626 18.125 121.794 18.2C121.963 18.275 122.146 18.3124 122.344 18.3124C122.542 18.3124 122.725 18.275 122.894 18.2C123.062 18.125 123.206 18.0201 123.326 17.8852C123.446 17.7502 123.541 17.5878 123.609 17.3979C123.678 17.208 123.712 16.9981 123.712 16.7682ZM122.872 17.7577C122.786 17.6003 122.698 17.4529 122.608 17.3104C122.517 17.168 122.437 17.0556 122.368 16.9731C122.346 16.9756 122.324 16.9781 122.305 16.9781C122.285 16.9781 122.268 16.9781 122.251 16.9781H121.943V17.7577H121.675V15.8237C121.75 15.8062 121.833 15.7937 121.926 15.7837C122.019 15.7737 122.107 15.7687 122.188 15.7687C122.464 15.7687 122.676 15.8212 122.82 15.9236C122.964 16.0261 123.038 16.1835 123.038 16.3934C123.038 16.5133 123.006 16.6208 122.94 16.7157C122.874 16.8107 122.779 16.8807 122.652 16.9281C122.679 16.9581 122.713 17.0031 122.757 17.0656C122.801 17.128 122.847 17.1955 122.896 17.273C122.945 17.3504 122.994 17.4304 123.043 17.5178C123.091 17.6053 123.133 17.6853 123.17 17.7577H122.872ZM121.943 16.7532H122.188C122.268 16.7532 122.344 16.7482 122.412 16.7382C122.481 16.7282 122.539 16.7082 122.591 16.6808C122.642 16.6533 122.681 16.6158 122.708 16.5683C122.735 16.5208 122.749 16.4609 122.749 16.3884C122.749 16.3184 122.735 16.2585 122.703 16.211C122.671 16.1635 122.632 16.1235 122.581 16.0935C122.53 16.0636 122.473 16.0411 122.407 16.0286C122.341 16.0161 122.273 16.0086 122.202 16.0086C122.153 16.0086 122.107 16.0086 122.063 16.0111C122.019 16.0136 121.98 16.0161 121.943 16.0186V16.7532Z" fill="#F9F9F9"/>
<path d="M18.3825 4.49697V0.618896C17.2588 0.621395 16.2328 0.828793 15.3265 1.2111C15.3217 1.2136 15.3143 1.2161 15.3094 1.2186V12.5979V12.6004C15.671 11.3061 16.7116 10.474 18.1186 10.469V6.74585C17.1073 6.74835 16.1791 6.93075 15.3485 7.25559C15.5659 5.60391 16.7311 4.50196 18.3825 4.49697Z" fill="#F9F9F9"/>
<path d="M11.2225 7.98774C10.4652 6.90828 9.10951 6.21362 7.40446 6.21362C4.56108 6.21362 0.984863 8.34756 0.984863 13.4175C0.984863 17.573 3.96504 20.6189 8.18859 20.6189C8.67226 20.6189 9.13638 20.579 9.58341 20.504V16.436C9.17547 16.6334 8.70645 16.7434 8.18859 16.7434C6.34674 16.7434 5.10093 15.3866 5.10093 13.42C5.10093 11.4535 6.34674 10.0967 8.18859 10.0967C9.78127 10.0967 10.9587 11.1886 11.2445 12.7429V8.02772L11.2225 7.98774Z" fill="#F9F9F9"/>
<path d="M12.7151 3.21757C11.8601 4.33951 11.3251 5.79129 11.2445 7.49794V7.50044V8.02767V12.7428V13.0477V20.0542V20.0567C11.8308 19.8093 12.3657 19.4895 12.8396 19.0997C13.57 18.5025 14.1856 17.6704 14.6204 16.7383C15.0552 15.8038 15.3093 14.7693 15.3093 13.7648V12.6004V12.5979V1.21856V1.21606C14.2662 1.65834 13.3844 2.33801 12.7151 3.21757Z" fill="#F9F9F9"/>
</svg>
