<svg width="15" height="15" viewBox="0 0 15 15" fill="none" xmlns="http://www.w3.org/2000/svg">
<path d="M7.49998 8.16671C7.68887 8.16671 7.84731 8.10271 7.97531 7.97471C8.10287 7.84715 8.16665 7.68893 8.16665 7.50004V4.81671C8.16665 4.62782 8.10287 4.47226 7.97531 4.35004C7.84731 4.22782 7.68887 4.16671 7.49998 4.16671C7.31109 4.16671 7.15287 4.23049 7.02531 4.35804C6.89731 4.48604 6.83331 4.64449 6.83331 4.83337V7.51671C6.83331 7.7056 6.89731 7.86115 7.02531 7.98337C7.15287 8.1056 7.31109 8.16671 7.49998 8.16671ZM7.49998 10.8334C7.68887 10.8334 7.84731 10.7694 7.97531 10.6414C8.10287 10.5138 8.16665 10.3556 8.16665 10.1667C8.16665 9.97782 8.10287 9.81937 7.97531 9.69137C7.84731 9.56382 7.68887 9.50004 7.49998 9.50004C7.31109 9.50004 7.15287 9.56382 7.02531 9.69137C6.89731 9.81937 6.83331 9.97782 6.83331 10.1667C6.83331 10.3556 6.89731 10.5138 7.02531 10.6414C7.15287 10.7694 7.31109 10.8334 7.49998 10.8334ZM7.49998 14.1667C6.57776 14.1667 5.71109 13.9916 4.89998 13.6414C4.08887 13.2916 3.38331 12.8167 2.78331 12.2167C2.18331 11.6167 1.70842 10.9112 1.35865 10.1C1.00842 9.28893 0.833313 8.42226 0.833313 7.50004C0.833313 6.57782 1.00842 5.71115 1.35865 4.90004C1.70842 4.08893 2.18331 3.38337 2.78331 2.78337C3.38331 2.18337 4.08887 1.70826 4.89998 1.35804C5.71109 1.00826 6.57776 0.833374 7.49998 0.833374C8.4222 0.833374 9.28887 1.00826 10.1 1.35804C10.9111 1.70826 11.6166 2.18337 12.2166 2.78337C12.8166 3.38337 13.2915 4.08893 13.6413 4.90004C13.9915 5.71115 14.1666 6.57782 14.1666 7.50004C14.1666 8.42226 13.9915 9.28893 13.6413 10.1C13.2915 10.9112 12.8166 11.6167 12.2166 12.2167C11.6166 12.8167 10.9111 13.2916 10.1 13.6414C9.28887 13.9916 8.4222 14.1667 7.49998 14.1667ZM7.49998 12.8334C8.97776 12.8334 10.2362 12.314 11.2753 11.2754C12.314 10.2363 12.8333 8.97782 12.8333 7.50004C12.8333 6.02226 12.314 4.76382 11.2753 3.72471C10.2362 2.68604 8.97776 2.16671 7.49998 2.16671C6.0222 2.16671 4.76398 2.68604 3.72531 3.72471C2.6862 4.76382 2.16665 6.02226 2.16665 7.50004C2.16665 8.97782 2.6862 10.2363 3.72531 11.2754C4.76398 12.314 6.0222 12.8334 7.49998 12.8334Z" fill="#FF756C"/>
</svg>
