<svg width="40" height="30" viewBox="0 0 40 30" fill="none" xmlns="http://www.w3.org/2000/svg">
<path d="M37.7456 8.14116L22.5946 0.739796C21.2884 0.0867347 19.068 0.0867347 17.7619 0.739796L2.26258 8.14116C1.17415 8.66361 1 9.40374 1 9.79558C1 10.1874 1.17415 10.884 2.26258 11.45L3.52517 12.0595V19.0255C2.7415 19.3303 2.17551 20.1139 2.17551 20.9847C2.17551 21.8554 2.7415 22.6391 3.48163 22.9439L1.52245 29.1697H7.00816L5.04898 22.9439C5.83265 22.6391 6.3551 21.8554 6.3551 20.9847C6.3551 20.0704 5.78912 19.3303 5.00544 19.0255V12.7997L7.31292 13.9316V22.9874C7.31292 23.118 7.35646 23.2486 7.44354 23.3793C7.66122 23.6405 11.7102 29.1697 19.9823 29.1697C28.2544 29.1697 32.3034 23.5969 32.4776 23.3793C32.5646 23.2486 32.6082 23.118 32.6082 22.9874V13.9752L37.7456 11.45C38.834 10.9276 39.0082 10.1874 39.0082 9.79558C38.9646 9.40374 38.834 8.66361 37.7456 8.14116ZM31.215 22.7697C30.5184 23.6405 26.7741 27.8201 19.9823 27.8201C13.1905 27.8201 9.44626 23.6405 8.74966 22.7697V14.5412L17.7619 18.8514C18.415 19.1561 19.2857 19.3303 20.1565 19.3303C21.0707 19.3303 21.9415 19.1561 22.5946 18.8078L31.215 14.5847V22.7697ZM37.1361 10.231L31.9116 12.7997C31.6939 12.7997 31.5197 12.8867 31.4327 13.0609L21.985 17.6323C21.0707 18.1112 19.2857 18.1112 18.3279 17.6323L6.7034 12.0595L20.0694 10.4922C20.4612 10.4486 20.7224 10.1003 20.6789 9.75204C20.6354 9.3602 20.2871 9.09898 19.9388 9.14252L4.43946 10.9711L2.87211 10.231C2.48027 10.0568 2.3932 9.83912 2.3932 9.83912C2.3932 9.79558 2.48027 9.62143 2.87211 9.44728L18.3714 2.00238C18.8503 1.78469 19.5034 1.65408 20.1565 1.65408C20.8531 1.65408 21.5497 1.78469 21.985 2.00238L37.1361 9.40374C37.5279 9.57789 37.615 9.75204 37.615 9.83912C37.615 9.83912 37.4844 10.0568 37.1361 10.231Z" fill="#2EAFAB" stroke="#2EAFAB" stroke-width="0.2"/>
</svg>
