<svg width="46" height="46" viewBox="0 0 46 46" fill="none" xmlns="http://www.w3.org/2000/svg">
<path d="M45.1235 19.5091L37.5917 9.7251C37.3129 9.36323 36.8044 9.27397 36.4189 9.5191L31.5561 12.6118H25.2139C25.1318 12.6118 25.0501 12.6293 24.9711 12.6523L20.0537 14.0678L14.9512 12.6722L9.99332 9.5191C9.61429 9.27809 9.1151 9.3598 8.83323 9.7093L0.502508 20.0282C0.20313 20.399 0.252569 20.9404 0.613744 21.2511L4.98012 25.0088L8.89744 30.2877C7.75177 31.5082 7.77408 33.4333 8.9661 34.6256C9.49447 35.1536 10.1664 35.452 10.8575 35.5213C10.8334 35.6779 10.8211 35.8369 10.8211 35.9982C10.8211 36.8311 11.1455 37.6142 11.7343 38.203C12.3235 38.7922 13.1066 39.1166 13.9395 39.1166C13.9508 39.1166 13.9618 39.1159 13.9728 39.1156C13.9724 39.1369 13.9714 39.1578 13.9714 39.1791C13.9714 40.012 14.2958 40.7951 14.8846 41.3843C15.4738 41.9731 16.2569 42.2975 17.0898 42.2975C17.2543 42.2975 17.417 42.2841 17.5766 42.2594C17.6443 42.9529 17.9433 43.6279 18.4734 44.158C19.0811 44.766 19.8796 45.0698 20.6782 45.0698C21.4768 45.0698 22.2754 44.766 22.8834 44.158L23.3603 43.6811L23.5604 43.8425C24.1633 44.4264 24.9461 44.7183 25.7288 44.7183C26.5274 44.7183 27.326 44.4144 27.9337 43.8064C28.554 43.186 28.8579 42.3672 28.8452 41.5525C29.6595 41.5648 30.4787 41.2614 31.0991 40.6413C31.7188 40.0213 32.0226 39.2031 32.0106 38.3888C32.859 38.4022 33.6637 38.0763 34.2642 37.4759C34.8846 36.8555 35.1884 36.0367 35.1757 35.222C35.9908 35.2343 36.8092 34.9308 37.4296 34.3104C38.4884 33.2516 38.6247 31.615 37.8395 30.4069L40.6998 24.4166L44.9999 20.7162C45.3552 20.4103 45.4095 19.8802 45.1235 19.5091ZM9.71111 11.4311L13.2762 13.698L5.52086 23.1463L2.4131 20.4714L9.71111 11.4311ZM10.2141 31.4633L11.2901 30.3873C11.3227 30.3547 11.357 30.3238 11.392 30.2949C11.6025 30.1233 11.8572 30.021 12.1271 29.9966C12.1346 29.9959 12.1425 29.9959 12.1501 29.9956C12.1885 29.9925 12.227 29.9904 12.2658 29.9907C12.6345 29.9959 12.9771 30.1466 13.2312 30.4148C13.7297 30.9418 13.7029 31.8028 13.1715 32.3343L12.1281 33.3776C11.6004 33.9053 10.7418 33.9053 10.2141 33.3776C9.68639 32.8496 9.68639 31.991 10.2141 31.4633ZM12.9823 36.9551C12.7265 36.6996 12.5858 36.3597 12.5858 35.9982C12.5858 35.6367 12.7265 35.2968 12.9823 35.041L15.0687 32.9547C15.4683 32.555 16.0966 32.4455 16.6074 32.6889C17.1341 32.9399 17.4304 33.5115 17.3531 34.0866C17.3119 34.3935 17.1691 34.6826 16.9501 34.902L14.8967 36.9551C14.6409 37.2108 14.301 37.3516 13.9395 37.3516C13.578 37.3516 13.2381 37.2108 12.9823 36.9551ZM16.1326 40.1359C15.8768 39.8805 15.7361 39.5406 15.7361 39.1791C15.7361 38.8176 15.8768 38.4777 16.1326 38.2219L18.2186 36.1355C18.6461 35.7085 19.3317 35.6164 19.8549 35.921C20.3328 36.1991 20.5831 36.7449 20.5011 37.2888C20.4561 37.5878 20.3139 37.869 20.1001 38.0829L18.047 40.1359C17.7912 40.3917 17.4513 40.5325 17.0898 40.5325C16.7283 40.5325 16.3884 40.3917 16.1326 40.1359ZM19.721 42.91C19.1933 42.3823 19.1933 41.5237 19.721 40.996L20.797 39.92C20.8296 39.8874 20.8636 39.8568 20.8986 39.828C20.8997 39.8273 20.9003 39.8266 20.901 39.8259C21.0761 39.6838 21.2818 39.5887 21.5012 39.5471C21.5063 39.5465 21.5115 39.5458 21.5166 39.5451C21.5544 39.5382 21.5928 39.5327 21.6313 39.5293C21.6467 39.5279 21.6622 39.5279 21.678 39.5269C21.7096 39.5252 21.7408 39.5231 21.7727 39.5235C22.1411 39.5286 22.4841 39.679 22.7381 39.9475C22.7694 39.9804 22.7986 40.0147 22.8254 40.0501C23.2312 40.5805 23.1766 41.3685 22.6729 41.8725L21.6351 42.9103C21.1074 43.438 20.2487 43.4377 19.721 42.91ZM36.1816 33.0625C35.6539 33.5905 34.7953 33.5901 34.2676 33.0625C34.2484 33.0432 34.2281 33.0254 34.2075 33.0086L28.5338 27.2751C28.1908 26.9287 27.6322 26.9259 27.2858 27.2689C26.9394 27.6115 26.9366 28.1701 27.2793 28.5165L33.0145 34.3115C33.0152 34.3122 33.0159 34.3128 33.0165 34.3135C33.5442 34.8412 33.5442 35.7002 33.0165 36.2279C32.7608 36.4837 32.4209 36.6244 32.0594 36.6244C31.6975 36.6244 31.3576 36.4837 31.1022 36.2279L27.2655 32.3514C26.9229 32.005 26.3643 32.0023 26.0179 32.3449C25.6715 32.6879 25.6688 33.2465 26.0114 33.5929L29.7893 37.41C29.8085 37.434 29.8291 37.457 29.8511 37.479C30.3788 38.0067 30.3788 38.8656 29.8511 39.3933C29.3231 39.921 28.4641 39.9207 27.9364 39.393L25.8425 37.2771C25.4995 36.9307 24.9409 36.9276 24.5945 37.2706C24.2481 37.6132 24.2453 38.1718 24.588 38.5182L26.6235 40.5747C26.6428 40.5987 26.6634 40.6221 26.6857 40.6441C27.2134 41.1717 27.2134 42.0307 26.6857 42.5584C26.158 43.0865 25.2993 43.0861 24.7717 42.5584C24.7109 42.4977 24.6395 42.451 24.5715 42.3988C24.5138 42.3548 24.4987 42.3243 24.5275 42.2542C24.5567 42.1832 24.6003 42.119 24.6295 42.0476C24.6618 41.9679 24.6879 41.8859 24.7133 41.8035C24.8486 41.3674 24.8884 40.8985 24.8276 40.446C24.7109 39.5777 24.2333 38.7942 23.5096 38.2985C23.1186 38.031 22.6661 37.8556 22.1971 37.7897C22.4244 36.7872 22.1514 35.7002 21.4414 34.9501C20.8571 34.3328 20.0678 33.9863 19.2187 33.9747C19.1878 33.9743 19.1569 33.9743 19.1257 33.9747C19.1446 33.1644 18.85 32.3593 18.2914 31.7692C17.7068 31.1519 16.9175 30.8055 16.0688 30.7938C15.8164 30.7904 15.5617 30.8171 15.3159 30.8738C15.2108 30.1428 14.8424 29.4665 14.2845 28.9828C13.73 28.5028 13.0328 28.2364 12.2902 28.2261C11.5084 28.2147 10.7404 28.5031 10.1598 29.0274L6.74892 24.4313L14.909 14.4901L17.5097 15.2014L14.1132 21.1948C13.7026 21.9196 13.5989 22.7607 13.821 23.5634C14.0432 24.3664 14.5643 25.0345 15.2891 25.4452C15.3344 25.4709 15.3801 25.4953 15.4264 25.5186C15.4298 25.5203 15.4333 25.5221 15.437 25.5238C15.5589 25.5845 15.6842 25.6367 15.8113 25.6807C16.4028 25.8856 17.0417 25.908 17.658 25.7377C18.4607 25.5155 19.1288 24.994 19.5394 24.2696L21.7466 20.3746L25.6876 20.6541L36.182 31.1481C36.7093 31.6761 36.7093 32.5348 36.1816 33.0625ZM36.5473 29.0178L26.7025 19.1733C26.684 19.1545 26.6644 19.1366 26.6441 19.1198C26.5023 19.0017 26.3266 18.9303 26.1412 18.9172L21.3158 18.5749C20.9821 18.5519 20.6504 18.7294 20.4856 19.0202L18.0041 23.3996C17.8259 23.7141 17.5358 23.9404 17.1873 24.0368C16.8392 24.1333 16.4739 24.088 16.1591 23.9098C15.8446 23.7316 15.6183 23.4415 15.5218 23.0931C15.4254 22.7446 15.4703 22.3793 15.6489 22.0648L18.9616 16.2184L20.304 15.8321C20.3129 15.8294 20.3215 15.8259 20.3304 15.8232L25.3405 14.3764H31.394L38.9512 23.9833L36.5473 29.0178ZM40.1072 22.5983L33.1185 13.7094L36.6853 11.441L43.2156 19.9235L40.1072 22.5983Z" fill="#2EAFAB"/>
<path d="M27.569 10.9549C27.795 10.9549 28.0209 10.8687 28.1932 10.6964L34.2206 4.66898C34.5653 4.32428 34.5653 3.76569 34.2206 3.421C33.8759 3.0763 33.3173 3.0763 32.9726 3.421L26.9452 9.44837C26.6005 9.79307 26.6005 10.3517 26.9452 10.6964C27.1176 10.8687 27.3435 10.9549 27.569 10.9549Z" fill="#2EAFAB"/>
<path d="M17.4204 10.6964C17.5928 10.8687 17.8187 10.9549 18.0446 10.9549C18.2701 10.9549 18.496 10.8687 18.6684 10.6964C19.0131 10.3517 19.0131 9.79307 18.6684 9.44837L12.641 3.421C12.2963 3.0763 11.7377 3.0763 11.393 3.421C11.0483 3.76569 11.0483 4.32428 11.393 4.66898L17.4204 10.6964Z" fill="#2EAFAB"/>
<path d="M22.8068 10.9549C23.294 10.9549 23.6892 10.5597 23.6892 10.0725V5.0844C23.6892 4.59722 23.294 4.20206 22.8068 4.20206C22.3197 4.20206 21.9245 4.59722 21.9245 5.0844V10.0725C21.9245 10.5597 22.3197 10.9549 22.8068 10.9549Z" fill="#2EAFAB"/>
<path d="M21.9924 1.88636C22.1325 2.22591 22.4817 2.44872 22.8501 2.4295C23.214 2.41061 23.5336 2.16479 23.6462 1.81838C23.7592 1.46922 23.6363 1.07131 23.3438 0.848839C23.0454 0.621559 22.6293 0.608856 22.3172 0.815193C21.9691 1.04522 21.8342 1.50321 21.9924 1.88636Z" fill="#2EAFAB"/>
</svg>
