<svg width="33" height="33" viewBox="0 0 33 33" fill="none" xmlns="http://www.w3.org/2000/svg">
<path d="M32.2997 14.0782L26.8715 7.02682C26.6705 6.76602 26.3041 6.70169 26.0262 6.87836L22.5215 9.10725H17.9507C17.8915 9.10725 17.8327 9.11987 17.7757 9.13645L14.2317 10.1566L10.5544 9.1508L6.98116 6.87836C6.70799 6.70466 6.34822 6.76355 6.14507 7.01544L0.141067 14.4523C-0.0746963 14.7196 -0.0390657 15.1098 0.221236 15.3337L3.36811 18.0419L6.19134 21.8464C5.36565 22.7261 5.38174 24.1134 6.24083 24.9728C6.62163 25.3533 7.10586 25.5683 7.60395 25.6183C7.58663 25.7312 7.57772 25.8457 7.57772 25.962C7.57772 26.5623 7.81155 27.1267 8.2359 27.551C8.6605 27.9756 9.22489 28.2095 9.82517 28.2095C9.83334 28.2095 9.84126 28.209 9.84917 28.2087C9.84893 28.2241 9.84818 28.2392 9.84818 28.2545C9.84818 28.8548 10.082 29.4192 10.5064 29.8438C10.931 30.2681 11.4954 30.502 12.0956 30.502C12.2142 30.502 12.3314 30.4923 12.4465 30.4745C12.4952 30.9743 12.7108 31.4608 13.0928 31.8428C13.5308 32.281 14.1063 32.5 14.6818 32.5C15.2574 32.5 15.8329 32.281 16.2711 31.8428L16.6148 31.4991L16.759 31.6154C17.1935 32.0363 17.7577 32.2466 18.3218 32.2466C18.8974 32.2466 19.4729 32.0276 19.9109 31.5894C20.358 31.1423 20.577 30.5522 20.5678 29.965C21.1547 29.9739 21.7451 29.7552 22.1922 29.3083C22.6388 28.8615 22.8578 28.2718 22.8492 27.6849C23.4606 27.6946 24.0406 27.4597 24.4733 27.027C24.9204 26.5799 25.1394 25.9897 25.1303 25.4026C25.7177 25.4115 26.3076 25.1927 26.7547 24.7456C27.5178 23.9825 27.616 22.803 27.0501 21.9323L29.1115 17.615L32.2106 14.9482C32.4667 14.7277 32.5058 14.3457 32.2997 14.0782ZM6.77776 8.25632L9.34713 9.89013L3.75782 16.6995L1.51804 14.7718L6.77776 8.25632ZM7.14026 22.6937L7.91572 21.9182C7.93922 21.8947 7.96397 21.8724 7.98921 21.8516C8.14088 21.7279 8.32448 21.6542 8.51896 21.6366C8.52441 21.6361 8.5301 21.6361 8.53554 21.6359C8.56325 21.6336 8.59097 21.6322 8.61893 21.6324C8.88467 21.6361 9.13161 21.7447 9.31471 21.938C9.67399 22.3178 9.65469 22.9384 9.27166 23.3214L8.51971 24.0733C8.1394 24.4537 7.52056 24.4537 7.14026 24.0733C6.75995 23.6928 6.75995 23.074 7.14026 22.6937ZM9.13532 26.6516C8.95098 26.4675 8.84954 26.2226 8.84954 25.962C8.84954 25.7015 8.95098 25.4565 9.13532 25.2722L10.639 23.7685C10.927 23.4805 11.3798 23.4016 11.748 23.577C12.1276 23.7579 12.3411 24.1698 12.2854 24.5843C12.2557 24.8055 12.1528 25.0138 11.9949 25.172L10.515 26.6516C10.3307 26.836 10.0857 26.9374 9.82517 26.9374C9.56462 26.9374 9.31966 26.836 9.13532 26.6516ZM11.4058 28.9441C11.2214 28.76 11.12 28.5151 11.12 28.2545C11.12 27.994 11.2214 27.749 11.4058 27.5647L12.9092 26.061C13.2173 25.7532 13.7114 25.6869 14.0885 25.9063C14.4329 26.1068 14.6133 26.5002 14.5541 26.8921C14.5217 27.1076 14.4193 27.3103 14.2651 27.4644L12.7855 28.9441C12.6011 29.1284 12.3562 29.2299 12.0956 29.2299C11.8351 29.2299 11.5901 29.1284 11.4058 28.9441ZM13.992 30.9434C13.6117 30.5631 13.6117 29.9442 13.992 29.5639L14.7674 28.7885C14.7909 28.765 14.8154 28.7429 14.8407 28.7222C14.8414 28.7217 14.8419 28.7212 14.8424 28.7207C14.9686 28.6182 15.1168 28.5497 15.2749 28.5198C15.2786 28.5193 15.2823 28.5188 15.2861 28.5183C15.3133 28.5133 15.341 28.5094 15.3687 28.5069C15.3798 28.5059 15.391 28.5059 15.4024 28.5052C15.4251 28.5039 15.4476 28.5024 15.4706 28.5027C15.7361 28.5064 15.9833 28.6148 16.1664 28.8083C16.1889 28.832 16.21 28.8568 16.2293 28.8822C16.5217 29.2645 16.4824 29.8324 16.1194 30.1956L15.3714 30.9436C14.9911 31.3239 14.3723 31.3237 13.992 30.9434ZM25.8552 23.8462C25.4749 24.2268 24.8561 24.2265 24.4758 23.8462C24.4619 23.8323 24.4473 23.8195 24.4325 23.8074L20.3434 19.6752C20.0962 19.4255 19.6936 19.4236 19.444 19.6707C19.1943 19.9177 19.1923 20.3203 19.4393 20.5699L23.5727 24.7464C23.5731 24.7469 23.5736 24.7474 23.5741 24.7479C23.9544 25.1282 23.9544 25.7472 23.5741 26.1276C23.3898 26.3119 23.1448 26.4133 22.8843 26.4133C22.6235 26.4133 22.3785 26.3119 22.1944 26.1276L19.4294 23.3338C19.1824 23.0841 18.7798 23.0821 18.5302 23.3291C18.2805 23.5763 18.2785 23.9788 18.5255 24.2285L21.2483 26.9795C21.2621 26.9968 21.277 27.0134 21.2928 27.0292C21.6731 27.4095 21.6731 28.0286 21.2928 28.4089C20.9122 28.7892 20.2932 28.789 19.9128 28.4087L18.4037 26.8837C18.1566 26.6341 17.754 26.6318 17.5043 26.879C17.2547 27.1259 17.2527 27.5285 17.4996 27.7782L18.9667 29.2603C18.9805 29.2776 18.9954 29.2945 19.0114 29.3103C19.3917 29.6906 19.3917 30.3097 19.0114 30.69C18.6311 31.0706 18.0123 31.0703 17.632 30.69C17.5882 30.6462 17.5367 30.6126 17.4877 30.5749C17.4462 30.5433 17.4353 30.5213 17.4561 30.4708C17.4771 30.4196 17.5085 30.3733 17.5296 30.3218C17.5528 30.2644 17.5716 30.2053 17.5899 30.1459C17.6874 29.8317 17.7161 29.4937 17.6723 29.1675C17.5882 28.5418 17.244 27.9771 16.7224 27.6198C16.4406 27.4271 16.1145 27.3006 15.7765 27.2531C15.9403 26.5306 15.7436 25.7472 15.2319 25.2066C14.8107 24.7617 14.2419 24.512 13.63 24.5036C13.6077 24.5034 13.5854 24.5034 13.5629 24.5036C13.5765 23.9197 13.3642 23.3395 12.9617 22.9141C12.5403 22.4692 11.9714 22.2196 11.3598 22.2112C11.1779 22.2087 10.9943 22.228 10.8171 22.2688C10.7414 21.742 10.4759 21.2546 10.0738 20.9059C9.67424 20.56 9.1717 20.368 8.63649 20.3606C8.07309 20.3524 7.51957 20.5603 7.10116 20.9381L4.6429 17.6257L10.5239 10.461L12.3982 10.9737L9.95037 15.2931C9.65444 15.8155 9.57972 16.4217 9.73981 17.0002C9.8999 17.5789 10.2755 18.0604 10.7978 18.3564C10.8305 18.3749 10.8634 18.3925 10.8968 18.4093C10.8993 18.4106 10.9018 18.4118 10.9045 18.413C10.9923 18.4568 11.0826 18.4944 11.1742 18.5261C11.6005 18.6738 12.061 18.6899 12.5051 18.5672C13.0836 18.4071 13.5652 18.0312 13.8611 17.5091L15.4518 14.702L18.2921 14.9034L25.8555 22.4665C26.2355 22.8471 26.2355 23.4659 25.8552 23.8462ZM26.1188 20.9312L19.0236 13.8362C19.0102 13.8226 18.9961 13.8097 18.9815 13.7976C18.8793 13.7125 18.7526 13.661 18.619 13.6516L15.1413 13.4049C14.9008 13.3884 14.6618 13.5163 14.543 13.7259L12.7546 16.8821C12.6261 17.1088 12.4171 17.2719 12.1659 17.3414C11.915 17.4109 11.6517 17.3783 11.4248 17.2498C11.1982 17.1214 11.0351 16.9123 10.9656 16.6612C10.8961 16.41 10.9285 16.1468 11.0571 15.9201L13.4446 11.7066L14.4121 11.4282C14.4186 11.4262 14.4247 11.4237 14.4312 11.4218L18.042 10.3791H22.4048L27.8513 17.3028L26.1188 20.9312ZM28.6844 16.3046L23.6476 9.8983L26.2182 8.2635L30.9247 14.3769L28.6844 16.3046Z" fill="#2EAFAB"/>
<path d="M19.6481 7.91312C19.8109 7.91312 19.9737 7.85101 20.0979 7.7268L24.4419 3.38283C24.6903 3.13441 24.6903 2.73183 24.4419 2.48341C24.1935 2.23498 23.7909 2.23498 23.5425 2.48341L19.1985 6.82737C18.9501 7.0758 18.9501 7.47837 19.1985 7.7268C19.3227 7.85101 19.4855 7.91312 19.6481 7.91312Z" fill="#2EAFAB"/>
<path d="M12.3339 7.7268C12.4581 7.85101 12.6209 7.91312 12.7837 7.91312C12.9463 7.91312 13.1091 7.85101 13.2333 7.7268C13.4818 7.47837 13.4818 7.0758 13.2333 6.82737L8.88937 2.48341C8.64095 2.23498 8.23837 2.23498 7.98995 2.48341C7.74152 2.73183 7.74152 3.13441 7.98995 3.38283L12.3339 7.7268Z" fill="#2EAFAB"/>
<path d="M16.2159 7.91312C16.567 7.91312 16.8518 7.62832 16.8518 7.27721V3.68223C16.8518 3.33112 16.567 3.04633 16.2159 3.04633C15.8648 3.04633 15.58 3.33112 15.58 3.68223V7.27721C15.58 7.62832 15.8648 7.91312 16.2159 7.91312Z" fill="#2EAFAB"/>
<path d="M15.629 1.3774C15.73 1.62211 15.9816 1.7827 16.2471 1.76884C16.5094 1.75523 16.7397 1.57807 16.8209 1.32841C16.9023 1.07677 16.8137 0.789988 16.6029 0.62965C16.3879 0.465848 16.088 0.456693 15.8631 0.605402C15.6122 0.771183 15.5149 1.10126 15.629 1.3774Z" fill="#2EAFAB"/>
</svg>
