<svg width="32" height="32" viewBox="0 0 32 32" fill="none" xmlns="http://www.w3.org/2000/svg">
<path d="M31.4178 11.096L27.8338 4.904C27.4738 4.272 27.0338 4.504 24.6978 4.952C23.5474 4.02118 22.2567 3.27863 20.8738 2.752C20.1458 0.672 20.0738 0 19.3458 0H12.1938C11.4658 0 11.4578 0.48 10.6658 2.752C9.28284 3.27863 7.99215 4.02118 6.84177 4.952C4.68177 4.544 4.08177 4.248 3.70577 4.904L0.121766 11.096C-0.238234 11.736 0.225766 12.032 1.72177 13.792C1.48119 15.2542 1.48119 16.7458 1.72177 18.208C0.289766 19.872 -0.270234 20.248 0.121766 20.904L3.70577 27.096C4.06577 27.736 4.54577 27.48 6.84177 27.048C7.99215 27.9788 9.28284 28.7214 10.6658 29.248C11.3938 31.328 11.4658 32 12.1938 32H19.3458C20.0738 32 20.0818 31.52 20.8738 29.248C22.2567 28.7214 23.5474 27.9788 24.6978 27.048C26.8498 27.456 27.4578 27.752 27.8338 27.096L31.4178 20.904C31.7778 20.264 31.3138 19.968 29.8178 18.208C30.0583 16.7458 30.0583 15.2542 29.8178 13.792C31.2338 12.128 31.7698 11.752 31.4178 11.096ZM28.3778 16C28.3778 19.456 27.3058 17.768 29.7458 20.592L26.7378 25.808C24.5618 25.392 24.3378 25.248 23.9538 25.584C22.7741 26.5904 21.4178 27.369 19.9538 27.88C19.4898 28.04 19.5138 28.248 18.7618 30.4H12.7618C12.0338 28.304 12.0498 28.048 11.5698 27.88C10.1058 27.369 8.74941 26.5904 7.56977 25.584C7.18577 25.256 7.02577 25.376 4.78577 25.808L1.79377 20.592C3.25777 18.896 3.47377 18.8 3.39377 18.304C3.10183 16.7819 3.10183 15.2181 3.39377 13.696C3.48177 13.208 3.26577 13.088 1.79377 11.408L4.80177 6.192C7.00977 6.616 7.20177 6.744 7.58577 6.416C8.76541 5.40956 10.1218 4.63102 11.5858 4.12C12.0498 3.96 12.0258 3.752 12.7778 1.6H18.7938C19.5218 3.696 19.5058 3.952 19.9858 4.12C21.4498 4.63102 22.8061 5.40956 23.9858 6.416C24.3698 6.744 24.5458 6.616 26.7698 6.192L29.7778 11.408C27.3058 14.232 28.3778 12.528 28.3778 16Z" fill="#2EAFAB"/>
<path d="M15.7698 5.59998C11.7416 5.60335 8.07758 7.9326 6.36509 11.5787C4.65259 15.2247 5.1996 19.5318 7.76915 22.634C10.3387 25.7362 14.4686 27.0756 18.3698 26.072C30.2418 22.968 27.7698 5.59998 15.7698 5.59998ZM12.9298 16.664C15.1218 18.128 15.5858 18.688 16.2098 18.264C18.7618 16.568 18.9698 16.56 18.9698 16V12.416C20.1705 13.4878 20.7542 15.0901 20.5241 16.6831C20.294 18.2761 19.2807 19.6478 17.8258 20.336C17.1938 20.632 17.3698 20.936 17.3698 24.64C16.3129 24.8442 15.2267 24.8442 14.1698 24.64C14.1698 20.832 14.3138 20.64 13.7138 20.336C12.2588 19.6478 11.2456 18.2761 11.0155 16.6831C10.7854 15.0901 11.369 13.4878 12.5698 12.416C12.5698 16.248 12.4498 16.352 12.9298 16.664ZM18.9698 24.184V21.536C21.0231 20.3446 22.2484 18.1145 22.1527 15.7425C22.0571 13.3704 20.6564 11.2462 18.5138 10.224C18.2577 10.0956 17.9526 10.1139 17.7138 10.272C17.2178 10.584 17.3458 10.568 17.3458 15.568L15.7698 16.64L14.1698 15.568C14.1698 10.6 14.2978 10.584 13.8018 10.272C13.5629 10.1139 13.2578 10.0956 13.0018 10.224C10.8618 11.2509 9.46597 13.3779 9.37539 15.7497C9.28481 18.1216 10.5144 20.3488 12.5698 21.536V24.184C3.43376 20.56 6.21776 7.19998 15.7698 7.19998C25.3218 7.19998 28.1218 20.552 18.9698 24.184Z" fill="#2EAFAB"/>
</svg>
