<svg width="39" height="40" viewBox="0 0 39 40" fill="none" xmlns="http://www.w3.org/2000/svg">
<path d="M38.3197 14.1919L34.0183 6.76054C33.5863 6.00204 33.0582 6.28048 30.2547 6.81814C28.874 5.70101 27.325 4.80984 25.6653 4.17781C24.7916 1.6815 24.7052 0.875 23.8315 0.875H15.248C14.3743 0.875 14.3647 1.45107 13.4142 4.17781C11.7544 4.80984 10.2054 5.70101 8.82479 6.81814C6.23247 6.32848 5.51238 5.97324 5.06112 6.76054L0.759785 14.1919C0.327731 14.96 0.884601 15.3152 2.68003 17.4275C2.39129 19.1823 2.39129 20.9725 2.68003 22.7273C0.96141 24.7244 0.289326 25.1756 0.759785 25.9629L5.06112 33.3943C5.49318 34.1624 6.06925 33.8551 8.82479 33.3367C10.2054 34.4538 11.7544 35.345 13.4142 35.977C14.2879 38.4733 14.3743 39.2798 15.248 39.2798H23.8315C24.7052 39.2798 24.7148 38.7037 25.6653 35.977C27.325 35.345 28.874 34.4538 30.2547 33.3367C32.8374 33.8263 33.5671 34.1816 34.0183 33.3943L38.3197 25.9629C38.7517 25.1948 38.1949 24.8396 36.3994 22.7273C36.6882 20.9725 36.6882 19.1823 36.3994 17.4275C38.0989 15.4304 38.7421 14.9792 38.3197 14.1919ZM34.6712 20.0774C34.6712 24.2251 33.3847 22.1993 36.313 25.5885L32.703 31.8485C30.0914 31.3492 29.8226 31.1764 29.3618 31.5796C27.946 32.7875 26.3182 33.7219 24.5612 34.3352C24.0043 34.5272 24.0331 34.7768 23.1306 37.3596H15.9297C15.056 34.844 15.0752 34.5368 14.4991 34.3352C12.7421 33.7219 11.1143 32.7875 9.6985 31.5796C9.23764 31.186 9.04562 31.33 6.35728 31.8485L2.76644 25.5885C4.52346 23.553 4.78269 23.4378 4.68668 22.8425C4.33631 21.0158 4.33631 19.139 4.68668 17.3123C4.79229 16.7266 4.53306 16.5826 2.76644 14.5663L6.37649 8.30633C9.02642 8.81519 9.25685 8.96881 9.7177 8.57516C11.1335 7.36729 12.7613 6.43292 14.5183 5.81962C15.0752 5.62759 15.0464 5.37796 15.9489 2.79524H23.169C24.0427 5.31075 24.0235 5.61799 24.5996 5.81962C26.3566 6.43292 27.9844 7.36729 29.4002 8.57516C29.861 8.96881 30.0722 8.81519 32.7414 8.30633L36.3514 14.5663C33.3847 17.9555 34.6712 15.9105 34.6712 20.0774Z" fill="#2EAFAB"/>
<path d="M19.5397 7.59583C14.7053 7.59988 10.308 10.3953 8.25271 14.7711C6.19746 19.147 6.85396 24.3161 9.9378 28.0392C13.0216 31.7624 17.9781 33.3699 22.6601 32.1653C36.9083 28.44 33.9415 7.59583 19.5397 7.59583ZM16.1313 20.8743C18.762 22.6313 19.3189 23.3034 20.0678 22.7945C23.1306 20.7591 23.3802 20.7495 23.3802 20.0774V15.776C24.8213 17.0624 25.5217 18.9854 25.2456 20.8972C24.9694 22.8091 23.7534 24.4553 22.0072 25.2812C21.2487 25.6365 21.46 26.0013 21.46 30.4467C20.1916 30.6918 18.8879 30.6918 17.6195 30.4467C17.6195 25.8765 17.7923 25.6461 17.0722 25.2812C15.326 24.4553 14.11 22.8091 13.8339 20.8972C13.5577 18.9854 14.2582 17.0624 15.6993 15.776C15.6993 20.375 15.5552 20.4998 16.1313 20.8743ZM23.3802 29.8994V26.7214C25.8446 25.2916 27.315 22.6151 27.2003 19.7683C27.0855 16.9215 25.4044 14.3721 22.8329 13.1453C22.5257 12.9913 22.1595 13.0132 21.8728 13.2029C21.2776 13.5774 21.4312 13.5582 21.4312 19.5589L19.5397 20.8455L17.6195 19.5589C17.6195 13.5966 17.7731 13.5774 17.1778 13.2029C16.8912 13.0132 16.525 12.9913 16.2177 13.1453C13.6495 14.3778 11.9742 16.9305 11.8655 19.7771C11.7568 22.6237 13.2325 25.2966 15.6993 26.7214V29.8994C4.73468 25.5501 8.0759 9.51607 19.5397 9.51607C31.0036 9.51607 34.364 25.5405 23.3802 29.8994Z" fill="#2EAFAB"/>
</svg>
