<svg width="100" height="50" viewBox="0 0 100 50" fill="none" xmlns="http://www.w3.org/2000/svg">
<path d="M0.878418 20.6659H2.24876V29.5204L7.13281 24.4256H8.81939L5.02459 28.3258L8.95994 33.4909H7.34363L4.07589 29.2745L2.24876 31.1367V33.4909H0.878418V20.6659Z" fill="#464545"/>
<path d="M11.9466 20.6659H10.5763V33.4909H11.9466V20.6659Z" fill="#464545"/>
<path d="M14.09 28.9934C14.09 25.9716 16.2685 24.2147 18.447 24.2147C20.1335 24.2147 21.2228 25.1283 21.9255 26.1473V24.3904H23.2959V33.4909H21.9255V31.6638C21.1876 32.753 20.0984 33.7017 18.447 33.7017C16.2685 33.7017 14.09 31.98 14.09 28.9934ZM21.9958 28.9582C21.9958 26.8149 20.3795 25.4094 18.6929 25.4094C16.9361 25.4094 15.4954 26.7095 15.4954 28.9231V28.9582C15.4954 31.1016 17.0063 32.4719 18.6929 32.4719C20.3795 32.4719 21.9958 31.0664 21.9958 28.9582Z" fill="#464545"/>
<path d="M25.8608 24.4255H27.2312V26.0067C27.8285 25.0229 28.7772 24.2147 30.3584 24.2147C32.572 24.2147 33.8369 25.6905 33.8369 27.869V33.4909H32.4666V28.1852C32.4666 26.4986 31.553 25.4445 29.9367 25.4445C28.3555 25.4445 27.196 26.604 27.196 28.2906V33.4909H25.8257V24.4255H25.8608Z" fill="#464545"/>
<path d="M36.7533 31.1017V25.6203H35.4884V24.4256H36.7533V21.6849H38.1237V24.4256H41.0049V25.6203H38.1237V30.926C38.1237 32.0504 38.7561 32.4369 39.6697 32.4369C40.1265 32.4369 40.513 32.3666 41.0049 32.1206V33.2802C40.513 33.5261 40.0211 33.6667 39.3535 33.6667C37.8426 33.6667 36.7533 32.9288 36.7533 31.1017Z" fill="#464545"/>
<path d="M42.0941 28.9934C42.0941 26.3229 43.9564 24.2147 46.4511 24.2147C49.1567 24.2147 50.7027 26.3581 50.7027 29.0285C50.7027 29.2042 50.7027 29.3096 50.6676 29.4853H43.4645C43.6753 31.453 45.0456 32.5773 46.6619 32.5773C47.9269 32.5773 48.8053 32.0503 49.5432 31.2773L50.3865 32.0503C49.4729 33.0693 48.3485 33.772 46.6268 33.772C44.1321 33.7017 42.0941 31.8043 42.0941 28.9934ZM49.3323 28.4663C49.1918 26.8149 48.2431 25.3742 46.416 25.3742C44.8348 25.3742 43.6401 26.7095 43.4645 28.4663H49.3323Z" fill="#464545"/>
<path d="M52.6352 24.4255H54.0056V26.0067C54.6029 25.0229 55.5516 24.2147 57.1328 24.2147C59.3464 24.2147 60.6113 25.6905 60.6113 27.869V33.4909H59.241V28.1852C59.241 26.4986 58.3274 25.4445 56.7111 25.4445C55.13 25.4445 53.9704 26.604 53.9704 28.2906V33.4909H52.6001L52.6352 24.4255Z" fill="#464545"/>
<path d="M0 40.132H2.28391L4.77864 46.9485L7.3085 40.132H9.52214L5.72734 49.4784H3.7948L0 40.132Z" fill="#464545"/>
<path d="M10.1897 44.8051V44.7699C10.1897 42.0995 12.0871 39.921 14.7224 39.921C17.6739 39.921 19.1848 42.2401 19.1848 44.9105C19.1848 45.0862 19.1496 45.297 19.1496 45.5078H12.2979C12.5439 47.0187 13.598 47.862 14.9683 47.862C16.0224 47.862 16.7603 47.4755 17.4982 46.7376L18.7631 47.862C17.8847 48.9161 16.6549 49.6188 14.9683 49.6188C12.2628 49.6188 10.1897 47.6863 10.1897 44.8051ZM17.0414 44.1023C16.9009 42.732 16.0927 41.6427 14.6872 41.6427C13.3872 41.6427 12.4736 42.6617 12.2628 44.1023H17.0414Z" fill="#464545"/>
<path d="M21.1876 40.1317H23.331V42.24C23.9283 40.8345 24.9824 39.8858 26.6339 39.9561V42.2048H26.4933C24.6311 42.2048 23.331 43.4346 23.331 45.8942V49.443H21.1876V40.1317Z" fill="#464545"/>
<path d="M28.7772 46.8431V41.959H27.5825V40.1319H28.7772V37.5669H30.9205V40.1319H33.4153V41.959H30.9205V46.5268C30.9205 47.3701 31.3422 47.6864 32.0801 47.6864C32.572 47.6864 32.9936 47.5809 33.4153 47.3701V49.127C32.8882 49.4432 32.2909 49.6189 31.4827 49.6189C29.8664 49.5838 28.7772 48.881 28.7772 46.8431Z" fill="#464545"/>
<path d="M34.6451 44.8051V44.7699C34.6451 42.0995 36.5425 39.921 39.1778 39.921C42.1293 39.921 43.6402 42.2401 43.6402 44.9105C43.6402 45.0862 43.6051 45.297 43.6051 45.5078H36.7885C37.0345 47.0187 38.0886 47.862 39.4589 47.862C40.513 47.862 41.2509 47.4755 41.9888 46.7376L43.2537 47.862C42.3753 48.9161 41.1455 49.6188 39.4589 49.6188C36.7534 49.6188 34.6451 47.6863 34.6451 44.8051ZM41.532 44.1023C41.3915 42.732 40.5833 41.6427 39.1778 41.6427C37.8777 41.6427 36.9642 42.6617 36.7534 44.1023H41.532Z" fill="#464545"/>
<path d="M47.9269 36.5831H45.7836V49.4081H47.9269V36.5831Z" fill="#464545"/>
<path d="M52.8461 36.5831H50.7028V49.4081H52.8461V36.5831Z" fill="#464545"/>
<path d="M54.9895 44.8051V44.7699C54.9895 42.0995 56.8869 39.921 59.5222 39.921C62.4737 39.921 63.9846 42.2401 63.9846 44.9105C63.9846 45.0862 63.9494 45.297 63.9494 45.5078H57.1329C57.3788 47.0187 58.4329 47.862 59.8033 47.862C60.8574 47.862 61.5953 47.4755 62.3331 46.7376L63.5981 47.862C62.7196 48.9161 61.4899 49.6188 59.8033 49.6188C57.0626 49.6188 54.9895 47.6863 54.9895 44.8051ZM61.8412 44.1023C61.7007 42.732 60.8925 41.6427 59.487 41.6427C58.187 41.6427 57.2734 42.6617 57.0626 44.1023H61.8412Z" fill="#464545"/>
<path d="M65.9873 40.1319H68.1306V41.5725C68.728 40.6941 69.6064 39.9562 71.047 39.9562C73.1552 39.9562 74.3499 41.3617 74.3499 43.505V49.4432H72.2065V44.1726C72.2065 42.732 71.4687 41.8887 70.2037 41.8887C68.9739 41.8887 68.0955 42.7671 68.0955 44.2078V49.4432H65.9521V40.1319H65.9873Z" fill="#464545"/>
<path d="M77.8637 7.24367L75.1933 2.1488C70.766 4.46785 67.4983 8.71943 66.5847 13.8143L72.3823 14.8684C72.9094 11.5655 74.9825 8.75457 77.8637 7.24367Z" fill="#FFCA12"/>
<path d="M72.2769 16.5197C72.2769 15.9575 72.312 15.4304 72.4174 14.9034L66.6198 13.8492C66.4442 14.7628 66.3739 15.7115 66.3387 16.6602C66.3387 17.9954 66.4793 19.2955 66.7604 20.5604L72.6283 19.2252C72.3823 18.3116 72.2769 17.4332 72.2769 16.5197Z" fill="#DC892A"/>
<path d="M72.5931 19.155L66.7252 20.4902C67.1469 22.2822 67.8496 23.9688 68.7983 25.5148L73.9986 22.2822C73.3661 21.3687 72.9093 20.2794 72.5931 19.155Z" fill="#ED9C00"/>
<path d="M73.9986 22.3174L68.7983 25.55C69.5713 26.7798 70.4849 27.9042 71.539 28.9231C68.6929 29.8016 65.8116 30.2232 65.8116 30.2232C65.9171 30.3286 69.1497 32.5423 74.2445 33.5964L78.1447 26.0068C76.4933 25.1283 75.0527 23.8634 73.9986 22.3174Z" fill="#D0380D"/>
<path d="M82.7477 26.9906C81.0962 26.9906 79.5502 26.6041 78.1799 25.9365L74.2797 33.5261C76.7393 34.0532 79.6556 34.264 82.8882 33.8775V26.9906H82.7477Z" fill="#DD6826"/>
<path d="M82.8531 26.9908V33.9128C84.364 33.7371 85.9101 33.3857 87.5264 32.8938C88.967 32.4721 90.3022 31.8397 91.532 31.0667L88.1237 25.515C86.6128 26.4286 84.8208 26.9556 82.8531 26.9908Z" fill="#94BE1C"/>
<path d="M93.2185 16.5199C93.2185 20.3147 91.1806 23.6527 88.1588 25.4798L91.5671 31.0315C93.9213 29.5557 95.889 27.4826 97.2593 25.023C98.5945 22.6337 99.3675 19.893 99.4027 17.0118C99.4027 15.7468 99.2973 14.517 99.0513 13.3224L93.0429 14.6225C93.1483 15.2198 93.2185 15.8523 93.2185 16.5199Z" fill="#CAD229"/>
<path d="M83.0639 0.25132C80.2178 0.216183 77.5474 0.883786 75.1932 2.11358L77.8636 7.20845C79.3043 6.43544 80.9908 6.01379 82.7477 6.01379C87.8777 6.01379 92.1644 9.70318 93.0429 14.5872L99.0513 13.2872C97.4701 5.94352 90.9346 0.356731 83.0639 0.25132Z" fill="#E7DF09"/>
<path d="M82.291 15.782L79.3043 11.2493H74.1743L81.4125 22.458H85.629C87.948 11.2142 90.7941 5.59225 100 1.51636C91.532 1.76232 84.6803 8.01671 82.291 15.782Z" fill="#68B03D"/>
</svg>
