<svg width="160" height="64" viewBox="0 0 160 64" fill="none" xmlns="http://www.w3.org/2000/svg">
<path d="M13.2726 2.13998H1.90186V13.5107H13.2726V2.13998Z" fill="#00C7FD"/>
<path d="M12.9894 61.3813V20.3899H2.18518V61.3408H12.9894V61.3813ZM84.5322 61.7859V51.7505C82.954 51.7505 81.6187 51.6696 80.6475 51.5077C79.5145 51.3459 78.6647 50.9412 78.0982 50.3747C77.5317 49.8082 77.1675 48.9989 76.9652 47.9063C76.8033 46.8947 76.7224 45.5593 76.7224 43.9407V29.6564H84.5322V20.3899H76.7224V4.44652H65.9181V44.0621C65.9181 47.4207 66.2014 50.2533 66.7679 52.5194C67.3344 54.745 68.3056 56.5659 69.6409 57.9417C70.9763 59.3175 72.7568 60.2887 74.9014 60.8957C77.0866 61.5027 79.8382 61.7859 83.1159 61.7859H84.5322ZM146.363 61.3813V1.29022H135.559V61.3813H146.363ZM55.5185 24.4364C52.5241 21.1992 48.3157 19.5806 42.9743 19.5806C40.3845 19.5806 37.997 20.1066 35.8928 21.1587C33.7482 22.2108 31.9677 23.6676 30.5109 25.529L29.9444 26.2978V25.6099V20.3899H19.302V61.3408H30.0253V39.53V41.0272C30.0253 40.7844 30.0253 40.5416 30.0253 40.2988C30.1467 36.4546 31.0774 33.622 32.8579 31.8011C34.7598 29.8588 37.0663 28.8876 39.6966 28.8876C42.8124 28.8876 45.1998 29.8588 46.778 31.7202C48.3157 33.5816 49.125 36.2118 49.125 39.5704V39.6918V61.3408H60.0102V38.1137C60.0506 32.2867 58.513 27.6736 55.5185 24.4364ZM129.975 40.8249C129.975 37.8709 129.449 35.1193 128.437 32.5295C127.385 29.9802 125.928 27.7141 124.107 25.7718C122.246 23.8294 120.02 22.3322 117.431 21.2396C114.841 20.1471 111.968 19.621 108.852 19.621C105.898 19.621 103.106 20.1875 100.516 21.2801C97.9262 22.4131 95.6601 23.9104 93.7583 25.8122C91.8564 27.7141 90.3187 29.9802 89.2262 32.5699C88.0931 35.1597 87.5671 37.9518 87.5671 40.9058C87.5671 43.8598 88.0931 46.6519 89.1452 49.2417C90.1973 51.8314 91.6945 54.0975 93.5559 55.9994C95.4174 57.9012 97.7239 59.4389 100.395 60.5315C103.065 61.6645 106.019 62.231 109.176 62.231C118.321 62.231 123.986 58.0631 127.385 54.1784L119.616 48.2705C117.997 50.2128 114.112 52.8431 109.257 52.8431C106.222 52.8431 103.713 52.1552 101.811 50.7389C99.909 49.3631 98.6141 47.4207 97.9262 45.0333L97.8048 44.6691H129.975V40.8249ZM97.8857 37.0616C97.8857 34.0672 101.325 28.8471 108.73 28.8067C116.136 28.8067 119.616 34.0267 119.616 37.0211L97.8857 37.0616ZM158.665 56.2017C158.462 55.7161 158.179 55.3115 157.815 54.9473C157.451 54.5831 157.046 54.2998 156.56 54.0975C156.075 53.8952 155.549 53.7738 155.023 53.7738C154.456 53.7738 153.971 53.8952 153.485 54.0975C153 54.2998 152.595 54.5831 152.231 54.9473C151.867 55.3115 151.583 55.7161 151.381 56.2017C151.179 56.6873 151.057 57.2133 151.057 57.7394C151.057 58.3059 151.179 58.7915 151.381 59.2771C151.583 59.7627 151.867 60.1673 152.231 60.5315C152.595 60.8957 153 61.1789 153.485 61.3813C153.971 61.5836 154.497 61.705 155.023 61.705C155.589 61.705 156.075 61.5836 156.56 61.3813C157.046 61.1789 157.451 60.8957 157.815 60.5315C158.179 60.1673 158.462 59.7627 158.665 59.2771C158.867 58.7915 158.988 58.2654 158.988 57.7394C158.988 57.2133 158.867 56.6873 158.665 56.2017ZM158.017 59.0343C157.855 59.4389 157.613 59.8031 157.329 60.0864C157.046 60.3696 156.682 60.6124 156.277 60.7743C155.873 60.9362 155.468 61.0171 154.982 61.0171C154.537 61.0171 154.092 60.9362 153.687 60.7743C153.283 60.6124 152.919 60.3696 152.635 60.0864C152.352 59.8031 152.109 59.4389 151.947 59.0343C151.786 58.6296 151.705 58.225 151.705 57.7394C151.705 57.2943 151.786 56.8491 151.947 56.4445C152.109 56.0398 152.352 55.6757 152.635 55.3924C152.919 55.1091 153.283 54.8663 153.687 54.7045C154.092 54.5426 154.497 54.4617 154.982 54.4617C155.427 54.4617 155.873 54.5426 156.277 54.7045C156.682 54.8663 157.046 55.1091 157.329 55.3924C157.613 55.6757 157.855 56.0398 158.017 56.4445C158.179 56.8491 158.26 57.2538 158.26 57.7394C158.26 58.225 158.179 58.6296 158.017 59.0343ZM155.751 58.1036C156.075 58.0631 156.318 57.9417 156.52 57.7394C156.722 57.5371 156.844 57.2538 156.844 56.8491C156.844 56.404 156.722 56.0803 156.439 55.8375C156.196 55.5947 155.751 55.4733 155.225 55.4733H153.445V60.0459H154.294V58.1845H154.901L156.034 60.0459H156.925L155.751 58.1036ZM155.306 57.4157C155.185 57.4157 155.063 57.4157 154.901 57.4157H154.294V56.1208H154.901C155.023 56.1208 155.144 56.1208 155.306 56.1208C155.427 56.1208 155.549 56.1612 155.67 56.2017C155.792 56.2422 155.873 56.3231 155.913 56.404C155.994 56.485 155.994 56.6064 155.994 56.7682C155.994 56.9301 155.954 57.0515 155.913 57.1324C155.832 57.2133 155.751 57.2943 155.67 57.3347C155.549 57.3752 155.427 57.4157 155.306 57.4157Z" fill="#00C7FD"/>
</svg>
