<svg width="49" height="25" viewBox="0 0 49 25" fill="none" xmlns="http://www.w3.org/2000/svg">
<path d="M0.427038 10.0499H1.09321V14.3544L3.46753 11.8776H4.28743L2.44264 13.7737L4.35576 16.2846H3.57002L1.98145 14.2349L1.09321 15.1402V16.2846H0.427038V10.0499Z" fill="#464545"/>
<path d="M5.80767 10.0499H5.14149V16.2846H5.80767V10.0499Z" fill="#464545"/>
<path d="M6.84965 14.0982C6.84965 12.6292 7.90869 11.7751 8.96774 11.7751C9.78764 11.7751 10.3172 12.2193 10.6588 12.7146V11.8606H11.325V16.2846H10.6588V15.3964C10.3001 15.9259 9.77056 16.3871 8.96774 16.3871C7.90869 16.3871 6.84965 15.5501 6.84965 14.0982ZM10.693 14.0811C10.693 13.0392 9.90721 12.3559 9.08731 12.3559C8.23324 12.3559 7.5329 12.9879 7.5329 14.0641V14.0811C7.5329 15.1231 8.2674 15.7893 9.08731 15.7893C9.90721 15.7893 10.693 15.106 10.693 14.0811Z" fill="#464545"/>
<path d="M12.5719 11.8776H13.2381V12.6463C13.5285 12.168 13.9897 11.7751 14.7583 11.7751C15.8345 11.7751 16.4494 12.4926 16.4494 13.5516V16.2846H15.7832V13.7053C15.7832 12.8854 15.3391 12.373 14.5534 12.373C13.7847 12.373 13.221 12.9367 13.221 13.7566V16.2846H12.5548V11.8776H12.5719Z" fill="#464545"/>
<path d="M17.8671 15.1231V12.4584H17.2522V11.8776H17.8671V10.5453H18.5333V11.8776H19.934V12.4584H18.5333V15.0377C18.5333 15.5843 18.8408 15.7722 19.2849 15.7722C19.5069 15.7722 19.6948 15.738 19.934 15.6185V16.1821C19.6948 16.3017 19.4557 16.37 19.1312 16.37C18.3967 16.37 17.8671 16.0113 17.8671 15.1231Z" fill="#464545"/>
<path d="M20.4635 14.0982C20.4635 12.8 21.3688 11.7751 22.5816 11.7751C23.8969 11.7751 24.6484 12.8171 24.6484 14.1153C24.6484 14.2007 24.6484 14.2519 24.6314 14.3374H21.1297C21.2322 15.2939 21.8983 15.8405 22.6841 15.8405C23.299 15.8405 23.726 15.5843 24.0848 15.2085L24.4947 15.5843C24.0506 16.0797 23.504 16.4213 22.667 16.4213C21.4542 16.3871 20.4635 15.4647 20.4635 14.0982ZM23.9823 13.842C23.9139 13.0392 23.4527 12.3388 22.5645 12.3388C21.7958 12.3388 21.2151 12.9879 21.1297 13.842H23.9823Z" fill="#464545"/>
<path d="M25.5879 11.8776H26.2541V12.6463C26.5445 12.168 27.0057 11.7751 27.7743 11.7751C28.8505 11.7751 29.4654 12.4926 29.4654 13.5516V16.2846H28.7992V13.7053C28.7992 12.8854 28.3551 12.373 27.5694 12.373C26.8007 12.373 26.237 12.9367 26.237 13.7566V16.2846H25.5708L25.5879 11.8776Z" fill="#464545"/>
<path d="M0 19.513H1.11029L2.32307 22.8268L3.55293 19.513H4.62906L2.78427 24.0567H1.84479L0 19.513Z" fill="#464545"/>
<path d="M4.95361 21.7848V21.7678C4.95361 20.4696 5.876 19.4105 7.15711 19.4105C8.59194 19.4105 9.32644 20.5379 9.32644 21.8361C9.32644 21.9215 9.30936 22.024 9.30936 22.1265H5.97849C6.09806 22.861 6.6105 23.2709 7.27668 23.2709C7.78912 23.2709 8.14783 23.083 8.50654 22.7243L9.12147 23.2709C8.69443 23.7834 8.09658 24.125 7.27668 24.125C5.96141 24.125 4.95361 23.1855 4.95361 21.7848ZM8.28448 21.4432C8.21615 20.777 7.82328 20.2475 7.14003 20.2475C6.50801 20.2475 6.0639 20.7429 5.96141 21.4432H8.28448Z" fill="#464545"/>
<path d="M10.3001 19.513H11.342V20.5379C11.6324 19.8547 12.1449 19.3935 12.9477 19.4276V20.5208H12.8794C11.9741 20.5208 11.342 21.1187 11.342 22.3144V24.0396H10.3001V19.513Z" fill="#464545"/>
<path d="M13.9897 22.7756V20.4013H13.4089V19.513H13.9897V18.2661H15.0316V19.513H16.2444V20.4013H15.0316V22.6218C15.0316 23.0318 15.2366 23.1855 15.5953 23.1855C15.8344 23.1855 16.0394 23.1343 16.2444 23.0318V23.8859C15.9882 24.0396 15.6978 24.125 15.3049 24.125C14.5192 24.1079 13.9897 23.7663 13.9897 22.7756Z" fill="#464545"/>
<path d="M16.8423 21.7848V21.7678C16.8423 20.4696 17.7647 19.4105 19.0458 19.4105C20.4806 19.4105 21.2151 20.5379 21.2151 21.8361C21.2151 21.9215 21.198 22.024 21.198 22.1265H17.8842C18.0038 22.861 18.5162 23.2709 19.1824 23.2709C19.6949 23.2709 20.0536 23.083 20.4123 22.7243L21.0272 23.2709C20.6002 23.7834 20.0023 24.125 19.1824 24.125C17.8671 24.125 16.8423 23.1855 16.8423 21.7848ZM20.1902 21.4432C20.1219 20.777 19.729 20.2475 19.0458 20.2475C18.4137 20.2475 17.9696 20.7429 17.8671 21.4432H20.1902Z" fill="#464545"/>
<path d="M23.299 17.7878H22.2571V24.0225H23.299V17.7878Z" fill="#464545"/>
<path d="M25.6904 17.7878H24.6484V24.0225H25.6904V17.7878Z" fill="#464545"/>
<path d="M26.7324 21.7848V21.7678C26.7324 20.4696 27.6548 19.4105 28.9359 19.4105C30.3707 19.4105 31.1052 20.5379 31.1052 21.8361C31.1052 21.9215 31.0881 22.024 31.0881 22.1265H27.7743C27.8939 22.861 28.4063 23.2709 29.0725 23.2709C29.585 23.2709 29.9437 23.083 30.3024 22.7243L30.9173 23.2709C30.4903 23.7834 29.8924 24.125 29.0725 24.125C27.7402 24.125 26.7324 23.1855 26.7324 21.7848ZM30.0632 21.4432C29.9949 20.777 29.602 20.2475 28.9188 20.2475C28.2868 20.2475 27.8427 20.7429 27.7402 21.4432H30.0632Z" fill="#464545"/>
<path d="M32.0789 19.513H33.1208V20.2134C33.4112 19.7863 33.8382 19.4276 34.5386 19.4276C35.5635 19.4276 36.1442 20.1109 36.1442 21.1528V24.0396H35.1023V21.4774C35.1023 20.777 34.7435 20.3671 34.1286 20.3671C33.5308 20.3671 33.1037 20.7941 33.1037 21.4945V24.0396H32.0618V19.513H32.0789Z" fill="#464545"/>
<path d="M37.8524 3.52484L36.5542 1.04803C34.4019 2.17541 32.8134 4.24226 32.3692 6.71906L35.1877 7.2315C35.4439 5.62585 36.4517 4.25934 37.8524 3.52484Z" fill="#FFCA12"/>
<path d="M35.1364 8.03433C35.1364 7.76103 35.1535 7.50481 35.2048 7.24859L32.3863 6.73615C32.3009 7.18026 32.2668 7.64146 32.2497 8.10266C32.2497 8.75175 32.318 9.38376 32.4546 9.99869L35.3072 9.3496C35.1877 8.90548 35.1364 8.47845 35.1364 8.03433Z" fill="#DC892A"/>
<path d="M35.2902 9.31543L32.4376 9.96452C32.6425 10.8357 32.9842 11.6556 33.4454 12.4072L35.9734 10.8357C35.666 10.3916 35.4439 9.86203 35.2902 9.31543Z" fill="#ED9C00"/>
<path d="M35.9734 10.8528L33.4454 12.4242C33.8212 13.0221 34.2653 13.5687 34.7777 14.0641C33.3941 14.4911 31.9935 14.6961 31.9935 14.6961C32.0447 14.7473 33.6162 15.8234 36.093 16.3359L37.989 12.6463C37.1862 12.2193 36.4859 11.6043 35.9734 10.8528Z" fill="#D0380D"/>
<path d="M40.2267 13.1246C39.4239 13.1246 38.6723 12.9367 38.0061 12.6122L36.1101 16.3017C37.3058 16.558 38.7235 16.6604 40.295 16.4725V13.1246H40.2267Z" fill="#DD6826"/>
<path d="M40.2779 13.1246V16.4896C41.0124 16.4042 41.764 16.2334 42.5498 15.9943C43.2501 15.7893 43.8992 15.4818 44.497 15.106L42.8401 12.4072C42.1056 12.8513 41.2345 13.1075 40.2779 13.1246Z" fill="#94BE1C"/>
<path d="M45.3169 8.03433C45.3169 9.87912 44.3262 11.5018 42.8572 12.3901L44.5141 15.0889C45.6586 14.3715 46.6151 13.3637 47.2813 12.168C47.9304 11.0065 48.3062 9.67414 48.3233 8.27347C48.3233 7.65854 48.272 7.06069 48.1525 6.47992L45.2315 7.11193C45.2828 7.40231 45.3169 7.70978 45.3169 8.03433Z" fill="#CAD229"/>
<path d="M40.3804 0.125642C38.9968 0.10856 37.6986 0.433107 36.5542 1.03096L37.8524 3.50776C38.5527 3.13197 39.3726 2.92699 40.2267 2.92699C42.7206 2.92699 44.8045 4.72054 45.2315 7.09485L48.1525 6.46284C47.3838 2.89283 44.2067 0.176886 40.3804 0.125642Z" fill="#E7DF09"/>
<path d="M40.0046 7.67562L38.5527 5.47212H36.0588L39.5776 10.9211H41.6274C42.7547 5.45503 44.1383 2.72201 48.6136 0.74057C44.497 0.86014 41.1662 3.90063 40.0046 7.67562Z" fill="#68B03D"/>
</svg>
