<svg xmlns="http://www.w3.org/2000/svg" width="160" height="78" fill="none"><rect id="backgroundrect" width="100%" height="100%" x="0" y="0" fill="none" stroke="none"/>

<defs>
<clipPath id="clip0_102_609">
<rect width="160" height="83.94619750976562" fill="white" y="0.5168460011482239" x="0" id="svg_1"/>
</clipPath>
</defs>
<g class="currentLayer" style=""><title>Layer 1</title><g clip-path="url(#clip0_102_609)" id="svg_2" class="">
<path d="M69.05824499957562,41.9014201171875 C73.65024499957562,41.9014201171875 74.72644499957562,40.3946201171875 75.76684499957561,39.0673201171875 L86.56504499957562,39.4260201171875 V35.7668201171875 H61.84754499957562 C61.84754499957562,39.3184201171875 64.46634499957561,41.9014201171875 69.05824499957562,41.9014201171875 z" fill="#1B1B1B" id="svg_3"/>
<path d="M68.41264499957562,24.1793201171875 C65.39914499957561,23.9282201171875 62.636844999575615,25.9372201171875 61.95524499957561,28.878920117187498 H74.61884499957561 C74.43954499957562,25.7578201171875 72.07174499957561,24.1793201171875 68.41264499957562,24.1793201171875 z" fill="#1B1B1B" id="svg_4"/>
<path d="M126.85244499957561,24.5740201171875 C122.83444499957561,24.5740201171875 119.74844499957561,27.8385201171875 119.74844499957561,33.2197201171875 C119.74844499957561,38.4932201171875 122.83444499957561,41.8654201171875 126.85244499957561,41.8654201171875 C130.87044499957562,41.8654201171875 133.8834449995756,38.7085201171875 133.8834449995756,33.2197201171875 C133.8834449995756,28.0179201171875 130.87044499957562,24.5740201171875 126.85244499957561,24.5740201171875 z" fill="#1B1B1B" id="svg_5"/>
<path d="M-4.243850548757422e-10,1.1718749970413e-7 L0.03587399957561496,78.2421201171875 L27.946144999575615,65.1480201171875 H154.76244499957562 C157.52444499957562,65.1480201171875 159.7844449995756,62.887920117187505 159.7844449995756,60.125520117187506 V1.1718749970413e-7 H-4.243850548757422e-10 zM126.67244499957562,49.9372201171875 C115.62344499957561,49.9372201171875 106.69044499957562,43.3004201171875 106.69044499957562,33.2197201171875 C106.69044499957562,30.6367201171875 107.33644499957562,28.089720117187497 108.62744499957562,25.829620117187503 C100.66344499957562,23.8206201171875 99.30044499957562,32.0000201171875 99.30044499957562,34.4394201171875 V49.1480201171875 H86.56504499957562 V41.1838201171875 C83.58744499957561,47.2466201171875 76.77134499957562,49.9372201171875 68.66364499957561,49.9372201171875 C60.08964499957561,49.9372201171875 53.704044999575615,46.5650201171875 50.90584499957561,40.7533201171875 C50.94174499957561,46.0628201171875 50.94174499957561,49.1838201171875 50.94174499957561,49.1838201171875 H38.170444999575615 C38.170444999575615,49.1838201171875 38.242144999575615,34.6906201171875 38.170444999575615,32.6457201171875 C38.09864499957561,30.278020117187502 38.959644999575616,25.3991201171875 33.29144499957562,25.3991201171875 C27.659144999575616,25.3991201171875 27.982044999575614,30.780220117187497 27.982044999575614,32.3587201171875 V49.1480201171875 H15.246644999575615 V28.0179201171875 C15.246644999575615,22.7085201171875 15.031344999575614,20.5560201171875 13.668144999575615,17.3273201171875 L26.080744999575614,17.3991201171875 C26.547044999575615,18.1883201171875 26.869944999575615,19.0493201171875 27.013444999575615,19.9462201171875 C29.991044999575614,17.6502201171875 33.65024499957561,16.4663201171875 37.417044999575616,16.6457201171875 C42.080744999575614,16.6457201171875 49.865444999575615,18.3677201171875 50.798244999575616,26.367720117187503 C53.56054499957561,20.5560201171875 59.946144999575615,16.502220117187502 68.84304499957561,16.502220117187502 C77.38114499957561,16.502220117187502 84.01794499957562,20.3408201171875 86.60094499957562,26.834120117187503 C86.81614499957561,23.6054201171875 86.45744499957561,20.3767201171875 85.56054499957561,17.2915201171875 L98.08074499957561,17.3632201171875 C98.61884499957561,18.7264201171875 98.90584499957562,20.1614201171875 98.86994499957561,21.5964201171875 C100.91444499957562,18.1524201171875 104.78944499957562,16.2152201171875 108.77144499957562,16.6098201171875 C110.06244499957562,16.7175201171875 111.31844499957562,16.9327201171875 112.57444499957562,17.2556201171875 V21.1300201171875 C116.59144499957561,17.9731201171875 121.61444499957561,16.3228201171875 126.70844499957562,16.4305201171875 C137.75744499957563,16.4305201171875 146.87044499957562,22.8520201171875 146.87044499957562,33.1121201171875 C146.79844499957562,43.6950201171875 137.68644499957563,49.9372201171875 126.67244499957562,49.9372201171875 z" fill="#1B1B1B" id="svg_6"/>
</g></g></svg>