<svg width="160" height="67" viewBox="0 0 160 67" fill="none" xmlns="http://www.w3.org/2000/svg">
<g opacity="0.4">
<path fill-rule="evenodd" clip-rule="evenodd" d="M71.8663 62.7029H2.81856V61.9522C2.81856 61.6526 2.87868 61.2219 2.93374 61.027C3.71139 60.1269 9.14752 53.8845 9.73626 53.2117C9.90844 53.0153 10.024 52.9278 10.9682 52.9278H63.7297C64.6737 52.9278 64.7893 53.0153 64.9617 53.2117C65.5911 53.9319 71.0091 60.1535 71.7642 61.027C71.8191 61.2215 71.8792 61.6526 71.8792 61.9522L71.8663 62.7029ZM11.8694 17.957H62.8284C63.1391 17.957 63.3918 18.2092 63.3918 18.5193V50.1136H11.306V18.5193C11.306 18.2092 11.5587 17.957 11.8694 17.957ZM74.0187 59.3294C73.8524 59.1283 67.49 51.8241 67.0849 51.3611C66.8071 51.0431 66.5115 50.8076 66.2104 50.6312V18.5193C66.2104 16.6572 64.6934 15.1426 62.8284 15.1426H11.8694C10.0044 15.1426 8.48739 16.6572 8.48739 18.5193V50.6312C8.18641 50.8076 7.89107 51.0427 7.61344 51.3607C7.16946 51.8676 0.851385 59.1209 0.679396 59.329C0.0326858 60.1104 0 61.6515 0 61.9522V62.9217C0 63.2009 0.0400789 63.4696 0.107007 63.688C0.125879 63.7618 0.147086 63.8308 0.170238 63.897L0.202924 63.9879C0.383668 64.4614 0.874927 65.2829 2.08585 65.4645C2.26991 65.4987 2.45727 65.5174 2.64462 65.5174H72.0529C72.2403 65.5174 72.4278 65.4987 72.5627 65.4729C73.8213 65.2829 74.3133 64.4622 74.494 63.9897L74.5248 63.9054C74.5468 63.8422 74.5658 63.783 74.5756 63.7437C74.6577 63.4696 74.6978 63.2009 74.6978 62.9217V61.9522C74.6978 61.6515 74.6651 60.1104 74.0187 59.3294Z" fill="#F2F6F6"/>
<path fill-rule="evenodd" clip-rule="evenodd" d="M46.9774 59.5441V58.3381C46.9797 58.3378 46.9817 58.3378 46.9836 58.3378L46.9774 59.5441ZM29.1061 58.3378C29.5189 57.5738 29.9141 56.8886 30.0528 56.7133C30.089 56.6974 30.2048 56.6776 30.5476 56.6776H44.1479C44.4907 56.6776 44.6063 56.6974 44.6571 56.7263C44.7766 56.881 45.0841 57.4186 45.5791 58.3378H29.1061ZM46.4925 55.1581C45.7122 54.2651 44.733 54.2651 44.1479 54.2651H30.5476C29.9625 54.2651 28.9833 54.2651 28.2026 55.1588C27.6996 55.7349 26.3473 58.3984 26.3336 58.4262C26.0257 59.036 26.0157 59.5823 26.3045 60.05C26.5015 60.3698 26.9064 60.7504 27.7175 60.7504H46.9774C47.8397 60.7504 48.2383 60.3041 48.3992 60.0383C48.5975 59.7112 48.75 59.1627 48.3519 58.4067C47.2251 56.2698 46.7737 55.4808 46.4925 55.1581Z" fill="#F2F6F6"/>
<mask id="mask0_8_32998" style="mask-type:alpha" maskUnits="userSpaceOnUse" x="13" y="1" width="49" height="46">
<path d="M13.2151 1.56177H61.4827V46.8649H13.2151V1.56177Z" fill="white"/>
</mask>
<g mask="url(#mask0_8_32998)">
<path fill-rule="evenodd" clip-rule="evenodd" d="M57.6578 46.8649H17.0398C15.6937 46.8649 14.4465 46.1579 13.7562 45.0041C13.066 43.8496 13.0341 42.4179 13.6722 41.2347L33.9811 3.57049C34.6483 2.33347 35.9417 1.56177 37.3489 1.56177C38.756 1.56177 40.0494 2.33308 40.7165 3.57049L61.0256 41.2347C61.6638 42.4179 61.6319 43.8496 60.9414 45.0041C60.2513 46.1579 59.0042 46.8649 57.6578 46.8649Z" fill="black"/>
</g>
<path fill-rule="evenodd" clip-rule="evenodd" d="M37.3489 5.3811L17.04 43.0449H57.6578L37.3489 5.3811Z" fill="black"/>
<path fill-rule="evenodd" clip-rule="evenodd" d="M19.327 41.6809H55.3708L37.3489 8.25835L19.327 41.6809ZM57.6578 44.4091H17.04C16.5592 44.4091 16.1139 44.1565 15.8672 43.7444C15.6207 43.3322 15.6094 42.8208 15.8372 42.398L36.1461 4.73439C36.3845 4.29259 36.8463 4.01709 37.3489 4.01709C37.8514 4.01709 38.3133 4.29259 38.5516 4.73439L58.8606 42.398C59.0886 42.8208 59.0771 43.3322 58.8306 43.7444C58.5839 44.1565 58.1386 44.4091 57.6578 44.4091Z" fill="#F2F6F6"/>
<path fill-rule="evenodd" clip-rule="evenodd" d="M37.3411 32.7243C36.2187 32.7243 35.3091 31.8159 35.3091 30.6952V17.9141C35.3091 16.7935 36.2187 15.885 37.3411 15.885C38.4635 15.885 39.373 16.7935 39.373 17.9141V30.6952C39.373 31.8159 38.4635 32.7243 37.3411 32.7243Z" fill="#F2F6F6"/>
<path fill-rule="evenodd" clip-rule="evenodd" d="M37.3411 38.9994C36.1321 38.9994 35.1519 38.0205 35.1519 36.8132C35.1519 35.6058 36.1321 34.627 37.3411 34.627C38.5501 34.627 39.5302 35.6058 39.5302 36.8132C39.5302 38.0205 38.5501 38.9994 37.3411 38.9994Z" fill="#F2F6F6"/>
<mask id="mask1_8_32998" style="mask-type:alpha" maskUnits="userSpaceOnUse" x="0" y="1" width="160" height="65">
<path d="M0 65.5175H159.314V1.56177H0V65.5175Z" fill="white"/>
</mask>
<g mask="url(#mask1_8_32998)">
</g>
<path d="M79.0304 32.4533V23.3681L82.9381 29.2915H83.0182L86.966 23.3081V32.4533H90.032V18.4453H86.7055L83.0182 24.3687L79.331 18.4453H76.0044V32.4533H79.0304ZM98.3484 32.6934C99.1901 32.6934 99.9649 32.5467 100.673 32.2532C101.381 31.9597 101.996 31.5595 102.517 31.0525C103.038 30.5456 103.445 29.9552 103.739 29.2815C104.033 28.6078 104.18 27.884 104.18 27.1103V27.0702C104.18 26.2965 104.033 25.5727 103.739 24.899C103.445 24.2253 103.041 23.6383 102.527 23.138C102.012 22.6377 101.401 22.2441 100.693 21.9573C99.985 21.6705 99.2168 21.5271 98.3885 21.5271C97.5468 21.5271 96.772 21.6738 96.0639 21.9673C95.3558 22.2608 94.7413 22.6611 94.2203 23.168C93.6992 23.675 93.2918 24.2653 92.9979 24.939C92.704 25.6127 92.557 26.3365 92.557 27.1103V27.1503C92.557 27.9241 92.704 28.6478 92.9979 29.3215C93.2918 29.9952 93.6959 30.5822 94.2103 31.0825C94.7246 31.5828 95.3358 31.9764 96.0439 32.2632C96.7519 32.55 97.5201 32.6934 98.3484 32.6934ZM98.3885 30.072C97.961 30.072 97.5769 29.9919 97.2362 29.8318C96.8955 29.6717 96.5983 29.4549 96.3445 29.1814C96.0906 28.908 95.8969 28.5944 95.7633 28.2409C95.6297 27.8874 95.5629 27.5105 95.5629 27.1103V27.0702C95.5629 26.67 95.6264 26.2931 95.7533 25.9396C95.8802 25.5861 96.0639 25.2759 96.3044 25.0091C96.5448 24.7422 96.8354 24.5321 97.1761 24.3787C97.5168 24.2253 97.9075 24.1486 98.3484 24.1486C98.7625 24.1486 99.1433 24.2286 99.4906 24.3887C99.838 24.5488 100.139 24.7656 100.392 25.0391C100.646 25.3126 100.84 25.6261 100.974 25.9796C101.107 26.3332 101.174 26.71 101.174 27.1103V27.1503C101.174 27.5505 101.11 27.9274 100.984 28.2809C100.857 28.6345 100.673 28.9446 100.433 29.2115C100.192 29.4783 99.9015 29.6884 99.5608 29.8418C99.2201 29.9952 98.8293 30.072 98.3885 30.072ZM109.43 32.4533V26.4699C109.43 25.7495 109.601 25.2058 109.941 24.839C110.282 24.4721 110.746 24.2887 111.334 24.2887C111.922 24.2887 112.376 24.4721 112.697 24.839C113.017 25.2058 113.178 25.7495 113.178 26.4699V32.4533H116.224V25.5093C116.224 24.2686 115.906 23.2947 115.272 22.5877C114.637 21.8806 113.739 21.5271 112.576 21.5271C112.189 21.5271 111.842 21.5738 111.534 21.6672C111.227 21.7605 110.947 21.8873 110.693 22.0474C110.439 22.2075 110.208 22.3909 110.001 22.5977C109.794 22.8045 109.604 23.0213 109.43 23.2481V21.7272H106.384V32.4533H109.43ZM122.496 32.6334C123.004 32.6334 123.451 32.5767 123.839 32.4633C124.226 32.3499 124.58 32.1998 124.901 32.0131V29.5717C124.433 29.8251 123.932 29.9519 123.398 29.9519C122.743 29.9519 122.416 29.605 122.416 28.9113V24.3287H124.941V21.7272H122.416V18.9856H119.37V21.7272H118.087V24.3287H119.37V29.4116C119.37 30.0386 119.447 30.5556 119.6 30.9625C119.754 31.3694 119.968 31.6995 120.242 31.953C120.515 32.2065 120.843 32.3833 121.223 32.4833C121.604 32.5834 122.028 32.6334 122.496 32.6334ZM132.275 32.6934C133.25 32.6934 134.099 32.5167 134.82 32.1631C135.542 31.8096 136.156 31.3193 136.664 30.6923L134.92 29.1514C134.493 29.5383 134.079 29.8185 133.678 29.9919C133.277 30.1653 132.823 30.2521 132.315 30.2521C131.634 30.2521 131.063 30.0753 130.602 29.7218C130.141 29.3682 129.837 28.8446 129.69 28.1509H137.165C137.178 28.0041 137.188 27.864 137.195 27.7306C137.202 27.5972 137.205 27.4705 137.205 27.3504C137.205 26.59 137.101 25.8595 136.894 25.1591C136.687 24.4587 136.367 23.8384 135.932 23.2981C135.498 22.7578 134.954 22.3275 134.299 22.0073C133.645 21.6872 132.87 21.5271 131.975 21.5271C131.186 21.5271 130.468 21.6738 129.82 21.9673C129.172 22.2608 128.615 22.6611 128.147 23.168C127.679 23.675 127.315 24.2686 127.055 24.949C126.794 25.6294 126.664 26.3498 126.664 27.1103V27.1503C126.664 27.9774 126.804 28.7279 127.085 29.4016C127.366 30.0753 127.756 30.659 128.257 31.1526C128.758 31.6462 129.353 32.0264 130.041 32.2932C130.729 32.56 131.474 32.6934 132.275 32.6934ZM134.239 26.2498H129.65C129.77 25.556 130.027 25.0024 130.422 24.5888C130.816 24.1753 131.333 23.9685 131.975 23.9685C132.616 23.9685 133.13 24.1786 133.518 24.5988C133.905 25.0191 134.146 25.5694 134.239 26.2498ZM143.036 32.6534C143.424 32.6534 143.771 32.6067 144.078 32.5133C144.386 32.42 144.666 32.2932 144.92 32.1331C145.174 31.973 145.404 31.7896 145.611 31.5828C145.819 31.376 146.009 31.1592 146.183 30.9324V32.4533H149.229V21.7272H146.183V27.7106C146.183 28.431 146.012 28.9747 145.672 29.3415C145.331 29.7084 144.867 29.8918 144.279 29.8918C143.691 29.8918 143.237 29.7084 142.916 29.3415C142.596 28.9747 142.435 28.431 142.435 27.7106V21.7272H139.389V28.6712C139.389 29.9119 139.706 30.8857 140.341 31.5928C140.976 32.2999 141.874 32.6534 143.036 32.6534ZM155 32.4533V28.491C155 27.197 155.291 26.2431 155.872 25.6294C156.453 25.0157 157.251 24.7089 158.266 24.7089H158.427V21.5271C157.518 21.487 156.797 21.6872 156.262 22.1274C155.728 22.5677 155.307 23.1547 155 23.8884V21.7272H151.954V32.4533H155ZM78.7298 50.3334C79.4779 50.3334 80.1125 50.21 80.6335 49.9632C81.1545 49.7164 81.6021 49.3862 81.9762 48.9727V50.1333H84.922V43.9098C84.922 43.1894 84.8284 42.539 84.6414 41.9586C84.4544 41.3783 84.1605 40.888 83.7597 40.4878C83.3722 40.1009 82.8813 39.8041 82.2868 39.5973C81.6923 39.3905 80.9742 39.2871 80.1325 39.2871C79.2241 39.2871 78.4492 39.3672 77.808 39.5273C77.1667 39.6873 76.5521 39.8941 75.9643 40.1476L76.7258 42.4689C77.2201 42.2822 77.6911 42.1387 78.1386 42.0387C78.5862 41.9386 79.1038 41.8886 79.6917 41.8886C80.4532 41.8886 81.0276 42.0554 81.4151 42.3889C81.8025 42.7224 81.9962 43.2094 81.9962 43.8497V44.0298C81.6088 43.8964 81.2113 43.7897 80.8039 43.7096C80.3964 43.6296 79.9188 43.5896 79.371 43.5896C78.7298 43.5896 78.1453 43.6596 77.6176 43.7997C77.0899 43.9398 76.6356 44.1499 76.2549 44.4301C75.8741 44.7102 75.5769 45.0638 75.3631 45.4907C75.1494 45.9176 75.0425 46.4245 75.0425 47.0115V47.0516C75.0425 47.5852 75.1394 48.0555 75.3331 48.4624C75.5268 48.8693 75.7906 49.2128 76.1246 49.4929C76.4586 49.7731 76.8494 49.9832 77.2969 50.1233C77.7445 50.2634 78.2221 50.3334 78.7298 50.3334ZM79.6516 48.2322C79.1573 48.2322 78.7565 48.1188 78.4492 47.892C78.1419 47.6652 77.9883 47.3451 77.9883 46.9315V46.8915C77.9883 46.4112 78.1753 46.0443 78.5494 45.7908C78.9235 45.5374 79.4378 45.4106 80.0925 45.4106C80.4665 45.4106 80.8172 45.4473 81.1445 45.5207C81.4718 45.5941 81.7691 45.6908 82.0363 45.8108V46.3512C82.0363 46.9115 81.8192 47.3651 81.385 47.7119C80.9508 48.0588 80.373 48.2322 79.6516 48.2322ZM90.5931 50.3334C91.3413 50.3334 91.9758 50.21 92.4969 49.9632C93.0179 49.7164 93.4655 49.3862 93.8395 48.9727V50.1333H96.7853V43.9098C96.7853 43.1894 96.6918 42.539 96.5048 41.9586C96.3177 41.3783 96.0238 40.888 95.623 40.4878C95.2356 40.1009 94.7446 39.8041 94.1501 39.5973C93.5556 39.3905 92.8375 39.2871 91.9959 39.2871C91.0874 39.2871 90.3126 39.3672 89.6713 39.5273C89.0301 39.6873 88.4155 39.8941 87.8277 40.1476L88.5892 42.4689C89.0835 42.2822 89.5544 42.1387 90.002 42.0387C90.4495 41.9386 90.9672 41.8886 91.555 41.8886C92.3165 41.8886 92.891 42.0554 93.2784 42.3889C93.6658 42.7224 93.8596 43.2094 93.8596 43.8497V44.0298C93.4721 43.8964 93.0747 43.7897 92.6672 43.7096C92.2597 43.6296 91.7821 43.5896 91.2344 43.5896C90.5931 43.5896 90.0086 43.6596 89.4809 43.7997C88.9532 43.9398 88.499 44.1499 88.1183 44.4301C87.7375 44.7102 87.4403 45.0638 87.2265 45.4907C87.0127 45.9176 86.9059 46.4245 86.9059 47.0115V47.0516C86.9059 47.5852 87.0027 48.0555 87.1964 48.4624C87.3902 48.8693 87.654 49.2128 87.988 49.4929C88.322 49.7731 88.7128 49.9832 89.1603 50.1233C89.6079 50.2634 90.0855 50.3334 90.5931 50.3334ZM91.5149 48.2322C91.0206 48.2322 90.6198 48.1188 90.3126 47.892C90.0053 47.6652 89.8517 47.3451 89.8517 46.9315V46.8915C89.8517 46.4112 90.0387 46.0443 90.4128 45.7908C90.7868 45.5374 91.3012 45.4106 91.9558 45.4106C92.3299 45.4106 92.6806 45.4473 93.0079 45.5207C93.3352 45.5941 93.6325 45.6908 93.8996 45.8108V46.3512C93.8996 46.9115 93.6825 47.3651 93.2484 47.7119C92.8142 48.0588 92.2364 48.2322 91.5149 48.2322ZM102.456 50.1333V44.1499C102.456 43.4295 102.627 42.8858 102.967 42.519C103.308 42.1521 103.772 41.9687 104.36 41.9687C104.948 41.9687 105.402 42.1521 105.723 42.519C106.044 42.8858 106.204 43.4295 106.204 44.1499V50.1333H109.25V43.1893C109.25 41.9486 108.933 40.9748 108.298 40.2677C107.663 39.5606 106.765 39.2071 105.603 39.2071C105.215 39.2071 104.868 39.2538 104.561 39.3472C104.253 39.4405 103.973 39.5673 103.719 39.7274C103.465 39.8875 103.235 40.0709 103.028 40.2777C102.821 40.4845 102.63 40.7013 102.456 40.9281V39.4072H99.4105V50.1333H102.456ZM120.953 50.1333V44.1499C120.953 43.4295 121.123 42.8858 121.464 42.519C121.805 42.1521 122.269 41.9687 122.857 41.9687C123.444 41.9687 123.899 42.1521 124.219 42.519C124.54 42.8858 124.7 43.4295 124.7 44.1499V50.1333H127.746V43.1893C127.746 41.9486 127.429 40.9748 126.794 40.2677C126.16 39.5606 125.261 39.2071 124.099 39.2071C123.712 39.2071 123.364 39.2538 123.057 39.3472C122.75 39.4405 122.469 39.5673 122.215 39.7274C121.962 39.8875 121.731 40.0709 121.524 40.2777C121.317 40.4845 121.127 40.7013 120.953 40.9281V35.525H117.907V50.1333H120.953ZM133.959 50.3334C134.346 50.3334 134.693 50.2867 135.001 50.1933C135.308 50.1 135.588 49.9732 135.842 49.8131C136.096 49.653 136.327 49.4696 136.534 49.2628C136.741 49.056 136.931 48.8392 137.105 48.6124V50.1333H140.151V39.4072H137.105V45.3906C137.105 46.111 136.934 46.6547 136.594 47.0215C136.253 47.3884 135.789 47.5719 135.201 47.5719C134.613 47.5719 134.159 47.3884 133.838 47.0215C133.518 46.6547 133.357 46.111 133.357 45.3906V39.4072H130.311V46.3512C130.311 47.5919 130.629 48.5658 131.263 49.2728C131.898 49.9799 132.796 50.3334 133.959 50.3334ZM146.143 38.2265V35.525H142.936V38.2265H146.143ZM146.062 50.1333V39.4072H143.016V50.1333H146.062ZM152.695 50.3334C153.27 50.3334 153.808 50.2634 154.309 50.1233C154.81 49.9832 155.247 49.7731 155.621 49.4929C155.995 49.2128 156.286 48.8559 156.493 48.4223C156.7 47.9888 156.803 47.4718 156.803 46.8714V46.8314C156.803 46.3378 156.703 45.9176 156.503 45.5707C156.302 45.2238 156.049 44.9303 155.741 44.6902C155.434 44.4501 155.087 44.2466 154.699 44.0799C154.312 43.9131 153.931 43.7697 153.557 43.6496C153.263 43.5562 152.986 43.4628 152.725 43.3695C152.465 43.2761 152.234 43.1793 152.034 43.0793C151.834 42.9792 151.673 42.8725 151.553 42.7591C151.433 42.6457 151.373 42.5156 151.373 42.3689V42.3289C151.373 42.1154 151.466 41.9386 151.653 41.7986C151.84 41.6585 152.121 41.5884 152.495 41.5884C152.882 41.5884 153.33 41.6785 153.838 41.8586C154.345 42.0387 154.866 42.2822 155.401 42.589L156.563 40.4878C155.975 40.1009 155.331 39.7974 154.629 39.5773C153.928 39.3572 153.236 39.2471 152.555 39.2471C152.007 39.2471 151.496 39.3205 151.022 39.4672C150.548 39.614 150.134 39.8341 149.78 40.1276C149.426 40.4211 149.145 40.778 148.938 41.1982C148.731 41.6184 148.627 42.1021 148.627 42.649V42.6891C148.627 43.2094 148.724 43.6496 148.918 44.0098C149.112 44.37 149.362 44.6735 149.669 44.9203C149.977 45.1671 150.321 45.3673 150.701 45.5207C151.082 45.6741 151.46 45.8042 151.834 45.9109C152.128 46.0043 152.408 46.091 152.675 46.1711C152.943 46.2511 153.18 46.3345 153.387 46.4212C153.594 46.5079 153.757 46.6113 153.878 46.7314C153.998 46.8514 154.058 46.9915 154.058 47.1516V47.1916C154.058 47.4318 153.955 47.6252 153.747 47.772C153.54 47.9187 153.216 47.9921 152.776 47.9921C152.268 47.9921 151.723 47.8854 151.142 47.6719C150.561 47.4585 149.977 47.1383 149.389 46.7114L148.086 48.7125C148.808 49.2728 149.566 49.6831 150.361 49.9432C151.156 50.2034 151.934 50.3334 152.695 50.3334Z" fill="#F2F6F6"/>
</g>
</svg>
