<svg width="160" height="65" viewBox="0 0 160 65" fill="none" xmlns="http://www.w3.org/2000/svg">
<path fill-rule="evenodd" clip-rule="evenodd" d="M71.8663 62.084H2.81856V61.3333C2.81856 61.0337 2.87868 60.603 2.93374 60.4081C3.71139 59.508 9.14752 53.2656 9.73626 52.5928C9.90844 52.3964 10.024 52.3089 10.9682 52.3089H63.7297C64.6737 52.3089 64.7893 52.3964 64.9617 52.5928C65.5911 53.313 71.0091 59.5346 71.7642 60.4081C71.8191 60.6026 71.8792 61.0337 71.8792 61.3333L71.8663 62.084ZM11.8694 17.3381H62.8284C63.1391 17.3381 63.3918 17.5903 63.3918 17.9004V49.4947H11.306V17.9004C11.306 17.5903 11.5587 17.3381 11.8694 17.3381ZM74.0187 58.7105C73.8524 58.5094 67.49 51.2052 67.0849 50.7422C66.8071 50.4242 66.5115 50.1887 66.2104 50.0123V17.9004C66.2104 16.0383 64.6934 14.5237 62.8284 14.5237H11.8694C10.0044 14.5237 8.48739 16.0383 8.48739 17.9004V50.0123C8.18641 50.1887 7.89107 50.4238 7.61344 50.7418C7.16946 51.2487 0.851385 58.502 0.679396 58.7101C0.0326858 59.4915 0 61.0326 0 61.3333V62.3028C0 62.582 0.0400789 62.8507 0.107007 63.0691C0.125879 63.1429 0.147086 63.2119 0.170238 63.2781L0.202924 63.3691C0.383668 63.8425 0.874927 64.664 2.08585 64.8456C2.26991 64.8798 2.45727 64.8985 2.64462 64.8985H72.0529C72.2403 64.8985 72.4278 64.8798 72.5627 64.854C73.8213 64.664 74.3133 63.8433 74.494 63.3708L74.5248 63.2865C74.5468 63.2233 74.5658 63.1641 74.5756 63.1248C74.6577 62.8507 74.6978 62.582 74.6978 62.3028V61.3333C74.6978 61.0326 74.6651 59.4915 74.0187 58.7105Z" fill="#00AFAA"/>
<path fill-rule="evenodd" clip-rule="evenodd" d="M46.9774 58.9252V57.7193C46.9797 57.7189 46.9817 57.7189 46.9836 57.7189L46.9774 58.9252ZM29.1061 57.7189C29.5189 56.955 29.9141 56.2697 30.0528 56.0945C30.089 56.0785 30.2047 56.0587 30.5476 56.0587H44.1479C44.4907 56.0587 44.6063 56.0785 44.6571 56.1075C44.7765 56.2621 45.0841 56.7997 45.5791 57.7189H29.1061ZM46.4925 54.5392C45.7122 53.6463 44.733 53.6463 44.1479 53.6463H30.5476C29.9625 53.6463 28.9833 53.6463 28.2026 54.54C27.6996 55.116 26.3472 57.7795 26.3336 57.8073C26.0256 58.4171 26.0157 58.9635 26.3044 59.4311C26.5015 59.7509 26.9064 60.1315 27.7175 60.1315H46.9774C47.8397 60.1315 48.2383 59.6853 48.3992 59.4195C48.5975 59.0923 48.75 58.5438 48.3519 57.7879C47.2251 55.6509 46.7737 54.8619 46.4925 54.5392Z" fill="#00AFAA"/>
<mask id="mask0_1_69" style="mask-type:alpha" maskUnits="userSpaceOnUse" x="13" y="0" width="49" height="47">
<path d="M13.2151 0.942871H61.4827V46.246H13.2151V0.942871Z" fill="white"/>
</mask>
<g mask="url(#mask0_1_69)">
<path fill-rule="evenodd" clip-rule="evenodd" d="M57.6578 46.246H17.0398C15.6937 46.246 14.4465 45.539 13.7563 44.3851C13.066 43.2307 13.0341 41.799 13.6722 40.6158L33.9811 2.95156C34.6483 1.71454 35.9417 0.942841 37.3489 0.942841C38.756 0.942841 40.0494 1.71415 40.7165 2.95156L61.0256 40.6158C61.6638 41.799 61.6319 43.2307 60.9414 44.3851C60.2513 45.539 59.0042 46.246 57.6578 46.246Z" fill="#FEFEFE"/>
</g>
<path fill-rule="evenodd" clip-rule="evenodd" d="M37.3489 4.7623L17.0399 42.4261H57.6578L37.3489 4.7623Z" fill="#FEFEFE"/>
<path fill-rule="evenodd" clip-rule="evenodd" d="M19.327 41.0621H55.3708L37.3489 7.63954L19.327 41.0621ZM57.6578 43.7903H17.04C16.5592 43.7903 16.1139 43.5377 15.8672 43.1256C15.6207 42.7134 15.6094 42.202 15.8372 41.7792L36.1461 4.11559C36.3845 3.67378 36.8463 3.39828 37.3489 3.39828C37.8514 3.39828 38.3133 3.67378 38.5516 4.11559L58.8606 41.7792C59.0886 42.202 59.0771 42.7134 58.8306 43.1256C58.5839 43.5377 58.1386 43.7903 57.6578 43.7903Z" fill="#F8703B"/>
<path fill-rule="evenodd" clip-rule="evenodd" d="M37.3411 32.1053C36.2187 32.1053 35.3091 31.1969 35.3091 30.0762V17.2951C35.3091 16.1745 36.2187 15.266 37.3411 15.266C38.4635 15.266 39.373 16.1745 39.373 17.2951V30.0762C39.373 31.1969 38.4635 32.1053 37.3411 32.1053Z" fill="#F8703B"/>
<path fill-rule="evenodd" clip-rule="evenodd" d="M37.3411 38.3805C36.1321 38.3805 35.1519 37.4016 35.1519 36.1944C35.1519 34.9869 36.1321 34.0081 37.3411 34.0081C38.5501 34.0081 39.5302 34.9869 39.5302 36.1944C39.5302 37.4016 38.5501 38.3805 37.3411 38.3805Z" fill="#F8703B"/>
<mask id="mask1_1_69" style="mask-type:alpha" maskUnits="userSpaceOnUse" x="0" y="0" width="160" height="65">
<path d="M0 64.8986H159.314V0.942871H0V64.8986Z" fill="white"/>
</mask>
<g mask="url(#mask1_1_69)">
</g>
<path d="M79.0304 31.8343V22.7491L82.9381 28.6725H83.0182L86.966 22.6891V31.8343H90.032V17.8263H86.7055L83.0182 23.7497L79.331 17.8263H76.0044V31.8343H79.0304ZM98.3484 32.0744C99.1901 32.0744 99.9649 31.9277 100.673 31.6342C101.381 31.3407 101.996 30.9404 102.517 30.4335C103.038 29.9265 103.445 29.3362 103.739 28.6625C104.033 27.9888 104.18 27.265 104.18 26.4912V26.4512C104.18 25.6774 104.033 24.9537 103.739 24.28C103.445 23.6063 103.041 23.0193 102.527 22.519C102.012 22.0187 101.401 21.6251 100.693 21.3383C99.985 21.0515 99.2168 20.9081 98.3885 20.9081C97.5468 20.9081 96.772 21.0548 96.0639 21.3483C95.3558 21.6418 94.7413 22.042 94.2203 22.549C93.6992 23.0559 93.2918 23.6463 92.9979 24.32C92.704 24.9937 92.557 25.7175 92.557 26.4912V26.5313C92.557 27.305 92.704 28.0288 92.9979 28.7025C93.2918 29.3762 93.6959 29.9632 94.2103 30.4635C94.7246 30.9638 95.3358 31.3574 96.0439 31.6442C96.7519 31.931 97.5201 32.0744 98.3484 32.0744ZM98.3885 29.4529C97.961 29.4529 97.5769 29.3729 97.2362 29.2128C96.8955 29.0527 96.5983 28.8359 96.3445 28.5624C96.0906 28.2889 95.8969 27.9754 95.7633 27.6219C95.6297 27.2684 95.5629 26.8915 95.5629 26.4912V26.4512C95.5629 26.051 95.6264 25.6741 95.7533 25.3206C95.8802 24.967 96.0639 24.6569 96.3044 24.39C96.5448 24.1232 96.8354 23.9131 97.1761 23.7597C97.5168 23.6063 97.9075 23.5296 98.3484 23.5296C98.7625 23.5296 99.1433 23.6096 99.4906 23.7697C99.838 23.9298 100.139 24.1466 100.392 24.4201C100.646 24.6935 100.84 25.0071 100.974 25.3606C101.107 25.7141 101.174 26.091 101.174 26.4912V26.5313C101.174 26.9315 101.11 27.3084 100.984 27.6619C100.857 28.0154 100.673 28.3256 100.433 28.5924C100.192 28.8593 99.9015 29.0694 99.5608 29.2228C99.2201 29.3762 98.8293 29.4529 98.3885 29.4529ZM109.43 31.8343V25.8509C109.43 25.1305 109.601 24.5868 109.941 24.2199C110.282 23.8531 110.746 23.6696 111.334 23.6696C111.922 23.6696 112.376 23.8531 112.697 24.2199C113.017 24.5868 113.178 25.1305 113.178 25.8509V31.8343H116.224V24.8903C116.224 23.6496 115.906 22.6757 115.272 21.9687C114.637 21.2616 113.739 20.9081 112.576 20.9081C112.189 20.9081 111.842 20.9547 111.534 21.0481C111.227 21.1415 110.947 21.2683 110.693 21.4284C110.439 21.5884 110.208 21.7719 110.001 21.9787C109.794 22.1854 109.604 22.4022 109.43 22.629V21.1082H106.384V31.8343H109.43ZM122.496 32.0144C123.004 32.0144 123.451 31.9577 123.839 31.8443C124.226 31.7309 124.58 31.5808 124.901 31.394V28.9526C124.433 29.2061 123.932 29.3329 123.398 29.3329C122.743 29.3329 122.416 28.986 122.416 28.2923V23.7097H124.941V21.1082H122.416V18.3666H119.37V21.1082H118.087V23.7097H119.37V28.7926C119.37 29.4196 119.447 29.9365 119.6 30.3434C119.754 30.7503 119.968 31.0805 120.242 31.334C120.515 31.5875 120.843 31.7643 121.223 31.8643C121.604 31.9644 122.028 32.0144 122.496 32.0144ZM132.275 32.0744C133.25 32.0744 134.099 31.8977 134.82 31.5441C135.542 31.1906 136.156 30.7003 136.664 30.0733L134.92 28.5324C134.493 28.9193 134.079 29.1995 133.678 29.3729C133.277 29.5463 132.823 29.633 132.315 29.633C131.634 29.633 131.063 29.4563 130.602 29.1027C130.141 28.7492 129.837 28.2256 129.69 27.5318H137.165C137.178 27.3851 137.188 27.245 137.195 27.1116C137.202 26.9782 137.205 26.8514 137.205 26.7314C137.205 25.9709 137.101 25.2405 136.894 24.5401C136.687 23.8397 136.367 23.2194 135.932 22.6791C135.498 22.1388 134.954 21.7085 134.299 21.3883C133.645 21.0681 132.87 20.9081 131.975 20.9081C131.186 20.9081 130.468 21.0548 129.82 21.3483C129.172 21.6418 128.615 22.042 128.147 22.549C127.679 23.0559 127.315 23.6496 127.055 24.33C126.794 25.0104 126.664 25.7308 126.664 26.4912V26.5313C126.664 27.3584 126.804 28.1088 127.085 28.7826C127.366 29.4563 127.756 30.0399 128.257 30.5336C128.758 31.0272 129.353 31.4074 130.041 31.6742C130.729 31.941 131.474 32.0744 132.275 32.0744ZM134.239 25.6308H129.65C129.77 24.937 130.027 24.3834 130.422 23.9698C130.816 23.5562 131.333 23.3494 131.975 23.3494C132.616 23.3494 133.13 23.5596 133.518 23.9798C133.905 24.4 134.146 24.9504 134.239 25.6308ZM143.036 32.0344C143.424 32.0344 143.771 31.9877 144.078 31.8943C144.386 31.8009 144.666 31.6742 144.92 31.5141C145.174 31.354 145.404 31.1706 145.611 30.9638C145.819 30.757 146.009 30.5402 146.183 30.3134V31.8343H149.229V21.1082H146.183V27.0916C146.183 27.812 146.012 28.3556 145.672 28.7225C145.331 29.0894 144.867 29.2728 144.279 29.2728C143.691 29.2728 143.237 29.0894 142.916 28.7225C142.596 28.3556 142.435 27.812 142.435 27.0916V21.1082H139.389V28.0521C139.389 29.2928 139.706 30.2667 140.341 30.9738C140.976 31.6809 141.874 32.0344 143.036 32.0344ZM155 31.8343V27.872C155 26.578 155.291 25.6241 155.872 25.0104C156.453 24.3967 157.251 24.0899 158.266 24.0899H158.427V20.9081C157.518 20.868 156.797 21.0681 156.262 21.5084C155.728 21.9486 155.307 22.5357 155 23.2694V21.1082H151.954V31.8343H155ZM78.7298 49.7144C79.4779 49.7144 80.1125 49.591 80.6335 49.3442C81.1545 49.0974 81.6021 48.7672 81.9762 48.3536V49.5143H84.922V43.2907C84.922 42.5703 84.8284 41.92 84.6414 41.3396C84.4544 40.7593 84.1605 40.269 83.7597 39.8688C83.3722 39.4819 82.8813 39.1851 82.2868 38.9783C81.6923 38.7715 80.9742 38.6681 80.1325 38.6681C79.2241 38.6681 78.4492 38.7481 77.808 38.9082C77.1667 39.0683 76.5521 39.2751 75.9643 39.5286L76.7258 41.8499C77.2201 41.6631 77.6911 41.5197 78.1386 41.4197C78.5862 41.3196 79.1038 41.2696 79.6917 41.2696C80.4532 41.2696 81.0276 41.4363 81.4151 41.7699C81.8025 42.1034 81.9962 42.5903 81.9962 43.2307V43.4108C81.6088 43.2774 81.2113 43.1707 80.8039 43.0906C80.3964 43.0106 79.9188 42.9706 79.371 42.9706C78.7298 42.9706 78.1453 43.0406 77.6176 43.1807C77.0899 43.3208 76.6356 43.5309 76.2549 43.811C75.8741 44.0912 75.5769 44.4447 75.3631 44.8716C75.1494 45.2986 75.0425 45.8055 75.0425 46.3925V46.4325C75.0425 46.9662 75.1394 47.4364 75.3331 47.8433C75.5268 48.2502 75.7906 48.5938 76.1246 48.8739C76.4586 49.1541 76.8494 49.3642 77.2969 49.5043C77.7445 49.6444 78.2221 49.7144 78.7298 49.7144ZM79.6516 47.6132C79.1573 47.6132 78.7565 47.4998 78.4492 47.273C78.1419 47.0462 77.9883 46.726 77.9883 46.3125V46.2724C77.9883 45.7922 78.1753 45.4253 78.5494 45.1718C78.9235 44.9183 79.4378 44.7916 80.0925 44.7916C80.4665 44.7916 80.8172 44.8283 81.1445 44.9017C81.4718 44.975 81.7691 45.0718 82.0363 45.1918V45.7321C82.0363 46.2925 81.8192 46.746 81.385 47.0929C80.9508 47.4398 80.373 47.6132 79.6516 47.6132ZM90.5931 49.7144C91.3413 49.7144 91.9758 49.591 92.4969 49.3442C93.0179 49.0974 93.4655 48.7672 93.8395 48.3536V49.5143H96.7853V43.2907C96.7853 42.5703 96.6918 41.92 96.5048 41.3396C96.3177 40.7593 96.0238 40.269 95.623 39.8688C95.2356 39.4819 94.7446 39.1851 94.1501 38.9783C93.5556 38.7715 92.8375 38.6681 91.9959 38.6681C91.0874 38.6681 90.3126 38.7481 89.6713 38.9082C89.0301 39.0683 88.4155 39.2751 87.8277 39.5286L88.5892 41.8499C89.0835 41.6631 89.5544 41.5197 90.002 41.4197C90.4495 41.3196 90.9672 41.2696 91.555 41.2696C92.3165 41.2696 92.891 41.4363 93.2784 41.7699C93.6658 42.1034 93.8596 42.5903 93.8596 43.2307V43.4108C93.4721 43.2774 93.0747 43.1707 92.6672 43.0906C92.2597 43.0106 91.7821 42.9706 91.2344 42.9706C90.5931 42.9706 90.0086 43.0406 89.4809 43.1807C88.9532 43.3208 88.499 43.5309 88.1183 43.811C87.7375 44.0912 87.4403 44.4447 87.2265 44.8716C87.0127 45.2986 86.9059 45.8055 86.9059 46.3925V46.4325C86.9059 46.9662 87.0027 47.4364 87.1964 47.8433C87.3902 48.2502 87.654 48.5938 87.988 48.8739C88.322 49.1541 88.7128 49.3642 89.1603 49.5043C89.6079 49.6444 90.0855 49.7144 90.5931 49.7144ZM91.5149 47.6132C91.0206 47.6132 90.6198 47.4998 90.3126 47.273C90.0053 47.0462 89.8517 46.726 89.8517 46.3125V46.2724C89.8517 45.7922 90.0387 45.4253 90.4128 45.1718C90.7868 44.9183 91.3012 44.7916 91.9558 44.7916C92.3299 44.7916 92.6806 44.8283 93.0079 44.9017C93.3352 44.975 93.6325 45.0718 93.8996 45.1918V45.7321C93.8996 46.2925 93.6825 46.746 93.2484 47.0929C92.8142 47.4398 92.2364 47.6132 91.5149 47.6132ZM102.456 49.5143V43.5309C102.456 42.8105 102.627 42.2668 102.967 41.8999C103.308 41.5331 103.772 41.3496 104.36 41.3496C104.948 41.3496 105.402 41.5331 105.723 41.8999C106.044 42.2668 106.204 42.8105 106.204 43.5309V49.5143H109.25V42.5703C109.25 41.3296 108.933 40.3557 108.298 39.6487C107.663 38.9416 106.765 38.5881 105.603 38.5881C105.215 38.5881 104.868 38.6348 104.561 38.7281C104.253 38.8215 103.973 38.9483 103.719 39.1084C103.465 39.2684 103.235 39.4519 103.028 39.6587C102.821 39.8654 102.63 40.0822 102.456 40.309V38.7882H99.4105V49.5143H102.456ZM120.953 49.5143V43.5309C120.953 42.8105 121.123 42.2668 121.464 41.8999C121.805 41.5331 122.269 41.3496 122.857 41.3496C123.444 41.3496 123.899 41.5331 124.219 41.8999C124.54 42.2668 124.7 42.8105 124.7 43.5309V49.5143H127.746V42.5703C127.746 41.3296 127.429 40.3557 126.794 39.6487C126.16 38.9416 125.261 38.5881 124.099 38.5881C123.712 38.5881 123.364 38.6348 123.057 38.7281C122.75 38.8215 122.469 38.9483 122.215 39.1084C121.962 39.2684 121.731 39.4519 121.524 39.6587C121.317 39.8654 121.127 40.0822 120.953 40.309V34.906H117.907V49.5143H120.953ZM133.959 49.7144C134.346 49.7144 134.693 49.6677 135.001 49.5743C135.308 49.4809 135.588 49.3542 135.842 49.1941C136.096 49.034 136.327 48.8506 136.534 48.6438C136.741 48.437 136.931 48.2202 137.105 47.9934V49.5143H140.151V38.7882H137.105V44.7716C137.105 45.492 136.934 46.0356 136.594 46.4025C136.253 46.7694 135.789 46.9528 135.201 46.9528C134.613 46.9528 134.159 46.7694 133.838 46.4025C133.518 46.0356 133.357 45.492 133.357 44.7716V38.7882H130.311V45.7321C130.311 46.9728 130.629 47.9467 131.263 48.6538C131.898 49.3609 132.796 49.7144 133.959 49.7144ZM146.143 37.6075V34.906H142.936V37.6075H146.143ZM146.062 49.5143V38.7882H143.016V49.5143H146.062ZM152.695 49.7144C153.27 49.7144 153.808 49.6444 154.309 49.5043C154.81 49.3642 155.247 49.1541 155.621 48.8739C155.995 48.5938 156.286 48.2369 156.493 47.8033C156.7 47.3697 156.803 46.8528 156.803 46.2524V46.2124C156.803 45.7188 156.703 45.2986 156.503 44.9517C156.302 44.6048 156.049 44.3113 155.741 44.0712C155.434 43.831 155.087 43.6276 154.699 43.4608C154.312 43.2941 153.931 43.1507 153.557 43.0306C153.263 42.9372 152.986 42.8438 152.725 42.7504C152.465 42.657 152.234 42.5603 152.034 42.4603C151.834 42.3602 151.673 42.2535 151.553 42.1401C151.433 42.0267 151.373 41.8966 151.373 41.7499V41.7098C151.373 41.4964 151.466 41.3196 151.653 41.1795C151.84 41.0395 152.121 40.9694 152.495 40.9694C152.882 40.9694 153.33 41.0595 153.838 41.2396C154.345 41.4197 154.866 41.6631 155.401 41.97L156.563 39.8688C155.975 39.4819 155.331 39.1784 154.629 38.9583C153.928 38.7381 153.236 38.6281 152.555 38.6281C152.007 38.6281 151.496 38.7015 151.022 38.8482C150.548 38.995 150.134 39.2151 149.78 39.5086C149.426 39.8021 149.145 40.1589 148.938 40.5792C148.731 40.9994 148.627 41.483 148.627 42.03V42.07C148.627 42.5903 148.724 43.0306 148.918 43.3908C149.112 43.751 149.362 44.0545 149.669 44.3013C149.977 44.5481 150.321 44.7482 150.701 44.9017C151.082 45.0551 151.46 45.1852 151.834 45.2919C152.128 45.3853 152.408 45.472 152.675 45.552C152.943 45.6321 153.18 45.7155 153.387 45.8022C153.594 45.8889 153.757 45.9923 153.878 46.1124C153.998 46.2324 154.058 46.3725 154.058 46.5326V46.5726C154.058 46.8128 153.955 47.0062 153.747 47.1529C153.54 47.2997 153.216 47.3731 152.776 47.3731C152.268 47.3731 151.723 47.2663 151.142 47.0529C150.561 46.8394 149.977 46.5193 149.389 46.0923L148.086 48.0935C148.808 48.6538 149.566 49.064 150.361 49.3242C151.156 49.5843 151.934 49.7144 152.695 49.7144Z" fill="black"/>
</svg>
