<svg width="160" height="35" viewBox="0 0 160 35" fill="none" xmlns="http://www.w3.org/2000/svg">
<g clip-path="url(#clip0_102_602)">
<path d="M66.5403 6.91112V27.3851H62.9858V11.3187H62.9384L56.5877 27.3851H54.218L47.7251 11.3187H47.6777V27.3851H44.4076V6.91112H49.5261L55.4029 22.077H55.4976L61.7062 6.91112H66.5403V6.91112ZM69.4787 8.4751C69.4787 7.90638 69.6683 7.43245 70.0948 7.0533C70.5213 6.67415 70.9953 6.48458 71.564 6.48458C72.1801 6.48458 72.7014 6.67415 73.0806 7.0533C73.4597 7.43245 73.6967 7.90638 73.6967 8.4751C73.6967 9.04382 73.5071 9.51775 73.0806 9.8969C72.654 10.276 72.1801 10.4656 71.564 10.4656C70.9479 10.4656 70.4739 10.276 70.0948 9.8969C69.7156 9.47036 69.4787 8.99643 69.4787 8.4751ZM73.3175 12.6931V27.3851H69.8578V12.6931H73.3175ZM83.7915 24.8732C84.3128 24.8732 84.8815 24.7784 85.4976 24.4941C86.1138 24.2571 86.6825 23.9253 87.2038 23.5462V26.7689C86.6351 27.1007 86.019 27.3377 85.3081 27.4798C84.5972 27.622 83.8389 27.7168 82.9858 27.7168C80.8057 27.7168 79.0521 27.0533 77.7251 25.6789C76.3507 24.3045 75.6872 22.5509 75.6872 20.4656C75.6872 18.096 76.3981 16.1528 77.7725 14.6362C79.1469 13.1196 81.0901 12.3614 83.6493 12.3614C84.3128 12.3614 84.9763 12.4561 85.5924 12.5983C86.2559 12.7405 86.7773 12.9775 87.1564 13.167V16.4846C86.6351 16.1054 86.0664 15.7737 85.545 15.5841C84.9763 15.3945 84.4076 15.2524 83.8389 15.2524C82.4645 15.2524 81.3744 15.6789 80.5213 16.5794C79.6683 17.4798 79.2891 18.6647 79.2891 20.1813C79.2891 21.6505 79.7156 22.8353 80.5213 23.641C81.327 24.4467 82.4171 24.8732 83.7915 24.8732ZM97.0142 12.4561C97.2986 12.4561 97.5356 12.4561 97.7725 12.5035C98.0095 12.5509 98.1991 12.5983 98.3412 12.6457V16.1528C98.1517 16.0106 97.9147 15.8685 97.5356 15.7737C97.1564 15.6789 96.7773 15.5841 96.2559 15.5841C95.4029 15.5841 94.692 15.9633 94.1232 16.6742C93.5545 17.3851 93.2228 18.4751 93.2228 19.9917V27.3851H89.763V12.6931H93.2228V15.0154H93.2702C93.6019 14.2097 94.0758 13.5936 94.692 13.1196C95.3555 12.6931 96.1138 12.4561 97.0142 12.4561ZM98.5308 20.276C98.5308 17.859 99.2417 15.9159 100.569 14.4941C101.943 13.0723 103.839 12.3614 106.256 12.3614C108.531 12.3614 110.332 13.0249 111.611 14.3993C112.891 15.7737 113.555 17.622 113.555 19.9443C113.555 22.314 112.844 24.2097 111.517 25.6315C110.142 27.0533 108.294 27.7642 105.924 27.7642C103.649 27.7642 101.848 27.1007 100.521 25.7737C99.1943 24.3993 98.5308 22.5509 98.5308 20.276ZM102.133 20.1339C102.133 21.6505 102.464 22.8353 103.175 23.641C103.886 24.4467 104.882 24.8732 106.161 24.8732C107.393 24.8732 108.389 24.4941 109.052 23.641C109.716 22.8353 110.047 21.6505 110.047 20.0391C110.047 18.4751 109.716 17.2903 109.052 16.4372C108.389 15.6315 107.393 15.205 106.209 15.205C104.929 15.205 103.981 15.6315 103.27 16.4846C102.464 17.3851 102.133 18.5699 102.133 20.1339ZM118.72 16.5794C118.72 17.0533 118.863 17.4798 119.194 17.7642C119.526 18.0486 120.19 18.3803 121.28 18.8069C122.654 19.3756 123.649 19.9917 124.171 20.6552C124.739 21.3661 125.024 22.1718 125.024 23.167C125.024 24.5415 124.502 25.6315 123.412 26.4846C122.37 27.3377 120.9 27.7168 119.1 27.7168C118.483 27.7168 117.82 27.622 117.062 27.4798C116.303 27.3377 115.687 27.1481 115.166 26.9111V23.4988C115.782 23.9253 116.493 24.3045 117.204 24.5415C117.915 24.7784 118.578 24.9206 119.194 24.9206C119.953 24.9206 120.569 24.8258 120.9 24.5888C121.28 24.3519 121.469 24.0201 121.469 23.4988C121.469 23.0249 121.28 22.6457 120.9 22.2666C120.521 21.9348 119.763 21.5557 118.72 21.1291C117.441 20.6078 116.54 19.9917 116.019 19.3282C115.498 18.6647 115.213 17.8116 115.213 16.7689C115.213 15.4419 115.735 14.3519 116.777 13.4988C117.82 12.6457 119.194 12.2192 120.853 12.2192C121.374 12.2192 121.943 12.2666 122.559 12.4087C123.175 12.5509 123.744 12.6931 124.171 12.8353V16.2002C123.697 15.9159 123.175 15.6315 122.559 15.3945C121.943 15.1576 121.327 15.0628 120.758 15.0628C120.095 15.0628 119.573 15.205 119.242 15.4419C118.91 15.7737 118.72 16.1054 118.72 16.5794ZM126.493 20.276C126.493 17.859 127.204 15.9159 128.531 14.4941C129.905 13.0723 131.801 12.3614 134.218 12.3614C136.493 12.3614 138.294 13.0249 139.573 14.3993C140.853 15.7737 141.517 17.622 141.517 19.9443C141.517 22.314 140.806 24.2097 139.479 25.6315C138.104 27.0533 136.256 27.7642 133.886 27.7642C131.611 27.7642 129.81 27.1007 128.483 25.7737C127.204 24.3993 126.493 22.5509 126.493 20.276ZM130.095 20.1339C130.095 21.6505 130.427 22.8353 131.137 23.641C131.848 24.4467 132.844 24.8732 134.123 24.8732C135.355 24.8732 136.351 24.4941 137.014 23.641C137.678 22.8353 138.009 21.6505 138.009 20.0391C138.009 18.4751 137.678 17.2903 137.014 16.4372C136.351 15.6315 135.355 15.205 134.171 15.205C132.891 15.205 131.943 15.6315 131.232 16.4846C130.474 17.3851 130.095 18.5699 130.095 20.1339ZM153.033 15.5367H147.867V27.3851H144.36V15.5367H141.896V12.6931H144.36V10.6552C144.36 9.13861 144.882 7.85899 145.877 6.86373C146.872 5.86847 148.152 5.39453 149.716 5.39453C150.142 5.39453 150.521 5.44192 150.853 5.44192C151.185 5.44192 151.469 5.53671 151.706 5.6315V8.61728C151.611 8.56989 151.374 8.4751 151.09 8.38031C150.806 8.28553 150.474 8.23813 150.095 8.23813C149.384 8.23813 148.815 8.4751 148.436 8.90164C148.057 9.32818 147.867 10.0391 147.867 10.8922V12.6457H153.033V9.32818L156.493 8.28553V12.6457H160V15.4893H156.493V22.3614C156.493 23.2618 156.682 23.8779 156.967 24.2571C157.299 24.6362 157.82 24.8258 158.531 24.8258C158.72 24.8258 158.957 24.7784 159.242 24.6836C159.526 24.5888 159.763 24.4941 159.953 24.3519V27.1955C159.716 27.3377 159.384 27.4324 158.863 27.5272C158.341 27.622 157.867 27.6694 157.346 27.6694C155.877 27.6694 154.787 27.2903 154.076 26.532C153.365 25.7737 152.986 24.5888 152.986 23.0249L153.033 15.5367Z" fill="#737373"/>
<path d="M16.2085 0.0864868H0V16.295H16.2085V0.0864868Z" fill="#F25022"/>
<path d="M34.1232 0.0864868H17.9147V16.295H34.1232V0.0864868Z" fill="#7FBA00"/>
<path d="M16.2085 18.0012H0V34.2097H16.2085V18.0012Z" fill="#00A4EF"/>
<path d="M34.1232 18.0012H17.9147V34.2097H34.1232V18.0012Z" fill="#FFB900"/>
</g>
<defs>
<clipPath id="clip0_102_602">
<rect width="160" height="34.1232" fill="white" transform="translate(0 0.0864868)"/>
</clipPath>
</defs>
</svg>
