<svg width="13" height="13" viewBox="0 0 13 13" fill="none" xmlns="http://www.w3.org/2000/svg">
<path d="M6.5 9.25C6.76522 9.25 7.01957 9.14464 7.20711 8.95711C7.39464 8.76957 7.5 8.51522 7.5 8.25C7.5 7.98478 7.39464 7.73043 7.20711 7.54289C7.01957 7.35536 6.76522 7.25 6.5 7.25C6.23478 7.25 5.98043 7.35536 5.79289 7.54289C5.60536 7.73043 5.5 7.98478 5.5 8.25C5.5 8.51522 5.60536 8.76957 5.79289 8.95711C5.98043 9.14464 6.23478 9.25 6.5 9.25ZM9.5 4.75C9.76522 4.75 10.0196 4.85536 10.2071 5.04289C10.3946 5.23043 10.5 5.48478 10.5 5.75V10.75C10.5 11.0152 10.3946 11.2696 10.2071 11.4571C10.0196 11.6446 9.76522 11.75 9.5 11.75H3.5C3.23478 11.75 2.98043 11.6446 2.79289 11.4571C2.60536 11.2696 2.5 11.0152 2.5 10.75V5.75C2.5 5.48478 2.60536 5.23043 2.79289 5.04289C2.98043 4.85536 3.23478 4.75 3.5 4.75H4V3.75C4 3.08696 4.26339 2.45107 4.73223 1.98223C5.20107 1.51339 5.83696 1.25 6.5 1.25C6.8283 1.25 7.15339 1.31466 7.45671 1.4403C7.76002 1.56594 8.03562 1.75009 8.26777 1.98223C8.49991 2.21438 8.68406 2.48998 8.8097 2.79329C8.93534 3.09661 9 3.4217 9 3.75V4.75H9.5ZM6.5 2.25C6.10218 2.25 5.72064 2.40804 5.43934 2.68934C5.15804 2.97064 5 3.35218 5 3.75V4.75H8V3.75C8 3.35218 7.84196 2.97064 7.56066 2.68934C7.27936 2.40804 6.89782 2.25 6.5 2.25Z" fill="white"/>
</svg>
