<svg width="33" height="32" viewBox="0 0 33 32" fill="none" xmlns="http://www.w3.org/2000/svg">
<path d="M30.6579 12.4463C30.0798 11.8339 29.8135 10.9991 29.9314 10.1526L30.0379 9.38022C30.3574 7.067 28.8513 4.93712 26.6073 4.53533L25.858 4.3988C25.0403 4.25057 24.3443 3.73565 23.9564 2.98279L23.5988 2.29623C22.5301 0.232669 20.0922 -0.582613 18.0459 0.447217L17.3613 0.786593C16.6159 1.16108 15.7563 1.16108 15.0109 0.786593L14.3301 0.443317C12.2839 -0.582613 9.84593 0.228768 8.77718 2.29233L8.41967 2.97888C8.02792 3.73175 7.33571 4.25057 6.51799 4.3949L5.76873 4.53143C3.52476 4.93322 2.01863 7.0631 2.33811 9.37632L2.4446 10.1487C2.56251 10.9952 2.29627 11.83 1.71816 12.4424L1.1895 13.0002C-0.396499 14.6776 -0.396499 17.3107 1.1895 18.9881L1.71816 19.5498C2.29627 20.1622 2.56251 20.997 2.4446 21.8435L2.33811 22.6159C2.01863 24.9291 3.52476 27.059 5.76873 27.4608L6.51799 27.5973C7.33571 27.7455 8.03173 28.2604 8.41967 29.0133L8.77718 29.6999C9.53405 31.1588 10.9717 31.9936 12.4778 31.9936C13.0978 31.9936 13.733 31.8492 14.3301 31.5489L15.0109 31.2134C15.7563 30.8389 16.6159 30.8389 17.3613 31.2134L18.0421 31.5567C20.0884 32.5826 22.5263 31.7712 23.595 29.7077L23.9526 29.0211C24.3443 28.2682 25.0365 27.7494 25.8542 27.6051L26.6035 27.4686C28.8475 27.0668 30.3536 24.9369 30.0341 22.6237L29.9276 21.8513C29.8097 21.0048 30.076 20.17 30.6541 19.5576L31.1827 18.9998C32.7687 17.3224 32.7687 14.6893 31.1827 13.0119L30.6579 12.4463ZM30.0912 17.9114L29.5625 18.4693C28.6573 19.4289 28.2389 20.7435 28.4215 22.0659L28.528 22.8382C28.7334 24.3128 27.7711 25.6703 26.3411 25.9277L25.5918 26.0643C24.3063 26.2944 23.2185 27.1058 22.61 28.2878L22.2525 28.9743C21.5717 30.2889 20.0161 30.8116 18.7115 30.1563L18.0307 29.813C16.8593 29.224 15.5129 29.224 14.3415 29.813L13.6607 30.1563C12.3561 30.8116 10.8006 30.2928 10.1198 28.9743L9.76225 28.2878C9.14991 27.1058 8.06215 26.2944 6.78042 26.0643L6.03116 25.9277C4.6011 25.6703 3.63886 24.3128 3.84424 22.8382L3.95073 22.0659C4.13329 20.7396 3.71873 19.4289 2.80973 18.4693L2.28106 17.9075C1.26937 16.8348 1.26937 15.1613 2.28106 14.0886L2.80973 13.5307C3.71492 12.5711 4.13329 11.2565 3.95073 9.93414L3.84424 9.16177C3.63886 7.68724 4.6011 6.32973 6.03116 6.07228L6.78042 5.93575C8.06596 5.7056 9.15372 4.89421 9.76225 3.71225L10.1198 3.02569C10.6028 2.09339 11.5194 1.56287 12.4778 1.56287C12.8734 1.56287 13.2765 1.65259 13.6607 1.84373L14.3415 2.18701C15.5129 2.77604 16.8593 2.77604 18.0307 2.18701L18.7115 1.84373C20.0161 1.18838 21.5717 1.7072 22.2525 3.02569L22.61 3.71225C23.2223 4.89421 24.3101 5.7056 25.5918 5.93575L26.3411 6.07228C27.7711 6.32973 28.7334 7.68724 28.528 9.16177L28.4215 9.93414C28.2389 11.2604 28.6535 12.5711 29.5625 13.5307L30.0912 14.0925C31.1029 15.1613 31.1029 16.8387 30.0912 17.9114Z" fill="#2EAFAB"/>
<path d="M22.2373 9.79375C21.9406 9.48948 21.4576 9.48948 21.1609 9.79375L10.135 21.1024C9.83833 21.4067 9.83833 21.9021 10.135 22.2063C10.2833 22.3585 10.4773 22.4365 10.6713 22.4365C10.8652 22.4365 11.0592 22.3585 11.2075 22.2063L22.2334 10.8977C22.5339 10.5934 22.5339 10.098 22.2373 9.79375Z" fill="#2EAFAB"/>
<path d="M13.094 13.9365C13.9231 13.9365 14.7484 13.6128 15.3798 12.9652C16.6387 11.674 16.6387 9.56756 15.3798 8.27638C14.1209 6.98519 12.0671 6.98519 10.8082 8.27638C10.1958 8.90051 9.86114 9.7353 9.86114 10.6208C9.86114 11.5063 10.1958 12.3411 10.8082 12.9652C11.4395 13.6128 12.2649 13.9365 13.094 13.9365ZM11.8845 9.38032C12.2192 9.03704 12.6566 8.86541 13.094 8.86541C13.5314 8.86541 13.9688 9.03704 14.3035 9.38032C14.969 10.063 14.969 11.1786 14.3035 11.8613C13.6341 12.5439 12.5501 12.5439 11.8845 11.8613C11.5612 11.5297 11.3825 11.0889 11.3825 10.6208C11.3825 10.1527 11.5612 9.7119 11.8845 9.38032Z" fill="#2EAFAB"/>
<path d="M16.9924 19.0349C15.7335 20.3261 15.7335 22.4326 16.9924 23.7238C17.6238 24.3713 18.4491 24.6951 19.2782 24.6951C20.1074 24.6951 20.9327 24.3713 21.5641 23.7238C22.1764 23.0957 22.5111 22.2648 22.5111 21.3793C22.5111 20.4938 22.1764 19.6591 21.5641 19.0349C20.3052 17.7398 18.2551 17.7398 16.9924 19.0349ZM20.4877 22.6198C19.8221 23.3025 18.7344 23.3025 18.0688 22.6198C17.4032 21.9372 17.4032 20.8215 18.0688 20.1389C18.4035 19.7956 18.8409 19.6239 19.2782 19.6239C19.7156 19.6239 20.153 19.7956 20.4877 20.1389C20.811 20.4704 20.9898 20.9112 20.9898 21.3793C20.9898 21.8474 20.811 22.2882 20.4877 22.6198Z" fill="#2EAFAB"/>
</svg>
