<svg width="45" height="45" viewBox="0 0 45 45" fill="none" xmlns="http://www.w3.org/2000/svg">
<path d="M42.5261 17.8821C41.7247 17.0332 41.3557 15.876 41.5191 14.7025L41.6667 13.6318C42.1096 10.4252 40.0218 7.4727 36.9111 6.91573L35.8725 6.72646C34.7389 6.52098 33.7741 5.80719 33.2363 4.76354L32.7407 3.81182C31.2592 0.951256 27.8796 -0.178911 25.0431 1.24867L24.0941 1.71912C23.0608 2.23824 21.8692 2.23824 20.8358 1.71912L19.8921 1.24326C17.0556 -0.178911 13.676 0.945848 12.1945 3.80642L11.6989 4.75814C11.1559 5.80178 10.1963 6.52098 9.06277 6.72106L8.02412 6.91032C4.91346 7.46729 2.82562 10.4198 3.2685 13.6264L3.41612 14.6971C3.57956 15.8705 3.2105 17.0278 2.40911 17.8767L1.67626 18.65C-0.522295 20.9752 -0.522295 24.6253 1.67626 26.9505L2.40911 27.7292C3.2105 28.5782 3.57956 29.7354 3.41612 30.9088L3.2685 31.9795C2.82562 35.1861 4.91346 38.1386 8.02412 38.6956L9.06277 38.8849C10.1963 39.0904 11.1611 39.8041 11.6989 40.8478L12.1945 41.7995C13.2437 43.8219 15.2366 44.9791 17.3245 44.9791C18.1839 44.9791 19.0643 44.779 19.8921 44.3627L20.8358 43.8976C21.8692 43.3785 23.0608 43.3785 24.0941 43.8976L25.0379 44.3735C27.8744 45.7956 31.2539 44.6709 32.7354 41.8103L33.231 40.8586C33.7741 39.815 34.7337 39.0958 35.8672 38.8957L36.9058 38.7064C40.0165 38.1494 42.1043 35.1969 41.6615 31.9903L41.5138 30.9196C41.3504 29.7462 41.7195 28.589 42.5209 27.74L43.2537 26.9667C45.4523 24.6415 45.4523 20.9914 43.2537 18.6662L42.5261 17.8821ZM41.7406 25.458L41.0077 26.2313C39.7529 27.5616 39.1729 29.3839 39.426 31.217L39.5736 32.2877C39.8583 34.3317 38.5244 36.2136 36.5421 36.5705L35.5034 36.7597C33.7214 37.0788 32.2135 38.2035 31.3699 39.842L30.8743 40.7937C29.9306 42.616 27.7742 43.3406 25.9658 42.4322L25.0221 41.9563C23.3982 41.1398 21.5318 41.1398 19.9079 41.9563L18.9642 42.4322C17.1558 43.3406 14.9994 42.6214 14.0556 40.7937L13.56 39.842C12.7112 38.2035 11.2033 37.0788 9.42656 36.7597L8.38791 36.5705C6.40552 36.2136 5.07163 34.3317 5.35633 32.2877L5.50396 31.217C5.75703 29.3785 5.18235 27.5616 3.92226 26.2313L3.18941 25.4526C1.78698 23.9656 1.78698 21.6458 3.18941 20.1587L3.92226 19.3854C5.17707 18.0552 5.75703 16.2328 5.50396 14.3997L5.35633 13.329C5.07163 11.285 6.40552 9.40318 8.38791 9.04628L9.42656 8.85702C11.2086 8.53798 12.7165 7.41322 13.56 5.77474L14.0556 4.82303C14.7252 3.53063 15.9959 2.79521 17.3245 2.79521C17.8728 2.79521 18.4317 2.91959 18.9642 3.18455L19.9079 3.66041C21.5318 4.47695 23.3982 4.47695 25.0221 3.66041L25.9658 3.18455C27.7742 2.27609 29.9306 2.99529 30.8743 4.82303L31.3699 5.77474C32.2188 7.41322 33.7266 8.53798 35.5034 8.85702L36.5421 9.04628C38.5244 9.40318 39.8583 11.285 39.5736 13.329L39.426 14.3997C39.1729 16.2383 39.7476 18.0552 41.0077 19.3854L41.7406 20.1641C43.143 21.6458 43.143 23.971 41.7406 25.458Z" fill="#2EAFAB"/>
<path d="M30.8532 14.2051C30.442 13.7833 29.7724 13.7833 29.3612 14.2051L14.0767 29.8815C13.6655 30.3033 13.6655 30.99 14.0767 31.4118C14.2824 31.6227 14.5512 31.7308 14.8201 31.7308C15.089 31.7308 15.3579 31.6227 15.5635 31.4118L30.848 15.7355C31.2645 15.3137 31.2645 14.6269 30.8532 14.2051Z" fill="#2EAFAB"/>
<path d="M18.1786 19.9479C19.328 19.9479 20.4721 19.4991 21.3473 18.6014C23.0924 16.8116 23.0924 13.8915 21.3473 12.1016C19.6021 10.3117 16.7551 10.3117 15.0099 12.1016C14.1611 12.9668 13.6971 14.124 13.6971 15.3515C13.6971 16.579 14.1611 17.7362 15.0099 18.6014C15.8852 19.4991 17.0292 19.9479 18.1786 19.9479ZM16.502 13.6319C16.966 13.1561 17.5723 12.9182 18.1786 12.9182C18.7849 12.9182 19.3912 13.1561 19.8552 13.6319C20.7779 14.5783 20.7779 16.1248 19.8552 17.0711C18.9273 18.0174 17.4247 18.0174 16.502 17.0711C16.0539 16.6115 15.8061 16.0004 15.8061 15.3515C15.8061 14.7026 16.0539 14.0916 16.502 13.6319Z" fill="#2EAFAB"/>
<path d="M23.5827 27.0155C21.8375 28.8054 21.8375 31.7254 23.5827 33.5153C24.4579 34.413 25.602 34.8618 26.7513 34.8618C27.9007 34.8618 29.0448 34.413 29.92 33.5153C30.7688 32.6447 31.2328 31.4929 31.2328 30.2654C31.2328 29.0379 30.7688 27.8807 29.92 27.0155C28.1748 25.2202 25.3331 25.2202 23.5827 27.0155ZM28.4279 31.985C27.5053 32.9313 25.9974 32.9313 25.0747 31.985C24.1521 31.0387 24.1521 29.4921 25.0747 28.5458C25.5387 28.07 26.145 27.832 26.7513 27.832C27.3576 27.832 27.9639 28.07 28.4279 28.5458C28.8761 29.0055 29.1239 29.6165 29.1239 30.2654C29.1239 30.9143 28.8761 31.5254 28.4279 31.985Z" fill="#2EAFAB"/>
</svg>
