<svg width="28" height="32" viewBox="0 0 28 32" fill="none" xmlns="http://www.w3.org/2000/svg">
<path d="M26.9634 5.63131C24.3388 5.25619 22.2438 3.16125 21.8687 0.536563C21.8247 0.228688 21.561 0 21.25 0H6.25C5.939 0 5.67531 0.228688 5.63131 0.536563C5.25625 3.16119 3.16119 5.25619 0.536563 5.63131C0.228688 5.67531 0 5.93894 0 6.25V8.00813C0 17.6052 5.14187 27.1756 13.4399 31.9177C13.536 31.9726 13.643 32 13.75 32C13.857 32 13.964 31.9726 14.0601 31.9177C21.8916 27.4422 27.5 18.2023 27.5 8.00813V6.25C27.5 5.93894 27.2713 5.67531 26.9634 5.63131ZM26.25 8.00813C26.25 17.3004 21.3548 26.146 13.75 30.6519C6.14519 26.146 1.25 17.3004 1.25 8.00813V6.77187C3.98237 6.17356 6.16412 4.02563 6.77181 1.25H20.7282C21.3264 3.98231 23.4743 6.16406 26.25 6.77187V8.00813Z" fill="#2EAFAB"/>
<path d="M19.1159 4.09063C19.0091 3.88156 18.7941 3.75 18.5594 3.75H8.94061C8.70573 3.75 8.49067 3.88162 8.38392 4.09087C7.45211 5.91656 5.93386 7.43788 4.10898 8.37456C3.89217 8.48581 3.7598 8.713 3.76992 8.95656C4.06798 16.1318 7.71061 23.3907 13.3778 27.4322C13.5984 27.5959 13.8945 27.5964 14.1135 27.441C19.3719 23.7096 23.4163 16.7094 23.7314 8.956C23.7412 8.71256 23.6089 8.48563 23.392 8.37444C21.5679 7.439 20.0494 5.91775 19.1159 4.09063ZM14.375 25.6633V18.1875C14.375 17.8424 14.0952 17.5625 13.75 17.5625C13.4048 17.5625 13.125 17.8424 13.125 18.1875V25.6639C8.52505 21.8848 5.41436 15.6288 5.03848 9.29388C6.82273 8.29156 8.32123 6.78731 9.31555 5H13.125V12.5625C13.125 12.9076 13.4048 13.1875 13.75 13.1875C14.0952 13.1875 14.375 12.9076 14.375 12.5625V5H18.1846C19.1802 6.7885 20.6795 8.29306 22.4634 9.29437C22.0319 16.8289 18.0549 22.6119 14.375 25.6633Z" fill="#2EAFAB"/>
<path d="M13.75 16.175C14.1918 16.175 14.55 15.8168 14.55 15.375C14.55 14.9332 14.1918 14.575 13.75 14.575C13.3082 14.575 12.95 14.9332 12.95 15.375C12.95 15.8168 13.3082 16.175 13.75 16.175Z" fill="#2EAFAB"/>
</svg>
