<svg width="35" height="40" viewBox="0 0 35 40" fill="none" xmlns="http://www.w3.org/2000/svg">
<path d="M33.7043 7.03914C30.4235 6.57023 27.8048 3.95156 27.3359 0.670703C27.2809 0.285859 26.9513 0 26.5625 0H7.8125C7.42375 0 7.09414 0.285859 7.03914 0.670703C6.57031 3.95148 3.95148 6.57023 0.670703 7.03914C0.285859 7.09414 0 7.42367 0 7.8125V10.0102C0 22.0065 6.42734 33.9695 16.7999 39.8971C16.92 39.9657 17.0537 40 17.1875 40C17.3213 40 17.455 39.9657 17.5751 39.8971C27.3645 34.3027 34.375 22.7529 34.375 10.0102V7.8125C34.375 7.42367 34.0891 7.09414 33.7043 7.03914ZM32.8125 10.0102C32.8125 21.6255 26.6935 32.6825 17.1875 38.3149C7.68148 32.6825 1.5625 21.6255 1.5625 10.0102V8.46484C4.97797 7.71695 7.70516 5.03203 8.46477 1.5625H25.9102C26.658 4.97789 29.3429 7.70508 32.8125 8.46484V10.0102Z" fill="#2EAFAB"/>
<path d="M23.8949 5.11328C23.7614 4.85195 23.4927 4.6875 23.1992 4.6875H11.1758C10.8822 4.6875 10.6134 4.85203 10.4799 5.11359C9.31516 7.3957 7.41735 9.29734 5.13625 10.4682C4.86524 10.6073 4.69977 10.8913 4.71242 11.1957C5.085 20.1647 9.63828 29.2384 16.7223 34.2902C16.998 34.4948 17.3682 34.4955 17.642 34.3013C24.2148 29.637 29.2704 20.8868 29.6642 11.195C29.6766 10.8907 29.5111 10.607 29.2401 10.468C26.9599 9.29875 25.0617 7.39719 23.8949 5.11328ZM17.9688 32.0791V22.7344C17.9688 22.303 17.619 21.9531 17.1875 21.9531C16.756 21.9531 16.4063 22.303 16.4063 22.7344V32.0798C10.6563 27.356 6.76797 19.5359 6.29813 11.6173C8.52844 10.3645 10.4016 8.48414 11.6445 6.25H16.4063V15.7031C16.4063 16.1345 16.756 16.4844 17.1875 16.4844C17.619 16.4844 17.9688 16.1345 17.9688 15.7031V6.25H22.7308C23.9753 8.48563 25.8495 10.3663 28.0792 11.618C27.5398 21.0362 22.5686 28.2648 17.9688 32.0791Z" fill="#2EAFAB"/>
<path d="M17.1875 20.2188C17.7398 20.2188 18.1875 19.771 18.1875 19.2188C18.1875 18.6665 17.7398 18.2188 17.1875 18.2188C16.6352 18.2188 16.1875 18.6665 16.1875 19.2188C16.1875 19.771 16.6352 20.2188 17.1875 20.2188Z" fill="#2EAFAB"/>
</svg>
