<svg width="35" height="41" viewBox="0 0 35 41" fill="none" xmlns="http://www.w3.org/2000/svg">
<path d="M33.7043 7.28914C30.4235 6.82023 27.8048 4.20156 27.3359 0.920703C27.2809 0.535859 26.9513 0.25 26.5625 0.25H7.8125C7.42375 0.25 7.09414 0.535859 7.03914 0.920703C6.57031 4.20148 3.95148 6.82023 0.670703 7.28914C0.285859 7.34414 0 7.67367 0 8.0625V10.2602C0 22.2565 6.42734 34.2195 16.7999 40.1471C16.92 40.2157 17.0537 40.25 17.1875 40.25C17.3213 40.25 17.455 40.2157 17.5751 40.1471C27.3645 34.5527 34.375 23.0029 34.375 10.2602V8.0625C34.375 7.67367 34.0891 7.34414 33.7043 7.28914ZM32.8125 10.2602C32.8125 21.8755 26.6935 32.9325 17.1875 38.5649C7.68148 32.9325 1.5625 21.8755 1.5625 10.2602V8.71484C4.97797 7.96695 7.70516 5.28203 8.46477 1.8125H25.9102C26.658 5.22789 29.3429 7.95508 32.8125 8.71484V10.2602Z" fill="#fff"/>
<path d="M23.8949 5.36328C23.7614 5.10195 23.4927 4.9375 23.1992 4.9375H11.1758C10.8822 4.9375 10.6134 5.10203 10.4799 5.36359C9.31516 7.6457 7.41735 9.54734 5.13625 10.7182C4.86524 10.8573 4.69977 11.1413 4.71242 11.4457C5.085 20.4147 9.63828 29.4884 16.7223 34.5402C16.998 34.7448 17.3682 34.7455 17.642 34.5513C24.2148 29.887 29.2704 21.1368 29.6642 11.445C29.6766 11.1407 29.5111 10.857 29.2401 10.718C26.9599 9.54875 25.0617 7.64719 23.8949 5.36328ZM17.9688 32.3291V22.9844C17.9688 22.553 17.619 22.2031 17.1875 22.2031C16.756 22.2031 16.4063 22.553 16.4063 22.9844V32.3298C10.6563 27.606 6.76797 19.7859 6.29813 11.8673C8.52844 10.6145 10.4016 8.73414 11.6445 6.5H16.4063V15.9531C16.4063 16.3845 16.756 16.7344 17.1875 16.7344C17.619 16.7344 17.9688 16.3845 17.9688 15.9531V6.5H22.7308C23.9753 8.73563 25.8495 10.6163 28.0792 11.868C27.5398 21.2862 22.5686 28.5148 17.9688 32.3291Z" fill="#fff"/>
<path d="M17.1875 20.4688C17.7398 20.4688 18.1875 20.021 18.1875 19.4688C18.1875 18.9165 17.7398 18.4688 17.1875 18.4688C16.6352 18.4688 16.1875 18.9165 16.1875 19.4688C16.1875 20.021 16.6352 20.4688 17.1875 20.4688Z" fill="#fff"/>
</svg>
